<?xml version="1.0" standalone="no"?>
<!DOCTYPE svg PUBLIC "-//W3C//DTD SVG 1.1//EN" "http://www.w3.org/Graphics/SVG/1.1/DTD/svg11.dtd" >
<svg xmlns="http://www.w3.org/2000/svg" xmlns:xlink="http://www.w3.org/1999/xlink" version="1.1">
<metadata>
Created by FontForge 20170731 at Sat Jun  4 13:54:03 2022
 By Aleksey,,,
Copyright (c) 2012 by atipo. All rights reserved.
</metadata>
<defs>
<font id="Bariol-Regular" horiz-adv-x="1060" >
  <font-face 
    font-family="Bariol Regular"
    font-weight="400"
    font-stretch="normal"
    units-per-em="2048"
    panose-1="2 0 5 6 4 0 0 2 0 3"
    ascent="1612"
    descent="-436"
    x-height="930"
    cap-height="1395"
    bbox="-340 -516 2122 2078.6"
    underline-thickness="40"
    underline-position="-312"
    unicode-range="U+0020-FB06"
  />
<missing-glyph horiz-adv-x="1187" 
d="M633 254h-113v113h113v-113zM625 469h-97v80q0 63 22.5 115t54 87t63.5 67.5t54.5 71t22.5 81.5q0 68 -44.5 105.5t-110.5 37.5q-162 0 -162 -166h-98q0 135 73 202t189 67q113 0 184.5 -62t71.5 -176q0 -60 -23 -108t-56 -81.5t-65.5 -65.5t-55.5 -76.5t-23 -98.5v-80z
M180 98h828v1235h-828v-1235zM82 1434h1024v-1434h-1024v1434z" />
    <glyph glyph-name="ellipsis" unicode="&#x2e;&#x2e;&#x2e;" horiz-adv-x="1439" 
d="M164 -16q-96 0 -96 96q0 98 96 98t96 -98q0 -96 -96 -96zM719 -16q-96 0 -96 96q0 98 96 98t96 -98q0 -96 -96 -96zM1276 -16q-96 0 -96 96q0 98 96 98t96 -98q0 -96 -96 -96z" />
    <glyph glyph-name="f_f" unicode="ff" horiz-adv-x="1138" 
d="M721 807h-416v-758q0 -28 -18.5 -46.5t-46.5 -18.5t-47 18.5t-19 46.5v758h-70q-26 0 -43.5 17.5t-17.5 43.5t17.5 44t43.5 18h70v121q0 71 20.5 133t62 111.5t111 78.5t160.5 29q26 0 44 -18t18 -44t-18 -43.5t-44 -17.5q-115 0 -169 -61.5t-54 -167.5v-121h416v121
q0 71 20.5 133t62 111.5t111 78.5t160.5 29q26 0 44 -18t18 -44t-18 -43.5t-44 -17.5q-115 0 -169 -61.5t-54 -167.5v-121h186q26 0 44 -18t18 -44t-18 -43.5t-44 -17.5h-186v-758q0 -28 -19 -46.5t-47 -18.5t-46.5 18.5t-18.5 46.5v758z" />
    <glyph glyph-name="fi" unicode="fi" horiz-adv-x="966" 
d="M174 807h-70q-26 0 -43.5 17.5t-17.5 43.5t17.5 44t43.5 18h70v121q0 71 20.5 133t62 111.5t111 78.5t160.5 29q63 0 124.5 -14t92.5 -31q37 -21 37 -58q0 -26 -17.5 -43.5t-43.5 -17.5q-11 0 -43 12q-82 29 -150 29q-115 0 -169 -61.5t-54 -167.5v-121h463q28 0 47 -19
t19 -47v-815q0 -28 -19 -46.5t-47 -18.5t-47 18.5t-19 46.5v758h-397v-758q0 -28 -18.5 -46.5t-46.5 -18.5t-47 18.5t-19 46.5v758z" />
    <glyph glyph-name="fl" unicode="fl" horiz-adv-x="1017" 
d="M174 807h-70q-26 0 -43.5 17.5t-17.5 43.5t17.5 44t43.5 18h70v121q0 71 20.5 133t62 111.5t111 78.5t160.5 29q156 0 260 -53q46 -22 46 -64v-1063q0 -61 19.5 -89t61.5 -28q25 0 43.5 -17.5t18.5 -43.5t-18.5 -43.5t-43.5 -17.5q-103 0 -158 60.5t-55 178.5v584h-397
v-758q0 -28 -18.5 -46.5t-46.5 -18.5t-47 18.5t-19 46.5v758zM305 1051v-121h397v319q-87 31 -174 31q-115 0 -169 -61.5t-54 -167.5z" />
    <glyph glyph-name="f_f_i" unicode="ffi" horiz-adv-x="1513" 
d="M721 807h-416v-758q0 -28 -18.5 -46.5t-46.5 -18.5t-47 18.5t-19 46.5v758h-70q-26 0 -43.5 17.5t-17.5 43.5t17.5 44t43.5 18h70v121q0 71 20.5 133t62 111.5t111 78.5t160.5 29q26 0 44 -18t18 -44t-18 -43.5t-44 -17.5q-115 0 -169 -61.5t-54 -167.5v-121h416v121
q0 71 20.5 133t62 111.5t111 78.5t160.5 29q63 0 124.5 -14t92.5 -31q37 -21 37 -58q0 -26 -17.5 -43.5t-43.5 -17.5q-11 0 -43 12q-82 29 -150 29q-115 0 -169 -61.5t-54 -167.5v-121h463q28 0 46.5 -19t18.5 -47v-815q0 -28 -18.5 -46.5t-46.5 -18.5t-47 18.5t-19 46.5
v758h-397v-758q0 -28 -19 -46.5t-47 -18.5t-46.5 18.5t-18.5 46.5v758z" />
    <glyph glyph-name="f_f_l" unicode="ffl" horiz-adv-x="1564" 
d="M721 807h-416v-758q0 -28 -18.5 -46.5t-46.5 -18.5t-47 18.5t-19 46.5v758h-70q-26 0 -43.5 17.5t-17.5 43.5t17.5 44t43.5 18h70v121q0 71 20.5 133t62 111.5t111 78.5t160.5 29q26 0 44 -18t18 -44t-18 -43.5t-44 -17.5q-115 0 -169 -61.5t-54 -167.5v-121h416v121
q0 71 20.5 133t62 111.5t111 78.5t160.5 29q156 0 260 -53q45 -22 45 -64v-1063q0 -117 82 -117q25 0 43.5 -17.5t18.5 -43.5t-18.5 -43.5t-43.5 -17.5q-103 0 -158 60.5t-55 178.5v584h-397v-758q0 -28 -19 -46.5t-47 -18.5t-46.5 18.5t-18.5 46.5v758zM852 1051v-121h397
v319q-87 31 -174 31q-115 0 -169 -61.5t-54 -167.5z" />
    <glyph glyph-name="f_j" unicode="fj" horiz-adv-x="966" 
d="M702 -72v879h-397v-758q0 -28 -18.5 -46.5t-46.5 -18.5t-47 18.5t-19 46.5v758h-70q-26 0 -43.5 17.5t-17.5 43.5t17.5 44t43.5 18h70v121q0 71 20.5 133t62 111.5t111 78.5t160.5 29q63 0 124.5 -14t92.5 -31q37 -21 37 -58q0 -26 -17.5 -43.5t-43.5 -17.5q-11 0 -43 12
q-82 29 -150 29q-115 0 -169 -61.5t-54 -167.5v-121h463q28 0 47 -19t19 -47v-936q0 -130 -85 -218.5t-214 -88.5q-26 0 -44 18t-18 44t18 43.5t44 17.5q73 0 120 53t47 131z" />
    <glyph glyph-name="f_b" unicode="fb" horiz-adv-x="1595" 
d="M834 659v-282q0 -141 73 -213t197 -72q289 0 289 375q0 187 -74 280t-215 93q-54 0 -101.5 -18.5t-77 -45t-51.5 -53.5t-31 -45zM702 377v872q-87 31 -174 31q-115 0 -169 -61.5t-54 -167.5v-121h187q26 0 43.5 -18t17.5 -44t-17.5 -43.5t-43.5 -17.5h-187v-758
q0 -28 -18.5 -46.5t-46.5 -18.5t-47 18.5t-19 46.5v758h-70q-26 0 -43.5 17.5t-17.5 43.5t17.5 44t43.5 18h70v121q0 71 20.5 133t62 111.5t111 78.5t160.5 29q156 0 260 -53q46 -22 46 -64v-461q39 55 112.5 94t165.5 39q412 0 412 -491q0 -247 -109 -370.5t-311 -123.5
q-181 0 -291.5 104t-110.5 300z" />
    <glyph glyph-name="f_f_b" unicode="ffb" horiz-adv-x="2142" 
d="M1249 377v872q-87 31 -174 31q-115 0 -169 -61.5t-54 -167.5v-121h186q26 0 44 -18t18 -44t-18 -43.5t-44 -17.5h-186v-758q0 -28 -19 -46.5t-47 -18.5t-46.5 18.5t-18.5 46.5v758h-416v-758q0 -28 -18.5 -46.5t-46.5 -18.5t-47 18.5t-19 46.5v758h-70q-26 0 -43.5 17.5
t-17.5 43.5t17.5 44t43.5 18h70v121q0 71 20.5 133t62 111.5t111 78.5t160.5 29q26 0 44 -18t18 -44t-18 -43.5t-44 -17.5q-115 0 -169 -61.5t-54 -167.5v-121h416v121q0 71 20.5 133t62 111.5t111 78.5t160.5 29q156 0 260 -53q45 -22 45 -64v-461q39 55 113 94t166 39
q412 0 412 -491q0 -247 -109 -370.5t-311 -123.5q-181 0 -291.5 104t-110.5 300zM1380 659v-282q0 -141 73.5 -213t197.5 -72q288 0 288 375q0 187 -73.5 280t-214.5 93q-54 0 -102 -18.5t-77.5 -45t-51.5 -53.5t-31 -45z" />
    <glyph glyph-name="f_h" unicode="fh" horiz-adv-x="1595" 
d="M702 49v1200q-87 31 -174 31q-115 0 -169 -61.5t-54 -167.5v-121h187q26 0 43.5 -18t17.5 -44t-17.5 -43.5t-43.5 -17.5h-187v-758q0 -28 -18.5 -46.5t-46.5 -18.5t-47 18.5t-19 46.5v758h-70q-26 0 -43.5 17.5t-17.5 43.5t17.5 44t43.5 18h70v121q0 71 20.5 133
t62 111.5t111 78.5t160.5 29q156 0 260 -53q46 -22 46 -64v-471q31 62 103.5 102.5t168.5 40.5q377 0 377 -362v-547q0 -28 -19 -46.5t-47 -18.5t-46.5 18.5t-18.5 46.5v520q0 65 -11 112t-37.5 85t-75.5 57t-122 19q-272 0 -272 -287v-506q0 -28 -19 -46.5t-47 -18.5
t-47 18.5t-19 46.5z" />
    <glyph glyph-name="f_f_h" unicode="ffh" horiz-adv-x="2142" 
d="M1249 49v1200q-87 31 -174 31q-115 0 -169 -61.5t-54 -167.5v-121h186q26 0 44 -18t18 -44t-18 -43.5t-44 -17.5h-186v-758q0 -28 -19 -46.5t-47 -18.5t-46.5 18.5t-18.5 46.5v758h-416v-758q0 -28 -18.5 -46.5t-46.5 -18.5t-47 18.5t-19 46.5v758h-70q-26 0 -43.5 17.5
t-17.5 43.5t17.5 44t43.5 18h70v121q0 71 20.5 133t62 111.5t111 78.5t160.5 29q26 0 44 -18t18 -44t-18 -43.5t-44 -17.5q-115 0 -169 -61.5t-54 -167.5v-121h416v121q0 71 20.5 133t62 111.5t111 78.5t160.5 29q156 0 260 -53q45 -22 45 -64v-471q31 62 104 102.5
t169 40.5q377 0 377 -362v-547q0 -28 -19 -46.5t-47 -18.5t-47 18.5t-19 46.5v520q0 65 -10.5 111.5t-37 85t-75.5 57.5t-122 19q-273 0 -273 -287v-506q0 -28 -18.5 -46.5t-46.5 -18.5t-47 18.5t-19 46.5z" />
    <glyph glyph-name="f_k" unicode="fk" horiz-adv-x="1497" 
d="M702 49v1200q-87 31 -174 31q-115 0 -169 -61.5t-54 -167.5v-121h187q26 0 43.5 -18t17.5 -44t-17.5 -43.5t-43.5 -17.5h-187v-758q0 -28 -18.5 -46.5t-46.5 -18.5t-47 18.5t-19 46.5v758h-70q-26 0 -43.5 17.5t-17.5 43.5t17.5 44t43.5 18h70v121q0 71 20.5 133
t62 111.5t111 78.5t160.5 29q156 0 260 -53q46 -22 46 -64v-751l483 395q18 16 45 16q28 0 46.5 -18.5t18.5 -46.5q0 -33 -26 -54l-336 -268l365 -469q14 -16 14 -41q0 -28 -19 -46.5t-47 -18.5q-33 0 -57 30l-363 465l-124 -100v-330q0 -28 -19 -46.5t-47 -18.5t-47 18.5
t-19 46.5z" />
    <glyph glyph-name="f_f_k" unicode="ffk" horiz-adv-x="2043" 
d="M1380 1286v-751l484 395q18 16 45 16q28 0 46.5 -18.5t18.5 -46.5q0 -33 -26 -54l-336 -268l364 -469q15 -17 15 -41q0 -28 -19 -46.5t-47 -18.5q-33 0 -57 30l-363 465l-125 -100v-330q0 -28 -18.5 -46.5t-46.5 -18.5t-47 18.5t-19 46.5v1200q-87 31 -174 31
q-115 0 -169 -61.5t-54 -167.5v-121h186q26 0 44 -18t18 -44t-18 -43.5t-44 -17.5h-186v-758q0 -28 -19 -46.5t-47 -18.5t-46.5 18.5t-18.5 46.5v758h-416v-758q0 -28 -18.5 -46.5t-46.5 -18.5t-47 18.5t-19 46.5v758h-70q-26 0 -43.5 17.5t-17.5 43.5t17.5 44t43.5 18h70
v121q0 71 20.5 133t62 111.5t111 78.5t160.5 29q26 0 44 -18t18 -44t-18 -43.5t-44 -17.5q-115 0 -169 -61.5t-54 -167.5v-121h416v121q0 71 20.5 133t62 111.5t111 78.5t160.5 29q156 0 260 -53q45 -22 45 -64z" />
    <glyph glyph-name="f_f_j" unicode="ffj" horiz-adv-x="1513" 
d="M1249 -72v879h-397v-758q0 -28 -19 -46.5t-47 -18.5t-46.5 18.5t-18.5 46.5v758h-416v-758q0 -28 -18.5 -46.5t-46.5 -18.5t-47 18.5t-19 46.5v758h-70q-26 0 -43.5 17.5t-17.5 43.5t17.5 44t43.5 18h70v121q0 71 20.5 133t62 111.5t111 78.5t160.5 29q26 0 44 -18
t18 -44t-18 -43.5t-44 -17.5q-115 0 -169 -61.5t-54 -167.5v-121h416v121q0 71 20.5 133t62 111.5t111 78.5t160.5 29q63 0 124.5 -14t92.5 -31q37 -21 37 -58q0 -26 -17.5 -43.5t-43.5 -17.5q-11 0 -43 12q-82 29 -150 29q-115 0 -169 -61.5t-54 -167.5v-121h463
q28 0 46.5 -19t18.5 -47v-936q0 -130 -85 -218.5t-214 -88.5q-26 0 -43.5 18t-17.5 44t17.5 43.5t43.5 17.5q73 0 120.5 53.5t47.5 130.5z" />
    <glyph glyph-name=".notdef" horiz-adv-x="1187" 
d="M633 254h-113v113h113v-113zM625 469h-97v80q0 63 22.5 115t54 87t63.5 67.5t54.5 71t22.5 81.5q0 68 -44.5 105.5t-110.5 37.5q-162 0 -162 -166h-98q0 135 73 202t189 67q113 0 184.5 -62t71.5 -176q0 -60 -23 -108t-56 -81.5t-65.5 -65.5t-55.5 -76.5t-23 -98.5v-80z
M180 98h828v1235h-828v-1235zM82 1434h1024v-1434h-1024v1434z" />
    <glyph glyph-name=".null" horiz-adv-x="0" 
 />
    <glyph glyph-name="nonmarkingreturn" horiz-adv-x="682" 
 />
    <glyph glyph-name="space" unicode=" " horiz-adv-x="487" 
 />
    <glyph glyph-name="exclam" unicode="!" horiz-adv-x="425" 
d="M213 1395q75 0 72 -72l-31 -965q0 -36 -41 -36t-41 36l-31 965q-3 72 72 72zM213 -16q-96 0 -96 96q0 98 96 98t96 -98q0 -96 -96 -96z" />
    <glyph glyph-name="quotedbl" unicode="&#x22;" horiz-adv-x="573" 
d="M172 1395q30 0 44.5 -15t12.5 -41l-18 -352q-3 -35 -39 -35t-39 35l-18 352q-2 26 12.5 41t44.5 15zM401 1395q30 0 45 -15t13 -41l-19 -352q-3 -35 -39 -35t-39 35l-18 352q-2 26 12.5 41t44.5 15z" />
    <glyph glyph-name="numbersign" unicode="#" horiz-adv-x="1126" 
d="M213 47l59 387h-129q-20 0 -34.5 14.5t-14.5 34.5t14.5 34.5t34.5 14.5h146l43 279h-144q-20 0 -34.5 14.5t-14.5 34.5t14.5 34.5t34.5 14.5h160l58 383q3 19 17 31t34 12q22 0 36.5 -14.5t14.5 -36.5q0 -8 -2 -18l-53 -357h284l58 383q3 19 17 31t34 12q22 0 36.5 -14.5
t14.5 -36.5q0 -8 -2 -18l-53 -357h141q20 0 34.5 -14.5t14.5 -34.5t-14.5 -34.5t-34.5 -14.5h-158l-43 -279h156q20 0 34.5 -14.5t14.5 -34.5t-14.5 -34.5t-34.5 -14.5h-172l-64 -414q-3 -19 -17 -31t-34 -12q-22 0 -36.5 15t-14.5 37q0 8 2 18l60 387h-285l-64 -414
q-3 -19 -17 -31t-34 -12q-22 0 -36.5 15t-14.5 37q0 8 2 18zM436 811l-43 -279h285l43 279h-285z" />
    <glyph glyph-name="dollar" unicode="$" horiz-adv-x="1142" 
d="M907 1118q-130 162 -332 162q-151 0 -223.5 -63t-72.5 -160q0 -54 26.5 -96.5t71.5 -71t103 -52t122 -45t128 -45t122 -56.5t103 -75t71.5 -105t26.5 -142q0 -179 -111 -280.5t-317 -115.5v-153q0 -22 -16 -37.5t-38 -15.5t-37.5 15.5t-15.5 37.5v153q-152 9 -266.5 79.5
t-167.5 170.5q-10 20 -10 37q0 28 18.5 47t46.5 19q38 0 58 -33q54 -87 145.5 -141t218.5 -54q170 0 261 68.5t91 202.5q0 61 -26.5 108t-71.5 77.5t-103 55t-122 45t-128 42t-122 52t-103 70t-71.5 100t-26.5 138.5q0 140 96.5 237t282.5 111v156q0 22 15.5 37.5t37.5 15.5
t38 -15.5t16 -37.5v-156q127 -9 227.5 -64t161.5 -145q12 -18 12 -39q0 -28 -18.5 -46.5t-46.5 -18.5q-33 0 -54 26z" />
    <glyph glyph-name="percent" unicode="%" horiz-adv-x="1527" 
d="M1096 1395q22 0 36.5 -15t14.5 -37q0 -12 -4 -20l-668 -1313q-13 -26 -45 -26q-22 0 -36.5 14.5t-14.5 36.5q0 12 4 20l668 1313q13 27 45 27zM385 834q199 0 199 239q0 240 -199 240q-197 0 -197 -240q0 -239 197 -239zM385 1407q81 0 140.5 -25.5t94 -72t50.5 -105
t16 -131.5q0 -72 -16 -130.5t-50.5 -105t-94 -72.5t-140.5 -26q-156 0 -227.5 92t-71.5 242q0 152 71.5 243t227.5 91zM1143 68q198 0 198 239q0 53 -9 93.5t-30.5 75t-61.5 53t-97 18.5q-197 0 -197 -240q0 -239 197 -239zM1143 641q81 0 140.5 -25.5t94 -72t50.5 -105
t16 -131.5q0 -72 -16 -130.5t-50.5 -105t-94 -72.5t-140.5 -26q-156 0 -227.5 92t-71.5 242q0 152 71.5 243t227.5 91z" />
    <glyph glyph-name="ampersand" unicode="&#x26;" horiz-adv-x="1261" 
d="M352 1092q0 -160 68 -289q98 66 166.5 158.5t68.5 171.5q0 73 -40.5 114t-102.5 41q-79 0 -119.5 -54t-40.5 -142zM803 190q-155 121 -254.5 218t-169.5 213q-158 -103 -158 -263q0 -120 90 -194t217 -74q82 0 154 29t121 71zM909 109q-151 -138 -381 -138
q-124 0 -222 43.5t-157 132.5t-59 211q0 115 55.5 204t169.5 171q-94 175 -94 359q0 138 77.5 226.5t213.5 88.5q121 0 197.5 -73t76.5 -201q0 -122 -78 -223.5t-227 -213.5q124 -199 408 -411q54 79 84 207q5 20 22 33.5t39 13.5q26 0 45 -19t19 -45q0 -20 -6 -41
q-32 -124 -99 -227q19 -12 37 -22.5t30 -17t33 -16.5t29 -13.5t35.5 -15.5t36.5 -16q41 -17 41 -59q0 -26 -19 -44.5t-45 -18.5q-37 0 -123 43t-139 82z" />
    <glyph glyph-name="quotesingle" unicode="'" horiz-adv-x="344" 
d="M172 1395q30 0 44.5 -15t12.5 -41l-18 -352q-3 -35 -39 -35t-39 35l-18 352q-2 26 12.5 41t44.5 15z" />
    <glyph glyph-name="parenleft" unicode="(" horiz-adv-x="602" 
d="M123 606q0 288 33.5 463t107.5 276t207 160q15 6 27 6q23 0 40 -17t17 -40q0 -37 -37 -53q-38 -18 -69 -39.5t-56 -49t-44 -54.5t-33.5 -65.5t-24.5 -72t-17 -83.5t-11 -90.5t-6 -103.5t-2.5 -112t-0.5 -125t0.5 -125t2.5 -111.5t6 -103.5t11 -91t17 -83.5t24.5 -71.5
t33.5 -65t44 -54.5t56 -49t69 -39.5q37 -16 37 -54q0 -23 -17 -40t-40 -17q-12 0 -27 6q-133 59 -207 160t-107.5 276t-33.5 463z" />
    <glyph glyph-name="parenright" unicode=")" horiz-adv-x="602" 
d="M479 606q0 -288 -33.5 -463t-107.5 -276t-207 -160q-15 -6 -27 -6q-23 0 -40 17t-17 40q0 38 37 54q38 18 69 39.5t56 49t44 54.5t33.5 65t24.5 71.5t17 83.5t11 91t6 103.5t2.5 111.5t0.5 125t-0.5 125t-2.5 112t-6 103.5t-11 90.5t-17 83.5t-24.5 72t-33.5 65.5
t-44 54.5t-56 49t-69 39.5q-37 16 -37 53q0 23 17 40t40 17q12 0 27 -6q133 -59 207 -160t107.5 -276t33.5 -463z" />
    <glyph glyph-name="asterisk" unicode="*" horiz-adv-x="731" 
d="M492 903l-127 191l-127 -191q-23 -38 -60 -12q-36 25 -12 59l131 180l-207 48q-40 9 -31 55q4 21 19.5 29t34.5 2l215 -64l-9 217q0 41 46 41q45 0 45 -41l-9 -217l215 64q19 6 34.5 -2t19.5 -29q9 -46 -31 -55l-207 -48l131 -180q24 -34 -12 -59q-37 -26 -59 12z" />
    <glyph glyph-name="plus" unicode="+" horiz-adv-x="929" 
d="M930 446q0 -23 -16.5 -39t-39.5 -16h-350v-348q0 -25 -17 -42t-42 -17t-42 17t-17 42v348h-351q-23 0 -39 16t-16 39t16 39.5t39 16.5h351v350q0 25 17 42t42 17t42 -17t17 -42v-350h350q23 0 39.5 -16.5t16.5 -39.5z" />
    <glyph glyph-name="comma" unicode="," horiz-adv-x="331" 
d="M264 47q0 -104 -39 -199t-108 -167q-13 -13 -27 -13q-12 0 -21.5 9t-9.5 22q0 7 7 18q40 56 57.5 96t17.5 91q0 26 -11.5 48.5t-25 37t-25 38.5t-11.5 52q0 98 96 98q100 0 100 -131z" />
    <glyph glyph-name="hyphen" unicode="-" horiz-adv-x="745" 
d="M633 516q0 -23 -16 -39t-39 -16h-410q-23 0 -39 16t-16 39t16 39t39 16h410q23 0 39 -16t16 -39z" />
    <glyph glyph-name="period" unicode="." horiz-adv-x="327" 
d="M164 -16q-96 0 -96 96q0 98 96 98t96 -98q0 -96 -96 -96z" />
    <glyph glyph-name="slash" unicode="/" horiz-adv-x="833" 
d="M84 -104l541 1595q14 47 63 47q28 0 47 -18.5t19 -46.5q0 -13 -6 -31l-541 -1596q-14 -47 -64 -47q-28 0 -46.5 19t-18.5 47q0 13 6 31z" />
    <glyph glyph-name="zero" unicode="0" horiz-adv-x="1232" 
d="M616 94q192 0 281.5 140.5t89.5 455.5t-89 454.5t-282 139.5q-192 0 -281 -139.5t-89 -454.5t89 -455.5t281 -140.5zM616 1407q259 0 382.5 -174.5t123.5 -542.5t-124 -543.5t-382 -175.5t-381.5 175t-123.5 544q0 368 123.5 542.5t381.5 174.5z" />
    <glyph glyph-name="one" unicode="1" horiz-adv-x="718" 
d="M399 1206l-219 -157q-20 -13 -39 -13q-26 0 -45.5 20t-19.5 46q0 36 28 55l322 223q21 15 41 15q28 0 48 -20t20 -48v-1276q0 -28 -20 -47.5t-48 -19.5t-48 19.5t-20 47.5v1155z" />
    <glyph glyph-name="two" unicode="2" horiz-adv-x="1089" 
d="M137 1141q42 126 148 196t262 70q204 0 321 -108.5t117 -290.5q0 -100 -42 -190t-109 -157.5t-148 -128t-162 -111t-148 -97.5t-109 -97.5t-42 -99.5h715q26 0 45 -19t19 -45t-19 -44.5t-45 -18.5h-790q-26 0 -45 18.5t-19 44.5q0 72 26 136t70 114t101.5 96.5
t120.5 87.5t126 82.5t120.5 87t101.5 95t70 112.5t26 134q0 122 -79.5 199t-221.5 77q-61 0 -109.5 -14.5t-82.5 -42t-57 -58.5t-42 -73q-18 -41 -59 -41q-26 0 -45 18.5t-19 44.5q0 11 4 23z" />
    <glyph glyph-name="three" unicode="3" horiz-adv-x="1110" 
d="M541 836h20q97 0 173 -24.5t124.5 -65.5t79.5 -98.5t44 -120t13 -134.5q0 -203 -121 -312.5t-352 -109.5q-300 0 -440 232q-10 17 -10 35q0 26 17.5 43.5t43.5 17.5q35 0 55 -33q104 -172 334 -172q168 0 253 77t85 222q0 320 -309 320h-143q-26 0 -44 17.5t-18 43.5
q0 24 16 43l377 438h-528q-26 0 -43.5 18t-17.5 44t17.5 43.5t43.5 17.5h668q26 0 43.5 -17.5t17.5 -43.5q0 -24 -16 -43z" />
    <glyph glyph-name="four" unicode="4" horiz-adv-x="1105" 
d="M850 444h117q28 0 46.5 -17.5t18.5 -43.5q0 -28 -18.5 -47t-46.5 -19h-117v-266q0 -28 -20 -47.5t-48 -19.5t-47.5 19.5t-19.5 47.5v266h-598q-26 0 -45 19t-19 45q0 20 15 41l659 942q22 29 55 29q28 0 48 -20t20 -48v-881zM236 444h479v689z" />
    <glyph glyph-name="five" unicode="5" horiz-adv-x="1136" 
d="M557 913q220 0 347.5 -117t127.5 -352q0 -237 -127.5 -355t-347.5 -118q-167 0 -288 72.5t-185 204.5q-8 16 -8 31q0 26 18.5 44.5t44.5 18.5q38 0 58 -35q67 -111 150 -160t210 -49q158 0 249 84.5t91 261.5q0 173 -91.5 258.5t-248.5 85.5q-110 0 -184.5 -28
t-143.5 -96q-27 -27 -55 -27q-26 0 -44.5 18.5t-18.5 44.5q0 7 4 27l118 602q3 19 20 34t42 15h623q26 0 44.5 -18.5t18.5 -44.5t-18.5 -45t-44.5 -19h-578l-82 -420q117 82 299 82z" />
    <glyph glyph-name="six" unicode="6" horiz-adv-x="1159" 
d="M596 887q210 0 337.5 -115t127.5 -340q0 -121 -34.5 -211t-99 -144t-150 -80t-193.5 -26q-125 0 -219.5 50.5t-152 143t-86 215.5t-28.5 277q0 750 514 750q112 0 200 -34t130 -79q21 -21 21 -47t-19 -44.5t-45 -18.5q-22 0 -43 16q-113 84 -244 84q-379 0 -379 -577
q48 72 143.5 126t219.5 54zM584 94q342 0 342 338q0 168 -91 250t-239 82q-227 0 -352 -223q0 -200 88.5 -323.5t251.5 -123.5z" />
    <glyph glyph-name="seven" unicode="7" horiz-adv-x="989" 
d="M227 49q0 138 32 263t83 218t112.5 177t123 154t112.5 132.5t83 128.5t32 129h-690q-26 0 -45 19t-19 45t19 44.5t45 18.5h764q26 0 44.5 -18.5t18.5 -44.5q0 -94 -32 -180.5t-83.5 -157.5t-114 -143.5t-125 -152.5t-114 -168.5t-83.5 -208t-32 -255.5q0 -28 -18.5 -46.5
t-46.5 -18.5t-47 18.5t-19 46.5z" />
    <glyph glyph-name="eight" unicode="8" horiz-adv-x="1134" 
d="M567 -29q-220 0 -349.5 107t-129.5 311q0 131 63.5 226.5t178.5 138.5q-180 96 -180 297q0 178 111.5 267t305.5 89t306 -89t112 -267q0 -201 -180 -297q115 -43 178.5 -138.5t63.5 -226.5q0 -204 -130 -311t-350 -107zM567 1284q-135 0 -208.5 -58.5t-73.5 -174.5
q0 -119 75 -180.5t207 -61.5t207.5 61.5t75.5 180.5q0 116 -74 174.5t-209 58.5zM567 686q-165 0 -254.5 -74t-89.5 -223q0 -148 92.5 -221.5t251.5 -73.5t251.5 73.5t92.5 221.5q0 149 -89.5 223t-254.5 74z" />
    <glyph glyph-name="nine" unicode="9" horiz-adv-x="1159" 
d="M563 492q-102 0 -186 27.5t-147 82.5t-97.5 142.5t-34.5 201.5q0 121 34.5 211t99 144t150 80t193.5 26q125 0 219.5 -50.5t152 -143t86 -215.5t28.5 -277q0 -750 -514 -750q-112 0 -200 34t-130 79q-20 20 -20 47q0 26 18.5 45t44.5 19q20 0 43 -17q113 -84 244 -84
q379 0 379 578q-48 -72 -143.5 -126t-219.5 -54zM575 1284q-342 0 -342 -338q0 -168 91 -250t239 -82q227 0 352 224q0 200 -88.5 323t-251.5 123z" />
    <glyph glyph-name="colon" unicode=":" horiz-adv-x="327" 
d="M164 -16q-96 0 -96 96q0 98 96 98t96 -98q0 -96 -96 -96zM164 739q-96 0 -96 97q0 98 96 98t96 -98q0 -97 -96 -97z" />
    <glyph glyph-name="semicolon" unicode=";" horiz-adv-x="327" 
d="M264 47q0 -104 -39 -199t-108 -167q-13 -13 -27 -13q-12 0 -21.5 9t-9.5 22q0 7 7 18q40 56 57.5 96t17.5 91q0 26 -11.5 48.5t-25 37t-25 38.5t-11.5 52q0 98 96 98q100 0 100 -131zM164 739q-96 0 -96 97q0 98 96 98t96 -98q0 -97 -96 -97z" />
    <glyph glyph-name="less" unicode="&#x3c;" horiz-adv-x="690" 
d="M0 481q0 28 27 47l575 455q13 10 33 10q23 0 39 -16t16 -39q0 -29 -22 -45l-533 -412l533 -411q22 -16 22 -45q0 -23 -16 -39.5t-39 -16.5q-18 0 -33 11l-575 454q-27 19 -27 47z" />
    <glyph glyph-name="equal" unicode="=" horiz-adv-x="929" 
d="M930 602q0 -23 -16.5 -39t-39.5 -16h-819q-23 0 -39 16t-16 39t16 39t39 16h819q23 0 39.5 -16t16.5 -39zM930 289q0 -23 -16.5 -39.5t-39.5 -16.5h-819q-23 0 -39 16.5t-16 39.5t16 39t39 16h819q23 0 39.5 -16t16.5 -39z" />
    <glyph glyph-name="greater" unicode="&#x3e;" horiz-adv-x="690" 
d="M690 481q0 -28 -26 -47l-576 -454q-15 -11 -33 -11q-23 0 -39 16.5t-16 39.5q0 28 23 45l532 411l-532 412q-23 17 -23 45q0 23 16 39t39 16q20 0 33 -10l576 -455q26 -19 26 -47z" />
    <glyph glyph-name="question" unicode="?" horiz-adv-x="944" 
d="M379 324q-66 66 -66 174q0 54 23.5 98.5t61.5 77t83.5 62t91 61t83.5 66.5t61.5 86t23.5 112q0 112 -72 168.5t-202 56.5q-124 0 -193 -61.5t-69 -184.5q0 -28 -20 -47.5t-48 -19.5t-47.5 19.5t-19.5 47.5q0 171 104.5 269t292.5 98q191 0 298 -90.5t107 -255.5
q0 -73 -23 -135t-60.5 -105t-82 -79.5t-89.5 -65.5t-82.5 -55.5t-60.5 -57.5t-23 -65q0 -38 28 -82q17 -26 17 -45q0 -30 -21.5 -49t-46.5 -19q-28 0 -49 21zM420 -16q-96 0 -96 96q0 98 96 98t96 -98q0 -96 -96 -96z" />
    <glyph glyph-name="at" unicode="@" horiz-adv-x="1640" 
d="M1012 111q-79 -125 -244 -125q-119 0 -196.5 59.5t-77.5 163.5q0 103 70.5 162t195.5 59h237v51q0 75 -52.5 116.5t-137.5 41.5q-107 0 -180 -84q-18 -18 -41 -18q-20 0 -34.5 14.5t-14.5 34.5q0 17 10 30q88 119 260 119q142 0 215.5 -71.5t73.5 -192.5v-250
q0 -82 33 -115.5t100 -33.5q115 0 171 73t56 254q0 155 -45 272t-129.5 190t-201 109t-263.5 36q-150 0 -264 -35.5t-198 -112t-127.5 -203.5t-43.5 -303t43.5 -303t128 -202.5t198 -110.5t263.5 -35q303 0 473 113q12 8 27 8q19 0 33 -13t14 -34q0 -24 -21 -39
q-112 -69 -236.5 -97t-289.5 -28q-354 0 -544.5 184.5t-190.5 556.5q0 373 190.5 558.5t544.5 185.5q162 0 296.5 -43.5t234.5 -128.5t155.5 -219t55.5 -306q0 -59 -7 -111t-29 -109.5t-57 -98.5t-96 -67.5t-141 -26.5q-163 0 -217 125zM776 76q89 0 155 52t66 146v68h-237
q-77 0 -120.5 -33.5t-43.5 -99.5q0 -63 46 -98t134 -35z" />
    <glyph glyph-name="A" unicode="A" horiz-adv-x="1255" 
d="M870 535l-243 626l-242 -626h485zM913 408h-571l-149 -375q-18 -49 -68 -49q-29 0 -49.5 20.5t-20.5 48.5q0 19 6 31l500 1264q19 47 66 47q48 0 67 -47l500 -1264q6 -15 6 -31q0 -29 -20 -49t-52 -20q-50 0 -67 47z" />
    <glyph glyph-name="B" unicode="B" horiz-adv-x="1148" 
d="M303 1251v-475h277q134 0 206 64t72 174q0 113 -69.5 175t-208.5 62h-277zM303 657v-530h338q138 0 209.5 70t71.5 196q0 125 -75 194.5t-206 69.5h-338zM643 0h-410q-28 0 -48.5 20.5t-20.5 49.5v1239q0 29 20.5 49t48.5 20h349q210 0 313.5 -96t103.5 -268
q0 -100 -55.5 -177t-142.5 -102q118 -30 190 -115t72 -227q0 -181 -110 -287t-310 -106z" />
    <glyph glyph-name="C" unicode="C" horiz-adv-x="1292" 
d="M729 -29q-308 0 -473.5 175t-165.5 542q0 357 167.5 538t471.5 181q145 0 266.5 -58t194.5 -159q14 -20 14 -43q0 -28 -18.5 -47t-46.5 -19q-32 0 -54 27q-55 76 -150 124t-206 48q-240 0 -368 -148t-128 -444q0 -310 125.5 -450t370.5 -140q107 0 202.5 42.5
t153.5 125.5q19 27 54 27q28 0 46.5 -19t18.5 -47q0 -21 -12 -39q-67 -98 -194.5 -157.5t-268.5 -59.5z" />
    <glyph glyph-name="D" unicode="D" horiz-adv-x="1245" 
d="M303 1251v-1124h219q119 0 206.5 28t153 92t99 174t33.5 267q0 155 -33.5 265.5t-99 175t-153.5 93.5t-206 29h-219zM233 1378h289q151 0 264.5 -37t198 -117.5t127.5 -215t43 -320.5t-43 -320t-127.5 -214t-198 -117t-264.5 -37h-289q-29 0 -49 20.5t-20 49.5v1239
q0 29 20 49t49 20z" />
    <glyph glyph-name="E" unicode="E" 
d="M913 0h-680q-29 0 -49 20.5t-20 49.5v1239q0 29 20 49t49 20h658q26 0 44.5 -18.5t18.5 -44.5t-18.5 -45t-44.5 -19h-588v-493h451q26 0 44.5 -19t18.5 -45t-18.5 -44.5t-44.5 -18.5h-451v-504h610q26 0 45 -19t19 -45t-19 -44.5t-45 -18.5z" />
    <glyph glyph-name="F" unicode="F" 
d="M303 614v-561q0 -29 -20.5 -49t-49.5 -20t-49 20t-20 49v1256q0 29 20 49t49 20h658q26 0 44.5 -18.5t18.5 -44.5t-18.5 -45t-44.5 -19h-588v-510h451q26 0 44.5 -18.5t18.5 -44.5t-18.5 -45t-44.5 -19h-451z" />
    <glyph glyph-name="G" unicode="G" horiz-adv-x="1357" 
d="M729 98q132 0 227.5 46.5t153.5 117.5v297h-342q-26 0 -44.5 19t-18.5 45t18.5 44.5t44.5 18.5h414q25 0 44 -18.5t19 -44.5v-359q0 -34 -26 -67q-87 -102 -203.5 -164t-286.5 -62q-308 0 -473.5 175t-165.5 542q0 357 167.5 538t471.5 181q145 0 266.5 -58t194.5 -159
q14 -20 14 -43q0 -28 -18.5 -47t-46.5 -19q-32 0 -54 27q-55 76 -149.5 124t-206.5 48q-240 0 -368 -148t-128 -444q0 -310 125.5 -450t370.5 -140z" />
    <glyph glyph-name="H" unicode="H" horiz-adv-x="1318" 
d="M1016 643h-713v-590q0 -28 -20.5 -48.5t-49.5 -20.5t-49 20.5t-20 48.5v1272q0 28 20 49t49 21t49.5 -21t20.5 -49v-555h713v555q0 28 20 49t49 21t49.5 -21t20.5 -49v-1272q0 -28 -20.5 -48.5t-49.5 -20.5t-49 20.5t-20 48.5v590z" />
    <glyph glyph-name="I" unicode="I" horiz-adv-x="466" 
d="M303 1325v-1272q0 -28 -20.5 -48.5t-49.5 -20.5t-49 20.5t-20 48.5v1272q0 28 20 49t49 21t49.5 -21t20.5 -49z" />
    <glyph glyph-name="J" unicode="J" horiz-adv-x="845" 
d="M72 20q-39 22 -39 62q0 28 19.5 48t47.5 20q12 0 41 -13q65 -33 152 -33q129 0 189.5 84t60.5 228v909q0 28 20 49t49 21t49.5 -21t20.5 -49v-909q0 -97 -21 -175t-66 -139.5t-121.5 -95t-180.5 -33.5q-141 0 -221 47z" />
    <glyph glyph-name="K" unicode="K" horiz-adv-x="1134" 
d="M303 686l596 682q22 27 55 27q29 0 50.5 -21.5t21.5 -50.5q0 -26 -20 -49l-428 -479l495 -699q14 -21 14 -43q0 -29 -20 -49t-49 -20q-37 0 -60 32l-475 676l-180 -203v-436q0 -29 -20.5 -49t-49.5 -20t-49 20t-20 49v1272q0 29 20 49.5t49 20.5t49.5 -20.5t20.5 -49.5
v-639z" />
    <glyph glyph-name="L" unicode="L" horiz-adv-x="989" 
d="M303 131h561q28 0 47 -18.5t19 -46.5t-19 -47t-47 -19h-631q-29 0 -49 20.5t-20 49.5v1255q0 29 20 49.5t49 20.5t49.5 -20.5t20.5 -49.5v-1194z" />
    <glyph glyph-name="M" unicode="M" horiz-adv-x="1558" 
d="M768 223q-42 0 -61 39l-428 797v-1008q0 -28 -20 -47.5t-48 -19.5t-48 19.5t-20 47.5v1276q0 28 20 48t48 20q41 0 61 -39l496 -928l498 928q22 39 61 39q28 0 48 -20t20 -48v-1276q0 -28 -20 -47.5t-48 -19.5t-47.5 19.5t-19.5 47.5v1008l-431 -797q-20 -39 -61 -39z
" />
    <glyph glyph-name="N" unicode="N" horiz-adv-x="1269" 
d="M1059 1395q28 0 47.5 -20t19.5 -48v-1274q0 -29 -20 -49t-49 -20q-36 0 -58 28l-720 1088v-1049q0 -28 -20 -47.5t-48 -19.5t-48 19.5t-20 47.5v1276q0 28 20 48t48 20q34 0 55 -29l725 -1090v1051q0 28 20 48t48 20z" />
    <glyph glyph-name="O" unicode="O" horiz-adv-x="1458" 
d="M729 -29q-304 0 -471.5 181.5t-167.5 535.5q0 357 167.5 538t471.5 181t471.5 -181t167.5 -538q0 -354 -167.5 -535.5t-471.5 -181.5zM729 1280q-239 0 -367.5 -148t-128.5 -444q0 -294 128.5 -442t367.5 -148t367.5 148t128.5 442q0 296 -128.5 444t-367.5 148z" />
    <glyph glyph-name="P" unicode="P" horiz-adv-x="1114" 
d="M303 1251v-546h318q126 0 198 71t72 203t-72 202t-198 70h-318zM303 578v-525q0 -29 -20.5 -49t-49.5 -20t-49 20t-20 49v1256q0 29 20 49t49 20h408q173 0 282 -101.5t109 -297.5q0 -194 -108.5 -297.5t-282.5 -103.5h-338z" />
    <glyph glyph-name="Q" unicode="Q" horiz-adv-x="1458" 
d="M729 -29q-304 0 -471.5 181.5t-167.5 535.5q0 357 167.5 538t471.5 181t471.5 -181t167.5 -538q0 -255 -88 -421.5t-252 -239.5q96 -42 148 -107q20 -26 20 -51q0 -28 -20.5 -48t-49.5 -20q-28 0 -51 23q-51 57 -87.5 84.5t-99.5 45t-159 17.5zM729 1280
q-239 0 -367.5 -148t-128.5 -444q0 -294 128.5 -442t367.5 -148t367.5 148t128.5 442q0 296 -128.5 444t-367.5 148z" />
    <glyph glyph-name="R" unicode="R" horiz-adv-x="1118" 
d="M303 1251v-528h342q106 0 176 76.5t70 187.5q0 114 -71 189t-181 75h-336zM303 596v-543q0 -29 -20.5 -49t-49.5 -20t-49 20t-20 49v1256q0 29 20 49t49 20h408q169 0 280 -112.5t111 -278.5q0 -161 -101.5 -272.5t-264.5 -118.5l374 -500q15 -18 15 -43q0 -29 -20.5 -49
t-49.5 -20q-39 0 -59 32l-416 580h-207z" />
    <glyph glyph-name="S" unicode="S" horiz-adv-x="1142" 
d="M907 1118q-130 162 -332 162q-151 0 -223.5 -63t-72.5 -160q0 -54 26.5 -96.5t71.5 -71t103 -52t122 -45t128 -45t122 -56.5t103 -75t71.5 -105t26.5 -142q0 -192 -127.5 -295t-364.5 -103q-166 0 -293.5 72.5t-183.5 179.5q-10 20 -10 37q0 28 18.5 47t46.5 19
q38 0 58 -33q54 -87 145.5 -141t218.5 -54q170 0 261 68.5t91 202.5q0 61 -26.5 108t-71.5 77.5t-103 55t-122 45t-128 42t-122 52t-103 70t-71.5 100t-26.5 138.5q0 151 111.5 250.5t324.5 99.5q144 0 258.5 -56.5t180.5 -154.5q12 -18 12 -39q0 -28 -18.5 -46.5
t-46.5 -18.5q-33 0 -54 26z" />
    <glyph glyph-name="T" unicode="T" horiz-adv-x="1101" 
d="M481 1247h-366q-28 0 -47 19t-19 47t19 46.5t47 18.5h870q28 0 47 -18.5t19 -46.5t-19 -47t-47 -19h-364v-1194q0 -29 -20.5 -49t-49.5 -20t-49.5 20t-20.5 49v1194z" />
    <glyph glyph-name="U" unicode="U" horiz-adv-x="1277" 
d="M645 -29q-112 0 -198 25.5t-138.5 67t-86 101.5t-46 121.5t-12.5 133.5v905q0 29 20 49.5t49 20.5t49.5 -20.5t20.5 -49.5v-905q0 -53 8 -96t31 -85.5t60 -71.5t99 -47t144 -18t143 18t98 47t60 71.5t31 85.5t8 96v905q0 29 20.5 49.5t49.5 20.5t49 -20.5t20 -49.5v-905
q0 -449 -479 -449z" />
    <glyph glyph-name="V" unicode="V" horiz-adv-x="1179" 
d="M590 248l416 1102q6 16 22.5 30.5t42.5 14.5q29 0 49.5 -20.5t20.5 -49.5q0 -13 -6 -31l-480 -1263q-7 -21 -25.5 -34t-39.5 -13t-40 13t-26 34l-479 1263q-6 18 -6 31q0 29 20.5 49.5t49.5 20.5q26 0 42.5 -14.5t22.5 -30.5z" />
    <glyph glyph-name="W" unicode="W" horiz-adv-x="1675" 
d="M1133 37l-295 1042l-295 -1042q-6 -25 -24.5 -39t-43.5 -14q-24 0 -42.5 14t-24.5 37l-363 1265q-4 16 -4 25q0 29 20.5 49.5t49.5 20.5q27 0 44.5 -16t22.5 -36l299 -1058l293 1058q6 24 25 38t43 14t42.5 -14t24.5 -38l293 -1058l299 1058q5 20 23 36t45 16
q29 0 49 -20.5t20 -49.5q0 -9 -4 -25l-362 -1265q-6 -23 -25 -37t-43 -14q-25 0 -43 14t-24 39z" />
    <glyph glyph-name="X" unicode="X" horiz-adv-x="1024" 
d="M885 10l-373 572l-373 -572q-16 -26 -55 -26q-29 0 -49.5 20t-20.5 49q0 19 11 37l409 617l-385 581q-10 13 -10 37q0 29 20.5 49.5t49.5 20.5q37 0 61 -35l342 -524l342 524q24 35 61 35q29 0 49.5 -20.5t20.5 -49.5q0 -24 -10 -37l-385 -581l409 -617q11 -18 11 -37
q0 -29 -20.5 -49t-49.5 -20q-39 0 -55 26z" />
    <glyph glyph-name="Y" unicode="Y" 
d="M530 -16q-29 0 -49 20t-20 49v588l-412 647q-10 17 -10 37q0 29 20.5 49.5t49.5 20.5q39 0 59 -33l362 -582l363 582q20 33 59 33q29 0 49.5 -20.5t20.5 -49.5q0 -20 -10 -37l-412 -647v-588q0 -29 -20.5 -49t-49.5 -20z" />
    <glyph glyph-name="Z" unicode="Z" horiz-adv-x="1050" 
d="M961 0h-861q-28 0 -46.5 19t-18.5 47q0 20 12 38l762 1143h-666q-28 0 -46.5 19t-18.5 47t18.5 46.5t46.5 18.5h787q28 0 46.5 -18.5t18.5 -46.5q0 -21 -12 -39l-756 -1143h734q28 0 46.5 -18.5t18.5 -46.5t-18.5 -47t-46.5 -19z" />
    <glyph glyph-name="bracketleft" unicode="[" horiz-adv-x="530" 
d="M489 -246q0 -22 -15.5 -37.5t-37.5 -15.5h-207q-28 0 -46.5 19t-18.5 47v1679q0 28 18.5 46.5t46.5 18.5h207q22 0 37.5 -15.5t15.5 -37.5t-15.5 -37.5t-37.5 -15.5h-141v-1598h141q22 0 37.5 -15.5t15.5 -37.5z" />
    <glyph glyph-name="backslash" unicode="\" horiz-adv-x="833" 
d="M209 1491l541 -1595q6 -18 6 -31q0 -28 -19 -47t-47 -19q-49 0 -63 47l-541 1596q-6 18 -6 31q0 28 18.5 46.5t46.5 18.5q50 0 64 -47z" />
    <glyph glyph-name="bracketright" unicode="]" horiz-adv-x="530" 
d="M41 -246q0 22 15.5 37.5t37.5 15.5h142v1598h-142q-22 0 -37.5 15.5t-15.5 37.5t15.5 37.5t37.5 15.5h207q28 0 47 -18.5t19 -46.5v-1679q0 -28 -19 -47t-47 -19h-207q-22 0 -37.5 15.5t-15.5 37.5z" />
    <glyph glyph-name="asciicircum" unicode="^" horiz-adv-x="958" 
d="M776 723l-297 534l-297 -534q-15 -27 -47 -27q-23 0 -39 16.5t-16 39.5q0 14 6 26l346 611q15 26 47 26t47 -26l346 -611q7 -14 7 -26q0 -23 -16.5 -39.5t-39.5 -16.5q-32 0 -47 27z" />
    <glyph glyph-name="underscore" unicode="_" horiz-adv-x="831" 
d="M874 -143q0 -23 -16 -39.5t-39 -16.5h-807q-23 0 -39 16.5t-16 39.5t16 39t39 16h807q23 0 39 -16t16 -39z" />
    <glyph glyph-name="grave" unicode="`" horiz-adv-x="757" 
d="M510 1065q-32 -25 -61 4l-199 201q-37 37 6 78q26 20 45.5 18.5t32.5 -18.5l182 -222q27 -35 -6 -61z" />
    <glyph glyph-name="a" unicode="a" horiz-adv-x="956" 
d="M475 836q-80 0 -134.5 -25t-102.5 -80q-25 -29 -54 -29q-25 0 -42 17.5t-17 42.5q0 18 10 35q46 73 132 117t208 44q176 0 272.5 -94t96.5 -254v-563q0 -26 -19 -44.5t-45 -18.5t-44.5 18.5t-18.5 44.5v74q-37 -70 -117.5 -109t-175.5 -39q-165 0 -259.5 77t-94.5 216
q0 135 96 212t262 77h289v55q0 104 -65 165t-177 61zM436 92q115 0 198 69t83 193v86h-289q-104 0 -164.5 -44t-60.5 -130q0 -82 58 -128t175 -46z" />
    <glyph glyph-name="b" unicode="b" horiz-adv-x="1026" 
d="M264 659v-282q0 -141 73.5 -213t197.5 -72q288 0 288 375q0 187 -73.5 280t-214.5 93q-54 0 -102 -18.5t-77.5 -45t-51.5 -53.5t-31 -45zM543 958q411 0 411 -491q0 -247 -108.5 -370.5t-310.5 -123.5q-181 0 -291.5 104t-110.5 300v1016q0 28 19 46.5t47 18.5
t46.5 -18.5t18.5 -46.5v-568q39 55 113 94t166 39z" />
    <glyph glyph-name="c" unicode="c" horiz-adv-x="903" 
d="M72 467q0 247 109.5 369t312.5 122q119 0 198.5 -45.5t116.5 -95.5q14 -20 14 -39q0 -26 -17 -42.5t-42 -16.5q-28 0 -49 24q-17 19 -30 31t-40 30t-65.5 27t-85.5 9q-289 0 -289 -373q0 -375 289 -375q55 0 105.5 16.5t74 31.5t57.5 40q21 15 39 15q25 0 42 -17.5
t17 -42.5q0 -28 -26 -51q-135 -111 -309 -111q-202 0 -312 123.5t-110 370.5z" />
    <glyph glyph-name="d" unicode="d" horiz-adv-x="1026" 
d="M762 377v282q-3 7 -9.5 19.5t-30 43.5t-52 55t-76.5 43.5t-102 19.5q-141 0 -215 -93t-74 -280q0 -375 289 -375q124 0 197 72t73 213zM483 958q92 0 166 -39t113 -94v568q0 28 18.5 46.5t46.5 18.5t47 -18.5t19 -46.5v-1016q0 -196 -110 -300t-291 -104
q-202 0 -311 123.5t-109 370.5q0 491 411 491z" />
    <glyph glyph-name="e" unicode="e" horiz-adv-x="954" 
d="M72 467q0 235 111 363t311 128q79 0 142.5 -19.5t105 -53.5t71 -74t44.5 -87t21.5 -86.5t6.5 -78.5q0 -30 -1.5 -46.5t-8.5 -39.5t-25 -34t-47 -11h-598q0 -153 82.5 -243.5t226.5 -90.5q80 0 136 23.5t110 64.5q20 13 37 13q25 0 42 -17.5t17 -42.5t-22 -47t-56 -44.5
t-107.5 -46.5t-156.5 -24q-211 0 -326.5 121.5t-115.5 372.5zM756 543q0 60 -12 109t-39.5 93.5t-81 69.5t-129.5 25q-131 0 -205.5 -79t-83.5 -218h551z" />
    <glyph glyph-name="f" unicode="f" horiz-adv-x="591" 
d="M174 807h-70q-26 0 -43.5 17.5t-17.5 43.5t17.5 44t43.5 18h70v121q0 71 20.5 133t62 111.5t111 78.5t160.5 29q26 0 44 -18t18 -44t-18 -43.5t-44 -17.5q-115 0 -169 -61.5t-54 -167.5v-121h187q26 0 43.5 -18t17.5 -44t-17.5 -43.5t-43.5 -17.5h-187v-758
q0 -28 -18.5 -46.5t-46.5 -18.5t-47 18.5t-19 46.5v758z" />
    <glyph glyph-name="g" unicode="g" horiz-adv-x="978" 
d="M469 958q131 0 219 -51q30 54 70.5 82.5t111.5 28.5q25 0 42.5 -17.5t17.5 -42.5t-17.5 -42t-42.5 -17q-71 0 -98 -63q74 -90 74 -222q0 -158 -100 -251t-277 -93q-131 0 -221 52q-37 -29 -37 -74q0 -86 151 -86h211q159 0 259 -70.5t100 -208.5q0 -103 -59.5 -170.5
t-155.5 -96t-225 -28.5q-67 0 -127 8t-118 28.5t-99.5 52t-67 82.5t-25.5 116q0 69 41.5 123t114.5 84q-58 19 -92.5 63t-34.5 103q0 88 82 143q-74 92 -74 223q0 158 100 251t277 93zM469 389q116 0 180 61t64 164t-64 164.5t-180 61.5t-180 -61.5t-64 -164.5t64 -164
t180 -61zM799 -117q0 156 -226 156h-213q-87 -15 -129.5 -57.5t-42.5 -106.5q0 -60 44 -99.5t110 -56t152 -16.5q134 0 219.5 43.5t85.5 136.5z" />
    <glyph glyph-name="h" unicode="h" horiz-adv-x="1026" 
d="M537 958q91 0 159.5 -21.5t109 -55.5t65.5 -83t33.5 -97t8.5 -105v-547q0 -28 -18.5 -46.5t-46.5 -18.5t-47 18.5t-19 46.5v520q0 65 -10.5 111.5t-37 85t-75.5 57.5t-122 19q-273 0 -273 -287v-506q0 -28 -18.5 -46.5t-46.5 -18.5t-47 18.5t-19 46.5v1344q0 28 19 46.5
t47 18.5t46.5 -18.5t18.5 -46.5v-578q31 62 104 102.5t169 40.5z" />
    <glyph glyph-name="i" unicode="i" horiz-adv-x="395" 
d="M262 881v-832q0 -28 -18.5 -46.5t-46.5 -18.5t-47 18.5t-19 46.5v832q0 28 19 46.5t47 18.5t46.5 -18.5t18.5 -46.5zM197 1139q-37 0 -57.5 20.5t-20.5 57.5q0 81 78 81q77 0 77 -81q0 -37 -20 -57.5t-57 -20.5z" />
    <glyph glyph-name="j" unicode="j" horiz-adv-x="397" 
d="M133 -72v953q0 28 19 46.5t47 18.5t46.5 -18.5t18.5 -46.5v-953q0 -130 -85 -218.5t-214 -88.5q-26 0 -43.5 18t-17.5 44t17.5 43.5t43.5 17.5q73 0 120.5 53.5t47.5 130.5zM199 1139q-37 0 -57.5 20.5t-20.5 57.5q0 81 78 81q77 0 77 -81q0 -37 -20 -57.5t-57 -20.5z
" />
    <glyph glyph-name="k" unicode="k" horiz-adv-x="927" 
d="M809 -16q-33 0 -57 30l-363 465l-125 -100v-330q0 -28 -18.5 -46.5t-46.5 -18.5t-47 18.5t-19 46.5v1344q0 28 19 46.5t47 18.5t46.5 -18.5t18.5 -46.5v-858l484 395q18 16 45 16q28 0 46.5 -18.5t18.5 -46.5q0 -32 -27 -54l-335 -268l364 -469q14 -16 14 -41
q0 -28 -18.5 -46.5t-46.5 -18.5z" />
    <glyph glyph-name="l" unicode="l" horiz-adv-x="448" 
d="M199 1458q27 0 46 -19t19 -46v-1170q0 -117 82 -117q25 0 43.5 -17.5t18.5 -43.5t-18.5 -43.5t-43.5 -17.5q-103 0 -158 60.5t-55 178.5v1170q0 26 20 45.5t46 19.5z" />
    <glyph glyph-name="m" unicode="m" horiz-adv-x="1654" 
d="M1155 958q91 0 161 -21.5t112 -55.5t68.5 -83t36 -97.5t9.5 -104.5v-547q0 -28 -18.5 -46.5t-46.5 -18.5t-47 18.5t-19 46.5v520q0 132 -57.5 202.5t-198.5 70.5q-129 0 -192.5 -64.5t-63.5 -181.5v-547q0 -28 -18.5 -46.5t-46.5 -18.5t-47 18.5t-19 46.5v520
q0 133 -55 203t-197 70q-136 0 -194 -74.5t-58 -212.5v-506q0 -28 -18.5 -46.5t-46.5 -18.5t-47 18.5t-19 46.5v832q0 28 19 46.5t47 18.5t46.5 -18.5t18.5 -46.5v-66q28 61 99.5 102t166.5 41q121 0 204 -39t122 -104q91 143 299 143z" />
    <glyph glyph-name="n" unicode="n" horiz-adv-x="1026" 
d="M537 958q91 0 159.5 -21.5t109 -55.5t65.5 -83t33.5 -97t8.5 -105v-547q0 -28 -18.5 -46.5t-46.5 -18.5t-47 18.5t-19 46.5v520q0 65 -10.5 111.5t-37 85t-75.5 57.5t-122 19q-273 0 -273 -287v-506q0 -28 -18.5 -46.5t-46.5 -18.5t-47 18.5t-19 46.5v832q0 28 19 46.5
t47 18.5t46.5 -18.5t18.5 -46.5v-66q31 62 104 102.5t169 40.5z" />
    <glyph glyph-name="o" unicode="o" horiz-adv-x="1003" 
d="M502 958q205 0 317.5 -122.5t112.5 -368.5t-112.5 -370t-317.5 -124q-203 0 -316.5 124t-113.5 370t113 368.5t317 122.5zM502 92q297 0 297 375q0 373 -297 373t-297 -373q0 -375 297 -375z" />
    <glyph glyph-name="p" unicode="p" horiz-adv-x="1042" 
d="M199 946q27 0 46 -19t19 -46v-66q32 58 107.5 100.5t171.5 42.5q205 0 316.5 -122.5t111.5 -368.5q0 -247 -112 -370.5t-316 -123.5q-95 0 -169 42.5t-110 101.5v-463q0 -26 -19.5 -46t-45.5 -20t-46 20t-20 46v1227q0 27 19.5 46t46.5 19zM260 467q0 -189 77.5 -282
t205.5 -93q144 0 219.5 93t75.5 282q0 188 -77.5 280.5t-221.5 92.5q-123 0 -201 -92t-78 -281z" />
    <glyph glyph-name="q" unicode="q" horiz-adv-x="1003" 
d="M762 272v283q0 141 -73 213t-197 72q-289 0 -289 -375q0 -187 74 -280t215 -93q54 0 101.5 18.5t77 45t51.5 53t31 45.5zM483 -27q-411 0 -411 492q0 247 109 370t311 123q181 0 291 -103.5t110 -299.5v-901q0 -28 -19 -47t-47 -19t-46.5 19t-18.5 47v452
q-39 -55 -113 -94t-166 -39z" />
    <glyph glyph-name="r" unicode="r" horiz-adv-x="632" 
d="M264 881v-90q32 73 107 118t178 45q26 0 44.5 -18.5t18.5 -44.5t-18.5 -45t-44.5 -19q-137 0 -211 -87t-74 -232v-459q0 -28 -18.5 -46.5t-46.5 -18.5t-47 18.5t-19 46.5v832q0 28 19 46.5t47 18.5t46.5 -18.5t18.5 -46.5z" />
    <glyph glyph-name="s" unicode="s" horiz-adv-x="868" 
d="M424 831q-79 0 -130.5 -28.5t-51.5 -93.5q0 -38 23 -68t61 -49t86.5 -38t98.5 -34.5t98.5 -40t86.5 -53t61 -75t23 -105.5q0 -90 -47 -152.5t-124 -90.5t-177 -28q-116 0 -210 45t-140 103q-14 20 -14 39q0 25 17 42t42 17t45 -20q101 -101 260 -101q96 0 156.5 35.5
t60.5 110.5q0 38 -23 67t-61 47t-86.5 36.5t-98.5 34t-98.5 40t-86.5 54t-61 77t-23 107.5q0 122 87.5 184.5t225.5 62.5q213 0 311 -131q15 -20 15 -39q0 -25 -17.5 -42t-42.5 -17t-43 18q-45 43 -96.5 64.5t-126.5 21.5z" />
    <glyph glyph-name="t" unicode="t" horiz-adv-x="571" 
d="M184 930v215q0 26 20 45.5t46 19.5q27 0 46 -19t19 -46v-215h134q26 0 43.5 -18t17.5 -44t-17.5 -43.5t-43.5 -17.5h-134v-565q0 -65 32.5 -100.5t86.5 -35.5q27 0 45.5 -17.5t18.5 -43.5t-18.5 -43.5t-45.5 -17.5q-119 0 -184.5 71t-65.5 187v565h-80q-26 0 -43.5 17.5
t-17.5 43.5t17.5 44t43.5 18h80z" />
    <glyph glyph-name="u" unicode="u" horiz-adv-x="987" 
d="M178 946q27 0 46.5 -19t19.5 -46v-535q0 -54 10.5 -95.5t36.5 -77.5t77 -55.5t126 -19.5t126 19.5t76.5 55.5t36 77t10.5 96v535q0 27 20 46t48 19q26 0 44.5 -18.5t18.5 -46.5v-535q0 -63 -9 -114t-34 -101t-66 -83.5t-110 -54t-161 -20.5t-160.5 20.5t-110 54t-67 83.5
t-34.5 101t-9 114v535q0 28 18.5 46.5t46.5 18.5z" />
    <glyph glyph-name="v" unicode="v" horiz-adv-x="897" 
d="M449 -16q-44 0 -62 41l-348 827q-6 18 -6 29q0 28 18.5 46.5t46.5 18.5q45 0 62 -43l289 -706l288 706q17 43 62 43q28 0 46.5 -18.5t18.5 -46.5q0 -11 -6 -29l-348 -827q-18 -41 -61 -41z" />
    <glyph glyph-name="w" unicode="w" horiz-adv-x="1310" 
d="M844 31l-189 649l-188 -649q-6 -21 -24 -34t-40 -13q-45 0 -61 43l-301 825q-6 15 -6 29q0 28 18.5 46.5t46.5 18.5q46 0 62 -43l237 -678l195 678q5 17 21 30t40 13t40.5 -13t21.5 -30l194 -678l238 678q16 43 61 43q28 0 47 -18.5t19 -46.5q0 -14 -6 -29l-301 -825
q-16 -43 -62 -43q-22 0 -39.5 13t-23.5 34z" />
    <glyph glyph-name="x" unicode="x" horiz-adv-x="843" 
d="M678 10l-256 363l-256 -363q-17 -26 -53 -26q-28 0 -47 18.5t-19 46.5q0 24 12 39l281 387l-272 367q-13 22 -13 39q0 28 19 46.5t47 18.5q33 0 53 -26l248 -340l248 340q20 26 53 26q28 0 46.5 -18.5t18.5 -46.5q0 -19 -12 -39l-272 -367l280 -387q13 -16 13 -39
q0 -28 -19 -46.5t-47 -18.5q-36 0 -53 26z" />
    <glyph glyph-name="y" unicode="y" horiz-adv-x="897" 
d="M72 -289q52 0 92.5 16.5t66.5 35.5t55.5 71t44 84t47.5 114q1 2 1.5 3.5t1.5 3.5l-342 813q-6 18 -6 29q0 28 18.5 46.5t46.5 18.5q45 0 62 -43l289 -706l288 706q17 43 62 43q28 0 46.5 -18.5t18.5 -46.5q0 -11 -6 -29l-403 -961q-65 -157 -153 -230t-230 -73
q-26 0 -44 18t-18 44t18 43.5t44 17.5z" />
    <glyph glyph-name="z" unicode="z" horiz-adv-x="829" 
d="M78 868q0 26 17.5 44t43.5 18h561q26 0 44 -18t18 -44q0 -22 -14 -41l-510 -700h473q26 0 44.5 -19t18.5 -45t-18.5 -44.5t-44.5 -18.5h-600q-26 0 -44 17.5t-18 43.5q0 23 14 41l517 705h-441q-26 0 -43.5 17.5t-17.5 43.5z" />
    <glyph glyph-name="braceleft" unicode="{" horiz-adv-x="692" 
d="M639 -242q0 -23 -17 -40t-40 -17q-75 0 -132 20.5t-90.5 55t-50 76.5t-16.5 88q0 54 12 213.5t12 216.5q0 59 -15 97.5t-45 57.5t-63.5 26t-80.5 7h-15q-20 0 -33.5 13.5t-13.5 33.5t13.5 33.5t33.5 13.5h15q47 0 80.5 7t63.5 26.5t45 59t15 98.5q0 66 -12 192.5
t-12 237.5q0 46 16.5 87t50 75t90.5 54.5t132 20.5q23 0 40 -17t17 -40t-17 -40t-40 -17q-152 0 -152 -150q0 -47 8 -188t8 -199q0 -112 -64 -183t-183 -71q119 0 183 -70.5t64 -183.5q0 -49 -8 -194t-8 -193q0 -149 152 -149q23 0 40 -17.5t17 -40.5z" />
    <glyph glyph-name="bar" unicode="|" horiz-adv-x="442" 
d="M289 1587v-1847q0 -28 -20 -48t-48 -20t-47.5 20t-19.5 48v1847q0 28 19.5 48t47.5 20t48 -20t20 -48z" />
    <glyph glyph-name="braceright" unicode="}" horiz-adv-x="692" 
d="M53 -242q0 23 17.5 40.5t40.5 17.5q151 0 151 149q0 48 -8 193t-8 194q0 113 64.5 183.5t183.5 70.5q-119 0 -183.5 71t-64.5 183q0 58 8 199t8 188q0 150 -151 150q-23 0 -40.5 17t-17.5 40t17.5 40t40.5 17q144 0 216 -69.5t72 -167.5q0 -111 -12 -237.5t-12 -192.5
q0 -59 15.5 -98.5t45.5 -59t63.5 -26.5t80.5 -7h14q20 0 33.5 -13.5t13.5 -33.5t-13.5 -33.5t-33.5 -13.5h-14q-47 0 -80.5 -7t-63.5 -26t-45.5 -57.5t-15.5 -97.5q0 -57 12 -216.5t12 -213.5q0 -46 -16.5 -88t-49.5 -76.5t-90 -55t-132 -20.5q-23 0 -40.5 17t-17.5 40z" />
    <glyph glyph-name="asciitilde" unicode="~" horiz-adv-x="976" 
d="M674 600q36 0 62 15t35 29t22 40q17 33 51 33q22 0 37.5 -15.5t15.5 -37.5q0 -13 -4 -25q-21 -63 -76 -105t-143 -42q-56 0 -110.5 21t-91.5 45.5t-83.5 45.5t-87.5 21q-36 0 -62 -15t-35 -29t-22 -40q-16 -33 -51 -33q-22 0 -37.5 15.5t-15.5 37.5q0 13 4 25
q21 63 76 105t143 42q53 0 107.5 -21t92 -45.5t85 -45.5t88.5 -21z" />
    <glyph glyph-name="nbspace" unicode="&#xa0;" horiz-adv-x="579" 
 />
    <glyph glyph-name="exclamdown" unicode="&#xa1;" horiz-adv-x="425" 
d="M213 -453q-75 0 -72 72l31 965q0 37 41 37t41 -37l31 -965q3 -72 -72 -72zM213 958q96 0 96 -96q0 -98 -96 -98t-96 98q0 96 96 96z" />
    <glyph glyph-name="cent" unicode="&#xa2;" horiz-adv-x="903" 
d="M72 467q0 229 95.5 350.5t272.5 136.5v117q0 22 16 37.5t38 15.5t37.5 -15.5t15.5 -37.5v-117q97 -11 163 -52t99 -85q14 -20 14 -39q0 -26 -17 -42.5t-42 -16.5q-28 0 -49 24q-17 19 -30 31t-40 30t-65.5 27t-85.5 9q-289 0 -289 -373q0 -375 289 -375q55 0 105.5 16.5
t74 31.5t57.5 40q21 15 39 15q25 0 42 -17.5t17 -42.5q0 -28 -26 -51q-117 -94 -256 -109v-141q0 -22 -15.5 -37.5t-37.5 -15.5t-38 15.5t-16 37.5v143q-177 15 -272.5 137.5t-95.5 352.5z" />
    <glyph glyph-name="sterling" unicode="&#xa3;" horiz-adv-x="1210" 
d="M1073 244q28 0 47 -19t19 -47q0 -15 -9 -33q-48 -94 -120 -135t-176 -41q-65 0 -189.5 48.5t-191.5 48.5q-32 0 -61.5 -5.5t-52.5 -15.5t-38.5 -18t-31.5 -18.5t-19 -12.5q-23 -14 -41 -14q-28 0 -47 18.5t-19 46.5q0 29 29 55q58 46 111 139.5t53 166.5q0 75 -45 170
h-98q-26 0 -44 17.5t-18 43.5t18 43.5t44 17.5h38q-86 161 -86 318q0 170 121.5 279.5t319.5 109.5q173 0 287.5 -71t166.5 -201q7 -17 7 -29q0 -28 -19 -47t-47 -19q-44 0 -63 47q-79 195 -332 195q-135 0 -222.5 -71.5t-87.5 -192.5q0 -135 105 -318h358q26 0 44 -17.5
t18 -43.5t-18 -43.5t-44 -17.5h-305q31 -66 31 -170q0 -71 -35 -138t-86 -114q46 26 107 26q66 0 134.5 -22t128.5 -44t107 -22q137 0 193 113q18 37 59 37z" />
    <glyph glyph-name="currency" unicode="&#xa4;" horiz-adv-x="956" 
d="M481 258q-127 0 -221 72l-94 -94q-21 -21 -45 -21q-26 0 -44 19t-18 45t21 47l92 96q-63 94 -63 217q0 117 65 221l-96 98q-19 22 -19 46q0 26 18 44.5t44 18.5q25 0 45 -20l94 -99q45 31 105 51.5t116 20.5q122 0 217 -68l93 95q17 20 45 20q26 0 44.5 -18.5t18.5 -44.5
t-22 -48l-93 -94q66 -97 66 -223q0 -117 -66 -219l93 -94q22 -26 22 -47q0 -26 -18.5 -45t-44.5 -19q-27 0 -45 21l-91 92q-92 -70 -219 -70zM481 383q105 0 172.5 74t67.5 182t-67.5 182t-172.5 74t-174 -74.5t-69 -181.5t69 -181.5t174 -74.5z" />
    <glyph glyph-name="yen" unicode="&#xa5;" 
d="M891 389q0 -23 -16 -39t-39 -16h-236v-281q0 -29 -20.5 -49t-49.5 -20t-49 20t-20 49v281h-236q-23 0 -39 16t-16 39t16 39t39 16h236v97h-236q-23 0 -39 16t-16 39t16 39t39 16h230l-406 637q-10 17 -10 37q0 29 20.5 49.5t49.5 20.5q39 0 59 -33l362 -582l363 582
q20 33 59 33q29 0 49.5 -20.5t20.5 -49.5q0 -20 -10 -37l-406 -637h230q23 0 39 -16t16 -39t-16 -39t-39 -16h-236v-97h236q23 0 39 -16t16 -39z" />
    <glyph glyph-name="brokenbar" unicode="&#xa6;" horiz-adv-x="442" 
d="M289 1587v-790q0 -28 -20 -48t-48 -20t-47.5 20t-19.5 48v790q0 28 19.5 48t47.5 20t48 -20t20 -48zM289 532v-792q0 -28 -20 -48t-48 -20t-47.5 20t-19.5 48v792q0 28 19.5 48t47.5 20t48 -20t20 -48z" />
    <glyph glyph-name="section" unicode="&#xa7;" horiz-adv-x="1032" 
d="M821 422q0 54 -28 98t-71.5 72.5t-103 54.5t-114.5 42.5t-116 38.5t-97 42q-82 -69 -82 -199q0 -54 28 -98t71.5 -72t103 -53.5t114.5 -42t116 -38.5t97 -42q82 69 82 197zM74 571q0 153 110 275q-80 96 -80 225q0 70 25 129.5t75 106.5t133.5 73.5t192.5 26.5
q130 0 233.5 -50.5t170.5 -133.5q14 -17 14 -39q0 -26 -18.5 -45t-44.5 -19t-49 23q-139 139 -306 139q-148 0 -219 -59.5t-71 -151.5q0 -56 24.5 -99.5t66 -71.5t95 -50t113 -41t119 -39.5t113 -50t95 -67t66 -96.5t24.5 -134q0 -150 -110 -272q80 -96 80 -226
q0 -70 -25 -129.5t-75 -106.5t-133.5 -73.5t-192.5 -26.5q-130 0 -233.5 51t-170.5 134q-14 17 -14 39q0 26 18.5 44.5t44.5 18.5q28 0 50 -22q140 -140 305 -140q148 0 219.5 60t71.5 151q0 56 -24.5 99.5t-66 71t-95.5 50t-113.5 41t-118.5 39t-113 49.5t-95.5 66.5
t-66 96.5t-24.5 134z" />
    <glyph glyph-name="dieresis" unicode="&#xa8;" horiz-adv-x="649" 
d="M164 1094q-74 0 -74 75q0 78 74 78t74 -78q0 -75 -74 -75zM485 1094q-73 0 -73 75q0 78 73 78q74 0 74 -78q0 -75 -74 -75z" />
    <glyph glyph-name="copyright" unicode="&#xa9;" horiz-adv-x="1640" 
d="M813 317q-159 0 -240 90t-81 283q0 194 81 284.5t240 90.5q90 0 159.5 -37.5t94.5 -83.5q6 -12 6 -24q0 -22 -14.5 -37t-36.5 -15t-41 19q-38 38 -77 57t-91 19q-106 0 -157.5 -62.5t-51.5 -210.5q0 -139 52.5 -204.5t156.5 -65.5q59 0 95.5 12.5t72.5 48.5q21 21 41 21
q22 0 36.5 -14.5t14.5 -36.5q0 -18 -12 -33q-81 -101 -248 -101zM819 1407q347 0 530 -180t183 -539q0 -358 -183 -537.5t-530 -179.5q-342 0 -526 180t-184 537q0 358 184 538.5t526 180.5zM819 78q297 0 448.5 149.5t151.5 460.5q0 612 -600 612q-296 0 -444 -150
t-148 -462t148 -461t444 -149z" />
    <glyph glyph-name="ordfeminine" unicode="&#xaa;" horiz-adv-x="700" 
d="M657 590q0 -15 -12 -27t-27 -12h-536q-15 0 -27 12t-12 27t12 27t27 12h536q15 0 27 -12t12 -27zM358 1327q-82 0 -145 -67q-15 -15 -33 -15q-17 0 -29 12t-12 29q0 12 11 29q9 12 22 24.5t37.5 29.5t63.5 27.5t85 10.5q133 0 198 -59.5t65 -161.5v-393q0 -19 -13.5 -32
t-32.5 -13t-32 13t-13 32v38q-29 -44 -79 -68t-109 -24q-116 0 -182 53.5t-66 147.5q0 98 68.5 148.5t185.5 50.5h182v49q0 66 -43.5 102.5t-128.5 36.5zM342 815q81 0 134.5 44.5t53.5 127.5v76h-182q-75 0 -119.5 -29.5t-44.5 -93.5q0 -65 44.5 -95t113.5 -30z" />
    <glyph glyph-name="guillemotleft" unicode="&#xab;" horiz-adv-x="1069" 
d="M160 434q0 20 14 37l334 393q16 19 37 19q20 0 34.5 -14.5t14.5 -34.5q0 -18 -14 -35l-314 -365l314 -364q14 -17 14 -35q0 -20 -14.5 -34.5t-34.5 -14.5q-22 0 -37 18l-334 393q-14 17 -14 37zM475 434q0 20 14 37l334 393q16 19 37 19q20 0 34.5 -14.5t14.5 -34.5
q0 -18 -14 -35l-313 -365l313 -364q14 -17 14 -35q0 -20 -14.5 -34.5t-34.5 -14.5q-22 0 -37 18l-334 393q-14 17 -14 37z" />
    <glyph glyph-name="logicalnot" unicode="&#xac;" horiz-adv-x="1153" 
d="M1079 571v-526q0 -26 -17.5 -43.5t-43.5 -17.5t-44 17.5t-18 43.5v477h-827q-23 0 -39 16.5t-16 39.5t16 39t39 16h889q26 0 43.5 -18t17.5 -44z" />
    <glyph glyph-name="registered" unicode="&#xae;" horiz-adv-x="772" 
d="M383 1407q148 0 226.5 -77t78.5 -234t-79 -235.5t-226 -78.5q-143 0 -222 79t-79 235t79 233.5t222 77.5zM385 831q122 0 184 64t62 201t-61.5 199.5t-184.5 62.5q-122 0 -184 -63t-62 -199q0 -265 246 -265zM367 1061h-48v-100q0 -11 -8 -19t-18 -8q-11 0 -19 8t-8 19
v268q0 10 8 18t19 8h113q46 0 74 -28t28 -68q0 -39 -25 -68.5t-59 -29.5l68 -84q6 -8 6 -16q0 -11 -7.5 -19t-17.5 -8q-13 0 -22 12zM319 1106h87q24 0 36.5 14.5t12.5 38.5q0 22 -12.5 36.5t-36.5 14.5h-87v-104z" />
    <glyph glyph-name="macron" unicode="&#xaf;" horiz-adv-x="782" 
d="M633 1151q0 -22 -14.5 -36.5t-36.5 -14.5h-381q-22 0 -36.5 14.5t-14.5 36.5t14.5 36.5t36.5 14.5h381q22 0 36.5 -14.5t14.5 -36.5z" />
    <glyph glyph-name="degree" unicode="&#xb0;" horiz-adv-x="733" 
d="M645 1126q0 -116 -81.5 -197t-198.5 -81q-114 0 -196.5 81.5t-82.5 196.5t82.5 198t196.5 83q117 0 198.5 -82.5t81.5 -198.5zM567 1126q0 84 -57.5 143.5t-144.5 59.5q-84 0 -142.5 -59.5t-58.5 -143.5t58 -142t143 -58q87 0 144.5 58t57.5 142z" />
    <glyph glyph-name="plusminus" unicode="&#xb1;" horiz-adv-x="929" 
d="M930 629q0 -23 -16.5 -39.5t-39.5 -16.5h-350v-350q0 -25 -17 -42t-42 -17t-42 17t-17 42v350h-351q-23 0 -39 16.5t-16 39.5t16 39t39 16h351v348q0 25 17 42.5t42 17.5t42 -17.5t17 -42.5v-348h350q23 0 39.5 -16t16.5 -39zM930 55q0 -23 -16.5 -39t-39.5 -16h-819
q-23 0 -39 16t-16 39t16 39.5t39 16.5h819q23 0 39.5 -16.5t16.5 -39.5z" />
    <glyph glyph-name="twosuperior" unicode="&#xb2;" horiz-adv-x="544" 
d="M72 1386q22 52 74 80.5t124 28.5q102 0 162 -48t60 -134q0 -55 -34 -100.5t-82.5 -76t-97 -56.5t-82.5 -54t-34 -57h276q20 0 34.5 -14.5t14.5 -34.5t-14.5 -35t-34.5 -15h-342q-20 0 -34.5 15t-14.5 35q0 66 35 117t84.5 81.5t99 57.5t84.5 61t35 76q0 37 -29.5 61.5
t-85.5 24.5q-45 0 -69.5 -14.5t-46.5 -45.5q-16 -20 -39 -20q-20 0 -33.5 13.5t-13.5 33.5q0 10 4 20z" />
    <glyph glyph-name="threesuperior" unicode="&#xb3;" horiz-adv-x="530" 
d="M434 1395l-139 -144q95 0 139.5 -55.5t44.5 -132.5q0 -95 -59 -150t-178 -55q-73 0 -126.5 34t-80.5 85q-8 16 -8 29q0 20 13.5 33.5t33.5 13.5q26 0 43 -27q42 -70 125 -70q129 0 129 107q0 98 -123 98h-45q-20 0 -34.5 14.5t-14.5 34.5q0 18 12 33l127 137h-191
q-22 0 -36.5 15t-14.5 37t14.5 36.5t36.5 14.5h295q22 0 37 -14.5t15 -36.5q0 -25 -15 -37z" />
    <glyph glyph-name="acute" unicode="&#xb4;" horiz-adv-x="757" 
d="M248 1065q-33 26 -6 61l182 222q13 17 32.5 18.5t45.5 -18.5q43 -41 6 -78l-199 -201q-29 -29 -61 -4z" />
    <glyph glyph-name="mu" unicode="&#xb5;" horiz-adv-x="987" 
d="M244 881v-535q0 -54 10.5 -95.5t36.5 -77.5t77 -55.5t126 -19.5t126 19.5t76.5 55.5t36 77t10.5 96v535q0 27 20 46t48 19q26 0 44.5 -18.5t18.5 -46.5v-535q0 -63 -9 -114t-34 -101t-66 -83.5t-110 -54t-161 -20.5q-93 0 -150 25t-100 70v-422q0 -28 -19 -47t-47 -19
t-46.5 19t-18.5 47v1235q0 28 18.5 46.5t46.5 18.5q27 0 46.5 -19t19.5 -46z" />
    <glyph glyph-name="paragraph" unicode="&#xb6;" horiz-adv-x="1050" 
d="M952 1317q0 -26 -17.5 -44t-43.5 -18h-55v-643q0 -339 -147 -509.5t-429 -170.5q-91 0 -133 19q-41 16 -41 59q0 26 19 45t45 19q10 0 22 -4q54 -15 88 -15q115 0 171 93.5t56 252.5v312h-67q-136 0 -233 98t-97 236q0 137 97 234t233 97h471q26 0 43.5 -17.5t17.5 -43.5
zM705 1255h-87v-823q0 -219 -133 -352q119 64 169.5 192.5t50.5 339.5v643z" />
    <glyph glyph-name="periodcentered" unicode="&#xb7;" horiz-adv-x="335" 
d="M166 518q-96 0 -96 96q0 99 96 99t96 -99q0 -96 -96 -96z" />
    <glyph glyph-name="cedilla" unicode="&#xb8;" horiz-adv-x="645" 
d="M500 -285q0 -174 -199 -174q-76 0 -131 37q-16 11 -16 31q0 15 10.5 27t25.5 12q13 0 25 -6q42 -21 86 -21q58 0 83.5 19t25.5 75q0 95 -91 95q-19 0 -46 -4.5t-37 -4.5q-16 0 -27 11t-10 34l6 154h71l-10 -121q38 4 56 4q178 0 178 -168z" />
    <glyph glyph-name="onesuperior" unicode="&#xb9;" horiz-adv-x="401" 
d="M203 1343l-62 -43q-18 -14 -37 -14q-20 0 -35.5 15.5t-15.5 35.5q0 26 25 43l147 99q13 10 31 10q22 0 37.5 -15.5t15.5 -37.5v-518q0 -22 -15.5 -38t-37.5 -16t-37.5 16t-15.5 38v425z" />
    <glyph glyph-name="ordmasculine" unicode="&#xba;" horiz-adv-x="712" 
d="M356 819q201 0 201 254t-201 254q-200 0 -200 -254t200 -254zM674 590q0 -15 -12 -27t-27 -12h-557q-15 0 -27 12t-12 27t12 27t27 12h557q15 0 27 -12t12 -27zM356 1407q142 0 217.5 -84t75.5 -250t-75.5 -250t-217.5 -84t-217.5 84t-75.5 250t75.5 250t217.5 84z" />
    <glyph glyph-name="guillemotright" unicode="&#xbb;" horiz-adv-x="1069" 
d="M909 434q0 -20 -14 -37l-334 -393q-15 -18 -37 -18q-20 0 -34.5 14.5t-14.5 34.5q0 18 14 35l314 364l-314 365q-14 17 -14 35q0 20 14.5 34.5t34.5 14.5q21 0 37 -19l334 -393q14 -18 14 -37zM594 434q0 -20 -14 -37l-334 -393q-15 -18 -37 -18q-20 0 -34.5 14.5
t-14.5 34.5q0 18 14 35l313 364l-313 365q-14 17 -14 35q0 20 14.5 34.5t34.5 14.5q21 0 37 -19l334 -393q14 -18 14 -37z" />
    <glyph glyph-name="onequarter" unicode="&#xbc;" horiz-adv-x="1007" 
d="M207 1255l-62 -43q-17 -14 -36 -14q-20 0 -36 15.5t-16 35.5q0 26 25 43l147 99q13 10 31 10q22 0 37.5 -15.5t15.5 -37.5v-519q0 -22 -15.5 -37.5t-37.5 -15.5t-37.5 15.5t-15.5 37.5v426zM868 219h33q20 0 34.5 -14.5t14.5 -34.5t-14.5 -34.5t-34.5 -14.5h-33v-84
q0 -22 -15.5 -37.5t-37.5 -15.5t-37.5 15.5t-15.5 37.5v84h-227q-20 0 -35 14.5t-15 34.5q0 17 13 33l274 383q18 22 43 22q22 0 37.5 -15.5t15.5 -37.5v-336zM625 219h137v197zM182 59l504 1303q9 33 49 33q23 0 39.5 -16.5t16.5 -39.5q0 -15 -5 -20l-501 -1299
q-2 -11 -15.5 -23.5t-36.5 -12.5t-39 16t-16 39q0 12 4 20z" />
    <glyph glyph-name="onehalf" unicode="&#xbd;" horiz-adv-x="1079" 
d="M207 1255l-62 -43q-17 -14 -36 -14q-20 0 -36 15.5t-16 35.5q0 26 25 43l147 99q13 10 31 10q22 0 37.5 -15.5t15.5 -37.5v-519q0 -22 -15.5 -37.5t-37.5 -15.5t-37.5 15.5t-15.5 37.5v426zM606 516q22 52 74 80.5t125 28.5q101 0 161 -48t60 -135q0 -55 -34 -100.5
t-82.5 -76t-97 -56.5t-82.5 -54t-34 -57h277q20 0 34.5 -14.5t14.5 -34.5t-14.5 -34.5t-34.5 -14.5h-342q-20 0 -34.5 14.5t-14.5 34.5q0 66 35 117t84.5 81.5t99 57.5t84.5 61t35 76q0 37 -29.5 61.5t-85.5 24.5q-46 0 -71 -14.5t-46 -44.5q-16 -20 -39 -20
q-20 0 -33.5 13.5t-13.5 33.5q0 10 4 20zM182 59l504 1303q14 33 49 33q23 0 39.5 -16.5t16.5 -39.5q0 -15 -5 -20l-501 -1299q-14 -36 -52 -36q-23 0 -39 16t-16 39q0 12 4 20z" />
    <glyph glyph-name="threequarters" unicode="&#xbe;" horiz-adv-x="1185" 
d="M983 219h33q20 0 34.5 -14.5t14.5 -34.5t-14.5 -34.5t-34.5 -14.5h-33v-84q0 -22 -15.5 -37.5t-37.5 -15.5t-37.5 15.5t-15.5 37.5v84h-228q-20 0 -34.5 14.5t-14.5 34.5q0 18 12 33l275 383q18 22 43 22q22 0 37.5 -15.5t15.5 -37.5v-336zM739 219h138v197zM455 1307
l-140 -144q95 0 140 -55.5t45 -132.5q0 -95 -59.5 -150t-178.5 -55q-73 0 -126.5 34t-80.5 85q-8 16 -8 29q0 20 13.5 33.5t33.5 13.5q26 0 43 -27q42 -70 125 -70q129 0 129 107q0 98 -123 98h-45q-20 0 -34.5 14.5t-14.5 34.5q0 18 12 33l127 137h-190q-22 0 -36.5 14.5
t-14.5 36.5t14.5 37t36.5 15h295q22 0 36.5 -15t14.5 -37q0 -25 -14 -36zM297 59l504 1303q9 33 49 33q23 0 39 -16.5t16 -39.5q0 -16 -4 -20l-502 -1299q-2 -11 -15 -23.5t-36 -12.5t-39 16t-16 39q0 12 4 20z" />
    <glyph glyph-name="questiondown" unicode="&#xbf;" horiz-adv-x="944" 
d="M565 618q66 -66 66 -174q0 -54 -23.5 -98.5t-61.5 -77t-83.5 -62t-91 -61t-83.5 -66.5t-61.5 -86t-23.5 -112q0 -112 72 -168.5t202 -56.5q124 0 193 61.5t69 184.5q0 28 20 47.5t48 19.5t47.5 -19.5t19.5 -47.5q0 -171 -104.5 -269t-292.5 -98q-191 0 -298 90.5
t-107 255.5q0 73 23.5 135t60.5 105t82 79.5t90 65.5t82 55.5t60.5 57.5t23.5 65q0 18 -5 34t-9 23t-15 25q-16 24 -16 45q0 30 21 49t46 19q28 0 49 -21zM524 958q97 0 97 -96q0 -98 -97 -98q-96 0 -96 98q0 96 96 96z" />
    <glyph glyph-name="Agrave" unicode="&#xc0;" horiz-adv-x="1255" 
d="M870 535l-243 626l-242 -626h485zM913 408h-571l-149 -375q-18 -49 -68 -49q-29 0 -49.5 20.5t-20.5 48.5q0 19 6 31l500 1264q19 47 66 47q48 0 67 -47l500 -1264q6 -15 6 -31q0 -29 -20 -49t-52 -20q-50 0 -67 47zM733 1483q-32 -25 -61 4l-199 201q-37 37 6 77
q26 20 45.5 18.5t32.5 -18.5l182 -221q27 -35 -6 -61z" />
    <glyph glyph-name="Aacute" unicode="&#xc1;" horiz-adv-x="1255" 
d="M870 535l-243 626l-242 -626h485zM913 408h-571l-149 -375q-18 -49 -68 -49q-29 0 -49.5 20.5t-20.5 48.5q0 19 6 31l500 1264q19 47 66 47q48 0 67 -47l500 -1264q6 -15 6 -31q0 -29 -20 -49t-52 -20q-50 0 -67 47zM520 1483q-33 26 -6 61l182 221q13 17 32.5 18.5
t45.5 -18.5q43 -40 6 -77l-198 -201q-30 -30 -62 -4z" />
    <glyph glyph-name="Acircumflex" unicode="&#xc2;" horiz-adv-x="1255" 
d="M870 535l-243 626l-242 -626h485zM913 408h-571l-149 -375q-18 -49 -68 -49q-29 0 -49.5 20.5t-20.5 48.5q0 19 6 31l500 1264q19 47 66 47q48 0 67 -47l500 -1264q6 -15 6 -31q0 -29 -20 -49t-52 -20q-50 0 -67 47zM793 1485l-166 139l-166 -139q-12 -12 -33 -12
q-20 0 -34.5 14.5t-14.5 34.5q0 24 18 39l197 161q17 13 33 13q15 0 32 -13l197 -161q18 -15 18 -39q0 -20 -14.5 -34.5t-34.5 -14.5t-32 12z" />
    <glyph glyph-name="Atilde" unicode="&#xc3;" horiz-adv-x="1255" 
d="M870 535l-243 626l-242 -626h485zM913 408h-571l-149 -375q-18 -49 -68 -49q-29 0 -49.5 20.5t-20.5 48.5q0 19 6 31l500 1264q19 47 66 47q48 0 67 -47l500 -1264q6 -15 6 -31q0 -29 -20 -49t-52 -20q-50 0 -67 47zM508 1677q52 0 127 -40t115 -40q31 0 51 13.5t43 44.5
q16 22 41 22q20 0 34.5 -14.5t14.5 -34.5q0 -12 -6 -24q-23 -45 -68 -76t-110 -31q-53 0 -127 40t-115 40q-31 0 -51 -13t-43 -44q-17 -23 -41 -23q-20 0 -34.5 14.5t-14.5 34.5q0 13 6 25q23 45 68 75.5t110 30.5z" />
    <glyph glyph-name="Adieresis" unicode="&#xc4;" horiz-adv-x="1255" 
d="M870 535l-243 626l-242 -626h485zM913 408h-571l-149 -375q-18 -49 -68 -49q-29 0 -49.5 20.5t-20.5 48.5q0 19 6 31l500 1264q19 47 66 47q48 0 67 -47l500 -1264q6 -15 6 -31q0 -29 -20 -49t-52 -20q-50 0 -67 47zM467 1518q-74 0 -74 75q0 78 74 78t74 -78
q0 -75 -74 -75zM788 1518q-73 0 -73 75q0 78 73 78q74 0 74 -78q0 -75 -74 -75z" />
    <glyph glyph-name="Aring" unicode="&#xc5;" horiz-adv-x="1255" 
d="M870 535l-243 626l-242 -626h485zM913 408h-571l-149 -375q-18 -49 -68 -49q-29 0 -49.5 20.5t-20.5 48.5q0 19 6 31l500 1264q19 47 66 47q48 0 67 -47l500 -1264q6 -15 6 -31q0 -29 -20 -49t-52 -20q-50 0 -67 47zM627 1440q-107 0 -160 52t-53 148t53.5 148.5
t159.5 52.5t159.5 -52.5t53.5 -148.5t-53 -148t-160 -52zM627 1763q-69 0 -98 -30t-29 -93q0 -62 29 -92t98 -30t98 30t29 92q0 63 -29 93t-98 30z" />
    <glyph glyph-name="AE" unicode="&#xc6;" horiz-adv-x="1722" 
d="M1575 0h-680q-29 0 -49.5 20.5t-20.5 49.5v338h-432l-243 -392q-18 -32 -60 -32q-29 0 -50.5 21t-21.5 50q0 17 15 41l803 1250q20 32 59 32h657q26 0 45 -18.5t19 -44.5t-19 -45t-45 -19h-587v-493h450q26 0 45 -19t19 -45t-19 -44.5t-45 -18.5h-450v-504h610
q26 0 44.5 -19t18.5 -45t-18.5 -44.5t-44.5 -18.5zM467 535h358v573z" />
    <glyph glyph-name="Ccedilla" unicode="&#xc7;" horiz-adv-x="1292" 
d="M903 -285q0 -174 -198 -174q-77 0 -132 37q-16 11 -16 31q0 15 11 27t26 12q12 0 24 -6q42 -21 87 -21q58 0 83 19t25 75q0 51 -22.5 73t-67.5 22q-19 0 -46.5 -4.5t-37.5 -4.5q-16 0 -27 11t-10 34l4 134q-516 62 -516 708q0 357 167.5 538t471.5 181q145 0 266.5 -58
t194.5 -159q14 -20 14 -43q0 -28 -18.5 -47t-46.5 -19q-32 0 -54 27q-55 76 -150 124t-206 48q-240 0 -368 -148t-128 -444q0 -310 125.5 -450t370.5 -140q107 0 202.5 42.5t153.5 125.5q19 27 54 27q28 0 46.5 -19t18.5 -47q0 -21 -12 -39q-67 -98 -194.5 -157.5
t-268.5 -59.5l-51 2l-8 -94q37 4 55 4q178 0 178 -168z" />
    <glyph glyph-name="Egrave" unicode="&#xc8;" 
d="M913 0h-680q-29 0 -49 20.5t-20 49.5v1239q0 29 20 49t49 20h658q26 0 44.5 -18.5t18.5 -44.5t-18.5 -45t-44.5 -19h-588v-493h451q26 0 44.5 -19t18.5 -45t-18.5 -44.5t-44.5 -18.5h-451v-504h610q26 0 45 -19t19 -45t-19 -44.5t-45 -18.5zM690 1483q-32 -25 -61 4
l-199 201q-37 37 6 77q26 20 45.5 18.5t32.5 -18.5l182 -221q27 -35 -6 -61z" />
    <glyph glyph-name="Eacute" unicode="&#xc9;" 
d="M913 0h-680q-29 0 -49 20.5t-20 49.5v1239q0 29 20 49t49 20h658q26 0 44.5 -18.5t18.5 -44.5t-18.5 -45t-44.5 -19h-588v-493h451q26 0 44.5 -19t18.5 -45t-18.5 -44.5t-44.5 -18.5h-451v-504h610q26 0 45 -19t19 -45t-19 -44.5t-45 -18.5zM465 1483q-33 26 -6 61
l182 221q13 17 32.5 18.5t45.5 -18.5q43 -40 6 -77l-199 -201q-29 -29 -61 -4z" />
    <glyph glyph-name="Ecircumflex" unicode="&#xca;" 
d="M913 0h-680q-29 0 -49 20.5t-20 49.5v1239q0 29 20 49t49 20h658q26 0 44.5 -18.5t18.5 -44.5t-18.5 -45t-44.5 -19h-588v-493h451q26 0 44.5 -19t18.5 -45t-18.5 -44.5t-44.5 -18.5h-451v-504h610q26 0 45 -19t19 -45t-19 -44.5t-45 -18.5zM752 1485l-166 139l-166 -139
q-12 -12 -33 -12q-20 0 -34.5 14.5t-14.5 34.5q0 24 18 39l197 161q17 13 33 13q15 0 32 -13l197 -161q19 -16 19 -39q0 -20 -15 -34.5t-35 -14.5t-32 12z" />
    <glyph glyph-name="Edieresis" unicode="&#xcb;" 
d="M913 0h-680q-29 0 -49 20.5t-20 49.5v1239q0 29 20 49t49 20h658q26 0 44.5 -18.5t18.5 -44.5t-18.5 -45t-44.5 -19h-588v-493h451q26 0 44.5 -19t18.5 -45t-18.5 -44.5t-44.5 -18.5h-451v-504h610q26 0 45 -19t19 -45t-19 -44.5t-45 -18.5zM420 1518q-74 0 -74 75
q0 78 74 78t74 -78q0 -75 -74 -75zM741 1518q-73 0 -73 75q0 78 73 78q74 0 74 -78q0 -75 -74 -75z" />
    <glyph glyph-name="Igrave" unicode="&#xcc;" horiz-adv-x="466" 
d="M303 1325v-1272q0 -28 -20.5 -48.5t-49.5 -20.5t-49 20.5t-20 48.5v1272q0 28 20 49t49 21t49.5 -21t20.5 -49zM340 1483q-32 -25 -61 4l-199 201q-37 37 6 77q26 20 45.5 18.5t32.5 -18.5l182 -221q27 -35 -6 -61z" />
    <glyph glyph-name="Iacute" unicode="&#xcd;" horiz-adv-x="466" 
d="M303 1325v-1272q0 -28 -20.5 -48.5t-49.5 -20.5t-49 20.5t-20 48.5v1272q0 28 20 49t49 21t49.5 -21t20.5 -49zM127 1483q-33 26 -6 61l182 221q13 17 32.5 18.5t45.5 -18.5q43 -40 6 -77l-199 -201q-29 -29 -61 -4z" />
    <glyph glyph-name="Icircumflex" unicode="&#xce;" horiz-adv-x="466" 
d="M303 1325v-1272q0 -28 -20.5 -48.5t-49.5 -20.5t-49 20.5t-20 48.5v1272q0 28 20 49t49 21t49.5 -21t20.5 -49zM401 1485l-165 139l-166 -139q-12 -12 -33 -12q-20 0 -34.5 14.5t-14.5 34.5q0 24 18 39l197 161q17 13 33 13q15 0 32 -13l197 -161q18 -15 18 -39
q0 -20 -14.5 -34.5t-34.5 -14.5q-21 0 -33 12z" />
    <glyph glyph-name="Idieresis" unicode="&#xcf;" horiz-adv-x="466" 
d="M303 1325v-1272q0 -28 -20.5 -48.5t-49.5 -20.5t-49 20.5t-20 48.5v1272q0 28 20 49t49 21t49.5 -21t20.5 -49zM74 1518q-74 0 -74 75q0 78 74 78q73 0 73 -78q0 -75 -73 -75zM395 1518q-73 0 -73 75q0 78 73 78q74 0 74 -78q0 -75 -74 -75z" />
    <glyph glyph-name="Eth" unicode="&#xd0;" horiz-adv-x="1247" 
d="M233 1378h289q151 0 265.5 -37t198.5 -117.5t127.5 -215t43.5 -320.5t-43.5 -320t-127.5 -214t-198 -117t-266 -37h-289q-29 0 -49 20.5t-20 49.5v579h-64q-26 0 -44.5 19t-18.5 45t18.5 44.5t44.5 18.5h64v533q0 29 20 49t49 20zM764 713q0 -26 -20 -45t-46 -19h-395
v-518h219q119 0 207 27.5t154.5 90.5t100.5 172.5t34 266.5q0 155 -34 265t-100.5 173.5t-154.5 92t-207 28.5h-219v-471h395q27 0 46.5 -18.5t19.5 -44.5z" />
    <glyph glyph-name="Ntilde" unicode="&#xd1;" horiz-adv-x="1269" 
d="M1059 1395q28 0 47.5 -20t19.5 -48v-1274q0 -29 -20 -49t-49 -20q-36 0 -58 28l-720 1088v-1049q0 -28 -20 -47.5t-48 -19.5t-48 19.5t-20 47.5v1276q0 28 20 48t48 20q34 0 55 -29l725 -1090v1051q0 28 20 48t48 20zM532 1677q52 0 127 -40t115 -40q31 0 51 13.5
t43 44.5q16 22 41 22q20 0 34.5 -14.5t14.5 -34.5q0 -12 -6 -24q-23 -45 -68 -76t-110 -31q-53 0 -127 40t-115 40q-31 0 -51 -13t-43 -44q-17 -23 -41 -23q-20 0 -34.5 14.5t-14.5 34.5q0 13 6 25q23 45 68 75.5t110 30.5z" />
    <glyph glyph-name="Ograve" unicode="&#xd2;" horiz-adv-x="1458" 
d="M729 -29q304 0 471.5 181.5t167.5 535.5q0 357 -167.5 538t-471.5 181t-471.5 -181t-167.5 -538q0 -354 167.5 -535.5t471.5 -181.5zM729 1280q239 0 367.5 -148t128.5 -444q0 -294 -128.5 -442t-367.5 -148t-367.5 148t-128.5 442q0 296 128.5 444t367.5 148zM860 1483
q-32 -25 -61 4l-199 201q-37 37 6 77q26 20 45.5 18.5t32.5 -18.5l182 -221q27 -35 -6 -61z" />
    <glyph glyph-name="Oacute" unicode="&#xd3;" horiz-adv-x="1458" 
d="M729 -29q304 0 471.5 181.5t167.5 535.5q0 357 -167.5 538t-471.5 181t-471.5 -181t-167.5 -538q0 -354 167.5 -535.5t471.5 -181.5zM729 1280q239 0 367.5 -148t128.5 -444q0 -294 -128.5 -442t-367.5 -148t-367.5 148t-128.5 442q0 296 128.5 444t367.5 148zM616 1483
q-33 26 -6 61l183 221q32 40 77 0q43 -41 7 -77l-199 -201q-30 -30 -62 -4z" />
    <glyph glyph-name="Ocircumflex" unicode="&#xd4;" horiz-adv-x="1458" 
d="M729 -29q304 0 471.5 181.5t167.5 535.5q0 357 -167.5 538t-471.5 181t-471.5 -181t-167.5 -538q0 -354 167.5 -535.5t471.5 -181.5zM729 1280q239 0 367.5 -148t128.5 -444q0 -294 -128.5 -442t-367.5 -148t-367.5 148t-128.5 442q0 296 128.5 444t367.5 148zM901 1485
l-166 139l-166 -139q-12 -12 -32 -12t-35 14.5t-15 34.5q0 23 19 39l196 161q17 13 33 13t33 -13l197 -161q18 -15 18 -39q0 -20 -14.5 -34.5t-34.5 -14.5q-21 0 -33 12z" />
    <glyph glyph-name="Otilde" unicode="&#xd5;" horiz-adv-x="1458" 
d="M729 -29q304 0 471.5 181.5t167.5 535.5q0 357 -167.5 538t-471.5 181t-471.5 -181t-167.5 -538q0 -354 167.5 -535.5t471.5 -181.5zM729 1280q239 0 367.5 -148t128.5 -444q0 -294 -128.5 -442t-367.5 -148t-367.5 148t-128.5 442q0 296 128.5 444t367.5 148zM608 1677
q52 0 127 -40t115 -40q31 0 51 13.5t43 44.5q16 22 41 22q20 0 34.5 -14.5t14.5 -34.5q0 -12 -6 -24q-23 -45 -68 -76t-110 -31q-53 0 -127 40t-115 40q-31 0 -51 -13t-43 -44q-17 -23 -41 -23q-20 0 -34.5 14.5t-14.5 34.5q0 13 6 25q23 45 68 75.5t110 30.5z" />
    <glyph glyph-name="Odieresis" unicode="&#xd6;" horiz-adv-x="1460" 
d="M729 -29q304 0 471.5 181.5t167.5 535.5q0 357 -167.5 538t-471.5 181t-471.5 -181t-167.5 -538q0 -354 167.5 -535.5t471.5 -181.5zM729 1280q239 0 367.5 -148t128.5 -444q0 -294 -128.5 -442t-367.5 -148t-367.5 148t-128.5 442q0 296 128.5 444t367.5 148zM569 1518
q-73 0 -73 75q0 78 73 78q74 0 74 -78q0 -75 -74 -75zM891 1518q-74 0 -74 75q0 78 74 78t74 -78q0 -75 -74 -75z" />
    <glyph glyph-name="multiply" unicode="&#xd7;" horiz-adv-x="724" 
d="M362 526l263 256q21 21 43 21q23 0 40 -17.5t17 -40.5q0 -22 -16 -38l-269 -261l269 -260q16 -16 16 -39t-17 -40t-40 -17q-22 0 -43 21l-263 256l-262 -256q-21 -21 -43 -21q-23 0 -40 17t-17 40t16 39l269 260l-269 261q-16 16 -16 38q0 23 17 40.5t40 17.5
q22 0 43 -21z" />
    <glyph glyph-name="Oslash" unicode="&#xd8;" horiz-adv-x="1458" 
d="M729 -29q-245 0 -401 117l-97 -121q-17 -20 -41 -20q-23 0 -39 16t-16 39q0 18 10 31l103 131q-158 184 -158 524q0 357 167.5 538t471.5 181q247 0 404 -121l94 119q17 20 41 20q23 0 39 -16t16 -39q0 -18 -10 -31l-101 -127q156 -186 156 -524q0 -354 -167.5 -535.5
t-471.5 -181.5zM729 1280q-239 0 -367.5 -148t-128.5 -444q0 -264 105 -412l711 904q-121 100 -320 100zM729 98q239 0 367.5 148t128.5 442q0 260 -103 410l-710 -901q116 -99 317 -99z" />
    <glyph glyph-name="Ugrave" unicode="&#xd9;" horiz-adv-x="1277" 
d="M645 -29q-112 0 -198 25.5t-138.5 67t-86 101.5t-46 121.5t-12.5 133.5v905q0 29 20 49.5t49 20.5t49.5 -20.5t20.5 -49.5v-905q0 -53 8 -96t31 -85.5t60 -71.5t99 -47t144 -18t143 18t98 47t60 71.5t31 85.5t8 96v905q0 29 20.5 49.5t49.5 20.5t49 -20.5t20 -49.5v-905
q0 -449 -479 -449zM768 1483q-32 -25 -61 4l-199 201q-37 37 6 77q26 20 45.5 18.5t32.5 -18.5l182 -221q27 -35 -6 -61z" />
    <glyph glyph-name="Uacute" unicode="&#xda;" horiz-adv-x="1277" 
d="M645 -29q-112 0 -198 25.5t-138.5 67t-86 101.5t-46 121.5t-12.5 133.5v905q0 29 20 49.5t49 20.5t49.5 -20.5t20.5 -49.5v-905q0 -53 8 -96t31 -85.5t60 -71.5t99 -47t144 -18t143 18t98 47t60 71.5t31 85.5t8 96v905q0 29 20.5 49.5t49.5 20.5t49 -20.5t20 -49.5v-905
q0 -449 -479 -449zM549 1483q-33 26 -6 61l182 221q13 17 32.5 18.5t45.5 -18.5q43 -40 6 -77l-199 -201q-29 -29 -61 -4z" />
    <glyph glyph-name="Ucircumflex" unicode="&#xdb;" horiz-adv-x="1277" 
d="M645 -29q-112 0 -198 25.5t-138.5 67t-86 101.5t-46 121.5t-12.5 133.5v905q0 29 20 49.5t49 20.5t49.5 -20.5t20.5 -49.5v-905q0 -53 8 -96t31 -85.5t60 -71.5t99 -47t144 -18t143 18t98 47t60 71.5t31 85.5t8 96v905q0 29 20.5 49.5t49.5 20.5t49 -20.5t20 -49.5v-905
q0 -449 -479 -449zM811 1485l-166 139l-166 -139q-12 -12 -33 -12q-20 0 -34.5 14.5t-14.5 34.5q0 23 19 39l196 161q17 13 33 13t33 -13l196 -161q19 -16 19 -39q0 -20 -14.5 -34.5t-34.5 -14.5q-21 0 -33 12z" />
    <glyph glyph-name="Udieresis" unicode="&#xdc;" horiz-adv-x="1277" 
d="M645 -29q-112 0 -198 25.5t-138.5 67t-86 101.5t-46 121.5t-12.5 133.5v905q0 29 20 49.5t49 20.5t49.5 -20.5t20.5 -49.5v-905q0 -53 8 -96t31 -85.5t60 -71.5t99 -47t144 -18t143 18t98 47t60 71.5t31 85.5t8 96v905q0 29 20.5 49.5t49.5 20.5t49 -20.5t20 -49.5v-905
q0 -449 -479 -449zM485 1518q-73 0 -73 75q0 78 73 78q74 0 74 -78q0 -75 -74 -75zM807 1518q-74 0 -74 75q0 78 74 78t74 -78q0 -75 -74 -75z" />
    <glyph glyph-name="Yacute" unicode="&#xdd;" 
d="M530 -16q-29 0 -49 20t-20 49v588l-412 647q-10 17 -10 37q0 29 20.5 49.5t49.5 20.5q39 0 59 -33l362 -582l363 582q20 33 59 33q29 0 49.5 -20.5t20.5 -49.5q0 -20 -10 -37l-412 -647v-588q0 -29 -20.5 -49t-49.5 -20zM442 1483q-33 26 -6 61l182 221q13 17 32.5 18.5
t45.5 -18.5q43 -40 6 -77l-198 -201q-30 -30 -62 -4z" />
    <glyph glyph-name="Thorn" unicode="&#xde;" horiz-adv-x="1114" 
d="M303 315v-262q0 -29 -20.5 -49t-49.5 -20t-49 20t-20 49v1272q0 28 20 49t49 21t49.5 -21t20.5 -49v-209h338q173 0 282 -101.5t109 -297.5q0 -194 -108.5 -298t-282.5 -104h-338zM303 989v-547h318q126 0 198 71.5t72 203.5t-72 202t-198 70h-318z" />
    <glyph glyph-name="germandbls" unicode="&#xdf;" horiz-adv-x="1120" 
d="M479 1403q131 0 224.5 -76.5t93.5 -191.5q0 -56 -22.5 -104t-56 -79.5t-73 -63t-73 -56t-56 -56.5t-22.5 -67q0 -38 23 -68t61 -49t86.5 -38t98.5 -34.5t98.5 -40t86.5 -53t61 -75t23 -105.5q0 -90 -47 -152.5t-124 -90.5t-177 -28q-116 0 -210 45t-140 103
q-15 21 -15 39q0 25 17.5 42t42.5 17t45 -20q101 -101 260 -101q96 0 156.5 35.5t60.5 110.5q0 38 -23 67t-61 47t-86.5 36.5t-99 34t-99 40t-86.5 54t-61 77t-23 107.5t31.5 108.5t76 81.5t89 64.5t76 75t31.5 96.5q0 60 -52 102.5t-135 42.5q-215 0 -215 -229v-1002
q0 -28 -18.5 -46.5t-46.5 -18.5t-47 18.5t-19 46.5v1002q0 72 19.5 133t59.5 111.5t108.5 79t158.5 28.5z" />
    <glyph glyph-name="agrave" unicode="&#xe0;" horiz-adv-x="956" 
d="M475 836q-80 0 -134.5 -25t-102.5 -80q-25 -29 -54 -29q-25 0 -42 17.5t-17 42.5q0 18 10 35q46 73 132 117t208 44q176 0 272.5 -94t96.5 -254v-563q0 -26 -19 -44.5t-45 -18.5t-44.5 18.5t-18.5 44.5v74q-37 -70 -117.5 -109t-175.5 -39q-165 0 -259.5 77t-94.5 216
q0 135 96 212t262 77h289v55q0 104 -65 165t-177 61zM436 92q115 0 198 69t83 193v86h-289q-104 0 -164.5 -44t-60.5 -130q0 -82 58 -128t175 -46zM608 1065q-32 -25 -61 4l-199 201q-37 37 6 78q26 20 45.5 18.5t32.5 -18.5l182 -222q27 -35 -6 -61z" />
    <glyph glyph-name="aacute" unicode="&#xe1;" horiz-adv-x="956" 
d="M475 836q-80 0 -134.5 -25t-102.5 -80q-25 -29 -54 -29q-25 0 -42 17.5t-17 42.5q0 18 10 35q46 73 132 117t208 44q176 0 272.5 -94t96.5 -254v-563q0 -26 -19 -44.5t-45 -18.5t-44.5 18.5t-18.5 44.5v74q-37 -70 -117.5 -109t-175.5 -39q-165 0 -259.5 77t-94.5 216
q0 135 96 212t262 77h289v55q0 104 -65 165t-177 61zM436 92q115 0 198 69t83 193v86h-289q-104 0 -164.5 -44t-60.5 -130q0 -82 58 -128t175 -46zM362 1065q-33 26 -6 61l183 222q32 40 77 0q44 -41 7 -78l-199 -201q-30 -30 -62 -4z" />
    <glyph glyph-name="acircumflex" unicode="&#xe2;" horiz-adv-x="956" 
d="M475 836q-80 0 -134.5 -25t-102.5 -80q-25 -29 -54 -29q-25 0 -42 17.5t-17 42.5q0 18 10 35q46 73 132 117t208 44q176 0 272.5 -94t96.5 -254v-563q0 -26 -19 -44.5t-45 -18.5t-44.5 18.5t-18.5 44.5v74q-37 -70 -117.5 -109t-175.5 -39q-165 0 -259.5 77t-94.5 216
q0 135 96 212t262 77h289v55q0 104 -65 165t-177 61zM436 92q115 0 198 69t83 193v86h-289q-104 0 -164.5 -44t-60.5 -130q0 -82 58 -128t175 -46zM643 1081l-166 140l-166 -140q-12 -12 -32 -12t-35 14.5t-15 34.5q0 23 19 39l196 162q16 12 33 12t33 -12l197 -162
q18 -15 18 -39q0 -20 -14.5 -34.5t-34.5 -14.5q-21 0 -33 12z" />
    <glyph glyph-name="atilde" unicode="&#xe3;" horiz-adv-x="956" 
d="M475 836q-80 0 -134.5 -25t-102.5 -80q-25 -29 -54 -29q-25 0 -42 17.5t-17 42.5q0 18 10 35q46 73 132 117t208 44q176 0 272.5 -94t96.5 -254v-563q0 -26 -19 -44.5t-45 -18.5t-44.5 18.5t-18.5 44.5v74q-37 -70 -117.5 -109t-175.5 -39q-165 0 -259.5 77t-94.5 216
q0 135 96 212t262 77h289v55q0 104 -65 165t-177 61zM436 92q115 0 198 69t83 193v86h-289q-104 0 -164.5 -44t-60.5 -130q0 -82 58 -128t175 -46zM362 1264q52 0 127 -40t115 -40q31 0 51 13t43 44q17 23 41 23q20 0 34.5 -15t14.5 -35q0 -12 -6 -24q-23 -45 -68 -76
t-110 -31q-53 0 -127 40t-115 40q-31 0 -51 -13t-43 -44q-17 -23 -41 -23q-20 0 -34.5 15t-14.5 35q0 12 6 24q23 45 68 76t110 31z" />
    <glyph glyph-name="adieresis" unicode="&#xe4;" horiz-adv-x="956" 
d="M475 836q-80 0 -134.5 -25t-102.5 -80q-25 -29 -54 -29q-25 0 -42 17.5t-17 42.5q0 18 10 35q46 73 132 117t208 44q176 0 272.5 -94t96.5 -254v-563q0 -26 -19 -44.5t-45 -18.5t-44.5 18.5t-18.5 44.5v74q-37 -70 -117.5 -109t-175.5 -39q-165 0 -259.5 77t-94.5 216
q0 135 96 212t262 77h289v55q0 104 -65 165t-177 61zM436 92q115 0 198 69t83 193v86h-289q-104 0 -164.5 -44t-60.5 -130q0 -82 58 -128t175 -46zM332 1094q-74 0 -74 75q0 78 74 78t74 -78q0 -75 -74 -75zM653 1094q-73 0 -73 75q0 78 73 78q74 0 74 -78q0 -75 -74 -75z
" />
    <glyph glyph-name="aring" unicode="&#xe5;" horiz-adv-x="956" 
d="M475 836q-80 0 -134.5 -25t-102.5 -80q-25 -29 -54 -29q-25 0 -42 17.5t-17 42.5q0 18 10 35q46 73 132 117t208 44q176 0 272.5 -94t96.5 -254v-563q0 -26 -19 -44.5t-45 -18.5t-44.5 18.5t-18.5 44.5v74q-37 -70 -117.5 -109t-175.5 -39q-165 0 -259.5 77t-94.5 216
q0 135 96 212t262 77h289v55q0 104 -65 165t-177 61zM436 92q115 0 198 69t83 193v86h-289q-104 0 -164.5 -44t-60.5 -130q0 -82 58 -128t175 -46zM494 1028q-106 0 -159.5 52.5t-53.5 148.5t53.5 148.5t159.5 52.5t159.5 -52.5t53.5 -148.5t-53.5 -148.5t-159.5 -52.5z
M494 1352q-69 0 -98 -30t-29 -93q0 -62 29.5 -92.5t97.5 -30.5t97.5 30.5t29.5 92.5q0 63 -29 93t-98 30z" />
    <glyph glyph-name="ae" unicode="&#xe6;" horiz-adv-x="1593" 
d="M475 836q-80 0 -131 -23.5t-106 -81.5q-25 -29 -54 -29q-25 0 -42 17.5t-17 42.5q0 18 10 35q46 73 132 117t208 44q115 0 198.5 -42.5t125.5 -120.5q108 163 334 163q94 0 166.5 -28.5t113.5 -70t67.5 -97.5t35 -104t8.5 -95q0 -30 -1.5 -46.5t-8.5 -39.5t-25 -34
t-47 -11h-598q0 -154 83 -246t226 -92q80 0 136 23.5t110 64.5q19 13 37 13q25 0 42 -17.5t17 -42.5t-22 -47t-56 -44.5t-107.5 -46.5t-156.5 -24q-137 0 -232.5 51t-134.5 152q-102 -203 -362 -203q-165 0 -259.5 77t-94.5 216q0 134 95.5 207.5t262.5 73.5h289v63
q0 104 -65 165t-177 61zM436 92q115 0 198 69t83 193v78h-289q-105 0 -165 -40t-60 -126q0 -82 58 -128t175 -46zM1395 547q0 293 -262 293q-132 0 -206 -77t-83 -216h551z" />
    <glyph glyph-name="ccedilla" unicode="&#xe7;" horiz-adv-x="903" 
d="M705 -285q0 -174 -199 -174q-76 0 -131 37q-17 12 -17 31q0 15 11 27t26 12q13 0 25 -6q42 -21 86 -21q58 0 83 19t25 75q0 51 -22.5 73t-67.5 22q-19 0 -46.5 -4.5t-37.5 -4.5q-16 0 -27 11t-10 34l5 134q-163 24 -249.5 145.5t-86.5 341.5q0 247 109.5 369t312.5 122
q119 0 198.5 -45.5t116.5 -95.5q14 -20 14 -39q0 -26 -17 -42.5t-42 -16.5q-28 0 -49 24q-17 19 -30 31t-40 30t-65.5 27t-85.5 9q-289 0 -289 -373q0 -375 289 -375q55 0 105.5 16.5t74 31.5t57.5 40q21 15 39 15q25 0 42 -17.5t17 -42.5q0 -28 -26 -51q-24 -20 -45 -34
t-62 -34.5t-96.5 -31.5t-120.5 -11l-8 -94q37 4 55 4q179 0 179 -168z" />
    <glyph glyph-name="egrave" unicode="&#xe8;" horiz-adv-x="954" 
d="M72 467q0 235 111 363t311 128q79 0 142.5 -19.5t105 -53.5t71 -74t44.5 -87t21.5 -86.5t6.5 -78.5q0 -30 -1.5 -46.5t-8.5 -39.5t-25 -34t-47 -11h-598q0 -153 82.5 -243.5t226.5 -90.5q80 0 136 23.5t110 64.5q20 13 37 13q25 0 42 -17.5t17 -42.5t-22 -47t-56 -44.5
t-107.5 -46.5t-156.5 -24q-211 0 -326.5 121.5t-115.5 372.5zM756 543q0 60 -12 109t-39.5 93.5t-81 69.5t-129.5 25q-131 0 -205.5 -79t-83.5 -218h551zM621 1065q-32 -26 -62 4l-199 201q-37 37 7 78q45 40 77 0l183 -222q27 -35 -6 -61z" />
    <glyph glyph-name="eacute" unicode="&#xe9;" horiz-adv-x="954" 
d="M72 467q0 235 111 363t311 128q79 0 142.5 -19.5t105 -53.5t71 -74t44.5 -87t21.5 -86.5t6.5 -78.5q0 -30 -1.5 -46.5t-8.5 -39.5t-25 -34t-47 -11h-598q0 -153 82.5 -243.5t226.5 -90.5q80 0 136 23.5t110 64.5q20 13 37 13q25 0 42 -17.5t17 -42.5t-22 -47t-56 -44.5
t-107.5 -46.5t-156.5 -24q-211 0 -326.5 121.5t-115.5 372.5zM756 543q0 60 -12 109t-39.5 93.5t-81 69.5t-129.5 25q-131 0 -205.5 -79t-83.5 -218h551zM391 1065q-33 26 -6 61l182 222q13 17 32.5 18.5t45.5 -18.5q43 -41 6 -78l-198 -201q-30 -30 -62 -4z" />
    <glyph glyph-name="ecircumflex" unicode="&#xea;" horiz-adv-x="954" 
d="M72 467q0 235 111 363t311 128q79 0 142.5 -19.5t105 -53.5t71 -74t44.5 -87t21.5 -86.5t6.5 -78.5q0 -30 -1.5 -46.5t-8.5 -39.5t-25 -34t-47 -11h-598q0 -153 82.5 -243.5t226.5 -90.5q80 0 136 23.5t110 64.5q20 13 37 13q25 0 42 -17.5t17 -42.5t-22 -47t-56 -44.5
t-107.5 -46.5t-156.5 -24q-211 0 -326.5 121.5t-115.5 372.5zM756 543q0 60 -12 109t-39.5 93.5t-81 69.5t-129.5 25q-131 0 -205.5 -79t-83.5 -218h551zM668 1081l-166 140l-166 -140q-12 -12 -33 -12q-20 0 -34.5 14.5t-14.5 34.5q0 24 18 39l197 162q16 12 33 12t33 -12
l196 -162q19 -16 19 -39q0 -20 -15 -34.5t-35 -14.5t-32 12z" />
    <glyph glyph-name="edieresis" unicode="&#xeb;" horiz-adv-x="954" 
d="M72 467q0 235 111 363t311 128q79 0 142.5 -19.5t105 -53.5t71 -74t44.5 -87t21.5 -86.5t6.5 -78.5q0 -30 -1.5 -46.5t-8.5 -39.5t-25 -34t-47 -11h-598q0 -153 82.5 -243.5t226.5 -90.5q80 0 136 23.5t110 64.5q20 13 37 13q25 0 42 -17.5t17 -42.5t-22 -47t-56 -44.5
t-107.5 -46.5t-156.5 -24q-211 0 -326.5 121.5t-115.5 372.5zM756 543q0 60 -12 109t-39.5 93.5t-81 69.5t-129.5 25q-131 0 -205.5 -79t-83.5 -218h551zM340 1094q-74 0 -74 75q0 78 74 78t74 -78q0 -75 -74 -75zM662 1094q-74 0 -74 75q0 78 74 78q73 0 73 -78
q0 -75 -73 -75z" />
    <glyph glyph-name="igrave" unicode="&#xec;" horiz-adv-x="395" 
d="M262 881v-832q0 -28 -18.5 -46.5t-46.5 -18.5t-47 18.5t-19 46.5v832q0 28 19 46.5t47 18.5t46.5 -18.5t18.5 -46.5zM305 1065q-32 -25 -61 4l-199 201q-37 37 6 78q26 20 45.5 18.5t32.5 -18.5l182 -222q27 -35 -6 -61z" />
    <glyph glyph-name="iacute" unicode="&#xed;" horiz-adv-x="395" 
d="M262 881v-832q0 -28 -18.5 -46.5t-46.5 -18.5t-47 18.5t-19 46.5v832q0 28 19 46.5t47 18.5t46.5 -18.5t18.5 -46.5zM109 1065q-34 27 -7 61l183 222q32 40 77 0q44 -41 7 -78l-199 -201q-29 -29 -61 -4z" />
    <glyph glyph-name="icircumflex" unicode="&#xee;" horiz-adv-x="395" 
d="M262 881v-832q0 -28 -18.5 -46.5t-46.5 -18.5t-47 18.5t-19 46.5v832q0 28 19 46.5t47 18.5t46.5 -18.5t18.5 -46.5zM362 1081l-165 140l-166 -140q-12 -12 -33 -12q-20 0 -34.5 14.5t-14.5 34.5q0 24 18 39l197 162q16 12 33 12q16 0 32 -12l197 -162q18 -15 18 -39
q0 -20 -14.5 -34.5t-34.5 -14.5q-21 0 -33 12z" />
    <glyph glyph-name="idieresis" unicode="&#xef;" horiz-adv-x="395" 
d="M262 881v-832q0 -28 -18.5 -46.5t-46.5 -18.5t-47 18.5t-19 46.5v832q0 28 19 46.5t47 18.5t46.5 -18.5t18.5 -46.5zM37 1094q-74 0 -74 75q0 78 74 78t74 -78q0 -75 -74 -75zM358 1094q-73 0 -73 75q0 78 73 78q74 0 74 -78q0 -75 -74 -75z" />
    <glyph glyph-name="eth" unicode="&#xf0;" horiz-adv-x="1007" 
d="M502 958q142 0 237 -63q-18 67 -54.5 136t-80.5 114l-115 -78q-6 -4 -14.5 -6.5t-14.5 -2.5l-5 -1q-26 0 -44 17.5t-18 43.5q0 34 27 51l100 66q-46 42 -162 111q-32 17 -32 55q0 23 17 40t42 17q17 0 33 -8q98 -49 207 -147l90 57q15 10 35 10q26 0 43.5 -17.5
t17.5 -43.5q0 -33 -27 -52l-75 -49q223 -283 223 -741q0 -246 -112.5 -370t-317.5 -124q-203 0 -316.5 124t-113.5 370t113 368.5t317 122.5zM502 92q297 0 297 375q0 373 -297 373t-297 -373q0 -375 297 -375z" />
    <glyph glyph-name="ntilde" unicode="&#xf1;" horiz-adv-x="1026" 
d="M537 958q91 0 159.5 -21.5t109 -55.5t65.5 -83t33.5 -97t8.5 -105v-547q0 -28 -18.5 -46.5t-46.5 -18.5t-47 18.5t-19 46.5v520q0 65 -10.5 111.5t-37 85t-75.5 57.5t-122 19q-273 0 -273 -287v-506q0 -28 -18.5 -46.5t-46.5 -18.5t-47 18.5t-19 46.5v832q0 28 19 46.5
t47 18.5t46.5 -18.5t18.5 -46.5v-66q31 62 104 102.5t169 40.5zM401 1264q52 0 127 -40t115 -40q31 0 51 13t43 44q17 23 41 23q20 0 34.5 -15t14.5 -35q0 -12 -6 -24q-23 -45 -68 -76t-110 -31q-53 0 -127 40t-115 40q-31 0 -51 -13t-43 -44q-17 -23 -41 -23
q-20 0 -34.5 15t-14.5 35q0 12 6 24q23 45 68 76t110 31z" />
    <glyph glyph-name="ograve" unicode="&#xf2;" horiz-adv-x="1003" 
d="M502 958q205 0 317.5 -122.5t112.5 -368.5t-112.5 -370t-317.5 -124q-203 0 -316.5 124t-113.5 370t113 368.5t317 122.5zM502 92q297 0 297 375q0 373 -297 373t-297 -373q0 -375 297 -375zM649 1065q-32 -25 -61 4l-199 201q-37 37 6 78q26 20 45.5 18.5t32.5 -18.5
l182 -222q27 -35 -6 -61z" />
    <glyph glyph-name="oacute" unicode="&#xf3;" horiz-adv-x="1003" 
d="M502 958q205 0 317.5 -122.5t112.5 -368.5t-112.5 -370t-317.5 -124q-203 0 -316.5 124t-113.5 370t113 368.5t317 122.5zM502 92q297 0 297 375q0 373 -297 373t-297 -373q0 -375 297 -375zM410 1065q-34 27 -7 61l183 222q13 17 32.5 18.5t45.5 -18.5q43 -41 6 -78
l-199 -201q-29 -29 -61 -4z" />
    <glyph glyph-name="ocircumflex" unicode="&#xf4;" horiz-adv-x="1003" 
d="M502 958q205 0 317.5 -122.5t112.5 -368.5t-112.5 -370t-317.5 -124q-203 0 -316.5 124t-113.5 370t113 368.5t317 122.5zM502 92q297 0 297 375q0 373 -297 373t-297 -373q0 -375 297 -375zM676 1081l-166 140l-166 -140q-12 -12 -33 -12q-20 0 -34.5 14.5t-14.5 34.5
q0 23 19 39l196 162q16 12 33 12t33 -12l196 -162q19 -16 19 -39q0 -20 -14.5 -34.5t-34.5 -14.5q-21 0 -33 12z" />
    <glyph glyph-name="otilde" unicode="&#xf5;" horiz-adv-x="1003" 
d="M502 958q205 0 317.5 -122.5t112.5 -368.5t-112.5 -370t-317.5 -124q-203 0 -316.5 124t-113.5 370t113 368.5t317 122.5zM502 92q297 0 297 375q0 373 -297 373t-297 -373q0 -375 297 -375zM385 1264q52 0 127 -40t115 -40q31 0 51 13t43 44q17 23 41 23q20 0 34.5 -15
t14.5 -35q0 -12 -6 -24q-23 -45 -68 -76t-110 -31q-53 0 -127 40t-115 40q-31 0 -51 -13t-43 -44q-17 -23 -41 -23q-20 0 -34.5 15t-14.5 35q0 12 6 24q23 45 68 76t110 31z" />
    <glyph glyph-name="odieresis" unicode="&#xf6;" horiz-adv-x="1003" 
d="M502 958q205 0 317.5 -122.5t112.5 -368.5t-112.5 -370t-317.5 -124q-203 0 -316.5 124t-113.5 370t113 368.5t317 122.5zM502 92q297 0 297 375q0 373 -297 373t-297 -373q0 -375 297 -375zM350 1094q-74 0 -74 75q0 78 74 78t74 -78q0 -75 -74 -75zM672 1094
q-74 0 -74 75q0 78 74 78q73 0 73 -78q0 -75 -73 -75z" />
    <glyph glyph-name="divide" unicode="&#xf7;" horiz-adv-x="929" 
d="M397 199q0 28 19.5 47.5t48.5 19.5t49.5 -19.5t20.5 -47.5q0 -29 -20.5 -49.5t-49.5 -20.5t-48.5 20.5t-19.5 49.5zM397 696q0 29 19.5 49.5t48.5 20.5t49.5 -20.5t20.5 -49.5t-20 -48t-50 -19q-29 0 -48.5 19t-19.5 48zM930 449q0 -23 -16.5 -39.5t-39.5 -16.5h-819
q-23 0 -39 16.5t-16 39.5t16 39t39 16h819q23 0 39.5 -16t16.5 -39z" />
    <glyph glyph-name="oslash" unicode="&#xf8;" horiz-adv-x="1003" 
d="M502 958q184 0 291 -98l75 82q16 16 39 16q22 0 38 -15.5t16 -37.5t-17 -39l-84 -88q72 -119 72 -311q0 -246 -112.5 -370t-317.5 -124q-188 0 -297 103l-74 -78q-14 -14 -37 -14q-22 0 -37.5 15.5t-15.5 37.5q0 23 16 39l80 86q-65 118 -65 305q0 246 113 368.5
t317 122.5zM502 92q297 0 297 375q0 126 -35 207l-471 -504q72 -78 209 -78zM205 467q0 -119 31 -201l469 500q-77 74 -203 74q-297 0 -297 -373z" />
    <glyph glyph-name="ugrave" unicode="&#xf9;" horiz-adv-x="987" 
d="M178 946q27 0 46.5 -19t19.5 -46v-535q0 -54 10.5 -95.5t36.5 -77.5t77 -55.5t126 -19.5t126 19.5t76.5 55.5t36 77t10.5 96v535q0 27 20 46t48 19q26 0 44.5 -18.5t18.5 -46.5v-535q0 -63 -9 -114t-34 -101t-66 -83.5t-110 -54t-161 -20.5t-160.5 20.5t-110 54t-67 83.5
t-34.5 101t-9 114v535q0 28 18.5 46.5t46.5 18.5zM598 1065q-32 -25 -61 4l-199 201q-37 37 6 78q26 20 45.5 18.5t32.5 -18.5l182 -222q27 -35 -6 -61z" />
    <glyph glyph-name="uacute" unicode="&#xfa;" horiz-adv-x="987" 
d="M178 946q27 0 46.5 -19t19.5 -46v-535q0 -54 10.5 -95.5t36.5 -77.5t77 -55.5t126 -19.5t126 19.5t76.5 55.5t36 77t10.5 96v535q0 27 20 46t48 19q26 0 44.5 -18.5t18.5 -46.5v-535q0 -63 -9 -114t-34 -101t-66 -83.5t-110 -54t-161 -20.5t-160.5 20.5t-110 54t-67 83.5
t-34.5 101t-9 114v535q0 28 18.5 46.5t46.5 18.5zM414 1065q-33 26 -6 61l182 222q13 17 32.5 18.5t45.5 -18.5q43 -41 6 -78l-199 -201q-29 -29 -61 -4z" />
    <glyph glyph-name="ucircumflex" unicode="&#xfb;" horiz-adv-x="987" 
d="M178 946q27 0 46.5 -19t19.5 -46v-535q0 -54 10.5 -95.5t36.5 -77.5t77 -55.5t126 -19.5t126 19.5t76.5 55.5t36 77t10.5 96v535q0 27 20 46t48 19q26 0 44.5 -18.5t18.5 -46.5v-535q0 -63 -9 -114t-34 -101t-66 -83.5t-110 -54t-161 -20.5t-160.5 20.5t-110 54t-67 83.5
t-34.5 101t-9 114v535q0 28 18.5 46.5t46.5 18.5zM668 1081l-166 140l-166 -140q-12 -12 -33 -12q-20 0 -34.5 14.5t-14.5 34.5q0 24 18 39l197 162q16 12 33 12t33 -12l196 -162q19 -16 19 -39q0 -20 -15 -34.5t-35 -14.5t-32 12z" />
    <glyph glyph-name="udieresis" unicode="&#xfc;" horiz-adv-x="987" 
d="M178 946q27 0 46.5 -19t19.5 -46v-535q0 -54 10.5 -95.5t36.5 -77.5t77 -55.5t126 -19.5t126 19.5t76.5 55.5t36 77t10.5 96v535q0 27 20 46t48 19q26 0 44.5 -18.5t18.5 -46.5v-535q0 -63 -9 -114t-34 -101t-66 -83.5t-110 -54t-161 -20.5t-160.5 20.5t-110 54t-67 83.5
t-34.5 101t-9 114v535q0 28 18.5 46.5t46.5 18.5zM346 1094q-74 0 -74 75q0 78 74 78t74 -78q0 -75 -74 -75zM668 1094q-74 0 -74 75q0 78 74 78q73 0 73 -78q0 -75 -73 -75z" />
    <glyph glyph-name="yacute" unicode="&#xfd;" horiz-adv-x="897" 
d="M72 -289q52 0 92.5 16.5t66.5 35.5t55.5 71t44 84t47.5 114q1 2 1.5 3.5t1.5 3.5l-342 813q-6 18 -6 29q0 28 18.5 46.5t46.5 18.5q45 0 62 -43l289 -706l288 706q17 43 62 43q28 0 46.5 -18.5t18.5 -46.5q0 -11 -6 -29l-403 -961q-65 -157 -153 -230t-230 -73
q-26 0 -44 18t-18 44t18 43.5t44 17.5zM365 1065q-34 27 -7 61l183 222q32 40 77 0q44 -41 7 -78l-199 -201q-29 -29 -61 -4z" />
    <glyph glyph-name="thorn" unicode="&#xfe;" horiz-adv-x="1042" 
d="M264 1393v-578q32 58 107.5 100.5t171.5 42.5q205 0 316.5 -122.5t111.5 -368.5q0 -247 -112 -370.5t-316 -123.5q-95 0 -169 42.5t-110 101.5v-463q0 -26 -19.5 -46t-45.5 -20t-46 20t-20 46v1739q0 28 19 46.5t47 18.5t46.5 -18.5t18.5 -46.5zM260 467
q0 -189 77.5 -282t205.5 -93q144 0 219.5 93t75.5 282q0 188 -77.5 280.5t-221.5 92.5q-123 0 -201 -92t-78 -281z" />
    <glyph glyph-name="ydieresis" unicode="&#xff;" horiz-adv-x="897" 
d="M72 -289q52 0 92.5 16.5t66.5 35.5t55.5 71t44 84t47.5 114q1 2 1.5 3.5t1.5 3.5l-342 813q-6 18 -6 29q0 28 18.5 46.5t46.5 18.5q45 0 62 -43l289 -706l288 706q17 43 62 43q28 0 46.5 -18.5t18.5 -46.5q0 -11 -6 -29l-403 -961q-65 -157 -153 -230t-230 -73
q-26 0 -44 18t-18 44t18 43.5t44 17.5zM287 1094q-74 0 -74 75q0 78 74 78q73 0 73 -78q0 -75 -73 -75zM608 1094q-73 0 -73 75q0 78 73 78q74 0 74 -78q0 -75 -74 -75z" />
    <glyph glyph-name="Amacron" unicode="&#x100;" horiz-adv-x="1255" 
d="M870 535l-243 626l-242 -626h485zM913 408h-571l-149 -375q-18 -49 -68 -49q-29 0 -49.5 20.5t-20.5 48.5q0 19 6 31l500 1264q19 47 66 47q48 0 67 -47l500 -1264q6 -15 6 -31q0 -29 -20 -49t-52 -20q-50 0 -67 47zM868 1552q0 -22 -14.5 -36.5t-36.5 -14.5h-381
q-22 0 -36.5 14.5t-14.5 36.5t14.5 37t36.5 15h381q22 0 36.5 -15t14.5 -37z" />
    <glyph glyph-name="amacron" unicode="&#x101;" horiz-adv-x="956" 
d="M475 836q-80 0 -134.5 -25t-102.5 -80q-25 -29 -54 -29q-25 0 -42 17.5t-17 42.5q0 18 10 35q46 73 132 117t208 44q176 0 272.5 -94t96.5 -254v-563q0 -26 -19 -44.5t-45 -18.5t-44.5 18.5t-18.5 44.5v74q-37 -70 -117.5 -109t-175.5 -39q-165 0 -259.5 77t-94.5 216
q0 135 96 212t262 77h289v55q0 104 -65 165t-177 61zM436 92q115 0 198 69t83 193v86h-289q-104 0 -164.5 -44t-60.5 -130q0 -82 58 -128t175 -46zM729 1151q0 -22 -14.5 -36.5t-36.5 -14.5h-381q-22 0 -36.5 14.5t-14.5 36.5t14.5 36.5t36.5 14.5h381q22 0 36.5 -14.5
t14.5 -36.5z" />
    <glyph glyph-name="Abreve" unicode="&#x102;" horiz-adv-x="1255" 
d="M870 535l-243 626l-242 -626h485zM913 408h-571l-149 -375q-18 -49 -68 -49q-29 0 -49.5 20.5t-20.5 48.5q0 19 6 31l500 1264q19 47 66 47q48 0 67 -47l500 -1264q6 -15 6 -31q0 -29 -20 -49t-52 -20q-50 0 -67 47zM627 1495q-100 0 -166 51.5t-66 155.5q0 20 14.5 34.5
t34.5 14.5t35 -14.5t15 -34.5q0 -113 133 -113t133 113q0 20 14.5 34.5t34.5 14.5t34.5 -14.5t14.5 -34.5q0 -104 -65.5 -155.5t-165.5 -51.5z" />
    <glyph glyph-name="abreve" unicode="&#x103;" horiz-adv-x="956" 
d="M475 836q-80 0 -134.5 -25t-102.5 -80q-25 -29 -54 -29q-25 0 -42 17.5t-17 42.5q0 18 10 35q46 73 132 117t208 44q176 0 272.5 -94t96.5 -254v-563q0 -26 -19 -44.5t-45 -18.5t-44.5 18.5t-18.5 44.5v74q-37 -70 -117.5 -109t-175.5 -39q-165 0 -259.5 77t-94.5 216
q0 135 96 212t262 77h289v55q0 104 -65 165t-177 61zM436 92q115 0 198 69t83 193v86h-289q-104 0 -164.5 -44t-60.5 -130q0 -82 58 -128t175 -46zM481 1083q-100 0 -165.5 51.5t-65.5 155.5q0 20 14.5 34.5t34.5 14.5t34.5 -14.5t14.5 -34.5q0 -112 133 -112t133 112
q0 20 15 34.5t35 14.5t34.5 -14.5t14.5 -34.5q0 -104 -66 -155.5t-166 -51.5z" />
    <glyph glyph-name="Aogonek" unicode="&#x104;" horiz-adv-x="1255" 
d="M870 535l-243 626l-242 -626h485zM913 408h-571l-149 -375q-18 -49 -68 -49q-29 0 -49.5 20.5t-20.5 48.5q0 19 6 31l500 1264q19 47 66 47q48 0 67 -47l500 -1264q6 -15 6 -31q0 -29 -20 -49t-52 -20q-50 0 -67 47zM1272 -256q19 0 32 -13t13 -32q0 -25 -23 -39
q-58 -35 -147 -35q-98 0 -154.5 45t-56.5 129q0 127 141 201h101q-56 -23 -98 -69t-42 -103q0 -54 30.5 -81.5t82.5 -27.5q50 0 96 19q15 6 25 6z" />
    <glyph glyph-name="aogonek" unicode="&#x105;" horiz-adv-x="956" 
d="M924 -256q19 0 32 -13t13 -32q0 -25 -23 -39q-58 -35 -147 -35q-98 0 -154.5 45t-56.5 129q0 63 38.5 115.5t106.5 87.5q-16 19 -16 45v74q-37 -70 -117.5 -109t-175.5 -39q-165 0 -259.5 77t-94.5 216q0 135 96 212t262 77h289v55q0 104 -65 165t-177 61
q-80 0 -134.5 -25t-102.5 -80q-25 -29 -54 -29q-25 0 -42 17.5t-17 42.5q0 18 10 35q46 73 132 117t208 44q176 0 272.5 -94t96.5 -254v-563q0 -37 -39 -59q-115 -68 -115 -160q0 -54 30.5 -81.5t82.5 -27.5q50 0 96 19q15 6 25 6zM436 92q115 0 198 69t83 193v86h-289
q-104 0 -164.5 -44t-60.5 -130q0 -82 58 -128t175 -46z" />
    <glyph glyph-name="Cacute" unicode="&#x106;" horiz-adv-x="1292" 
d="M729 -29q-308 0 -473.5 175t-165.5 542q0 357 167.5 538t471.5 181q145 0 266.5 -58t194.5 -159q14 -20 14 -43q0 -28 -18.5 -47t-46.5 -19q-32 0 -54 27q-55 76 -150 124t-206 48q-240 0 -368 -148t-128 -444q0 -310 125.5 -450t370.5 -140q107 0 202.5 42.5
t153.5 125.5q19 27 54 27q28 0 46.5 -19t18.5 -47q0 -21 -12 -39q-67 -98 -194.5 -157.5t-268.5 -59.5zM612 1483q-33 26 -6 61l182 221q13 17 32.5 18.5t45.5 -18.5q43 -40 6 -77l-198 -201q-30 -30 -62 -4z" />
    <glyph glyph-name="cacute" unicode="&#x107;" horiz-adv-x="903" 
d="M72 467q0 247 109.5 369t312.5 122q119 0 198.5 -45.5t116.5 -95.5q14 -20 14 -39q0 -26 -17 -42.5t-42 -16.5q-28 0 -49 24q-17 19 -30 31t-40 30t-65.5 27t-85.5 9q-289 0 -289 -373q0 -375 289 -375q55 0 105.5 16.5t74 31.5t57.5 40q21 15 39 15q25 0 42 -17.5
t17 -42.5q0 -28 -26 -51q-135 -111 -309 -111q-202 0 -312 123.5t-110 370.5zM379 1065q-33 26 -6 61l182 222q13 17 32.5 18.5t45.5 -18.5q43 -41 6 -78l-199 -201q-29 -29 -61 -4z" />
    <glyph glyph-name="Ccircumflex" unicode="&#x108;" horiz-adv-x="1292" 
d="M729 -29q-308 0 -473.5 175t-165.5 542q0 357 167.5 538t471.5 181q145 0 266.5 -58t194.5 -159q14 -20 14 -43q0 -28 -18.5 -47t-46.5 -19q-32 0 -54 27q-55 76 -150 124t-206 48q-240 0 -368 -148t-128 -444q0 -310 125.5 -450t370.5 -140q107 0 202.5 42.5
t153.5 125.5q19 27 54 27q28 0 46.5 -19t18.5 -47q0 -21 -12 -39q-67 -98 -194.5 -157.5t-268.5 -59.5zM897 1485l-166 139l-166 -139q-12 -12 -33 -12q-20 0 -34.5 14.5t-14.5 34.5q0 23 19 39l196 161q17 13 33 13t33 -13l197 -161q18 -15 18 -39q0 -20 -14.5 -34.5
t-34.5 -14.5q-21 0 -33 12z" />
    <glyph glyph-name="ccircumflex" unicode="&#x109;" horiz-adv-x="903" 
d="M72 467q0 247 109.5 369t312.5 122q119 0 198.5 -45.5t116.5 -95.5q14 -20 14 -39q0 -26 -17 -42.5t-42 -16.5q-28 0 -49 24q-17 19 -30 31t-40 30t-65.5 27t-85.5 9q-289 0 -289 -373q0 -375 289 -375q55 0 105.5 16.5t74 31.5t57.5 40q21 15 39 15q25 0 42 -17.5
t17 -42.5q0 -28 -26 -51q-135 -111 -309 -111q-202 0 -312 123.5t-110 370.5zM657 1081l-165 140l-166 -140q-12 -12 -33 -12q-20 0 -34.5 14.5t-14.5 34.5q0 24 18 39l197 162q16 12 33 12q16 0 32 -12l197 -162q18 -15 18 -39q0 -20 -14.5 -34.5t-34.5 -14.5q-21 0 -33 12
z" />
    <glyph glyph-name="Cdotaccent" unicode="&#x10a;" horiz-adv-x="1292" 
d="M729 -29q-308 0 -473.5 175t-165.5 542q0 357 167.5 538t471.5 181q145 0 266.5 -58t194.5 -159q14 -20 14 -43q0 -28 -18.5 -47t-46.5 -19q-32 0 -54 27q-55 76 -150 124t-206 48q-240 0 -368 -148t-128 -444q0 -310 125.5 -450t370.5 -140q107 0 202.5 42.5
t153.5 125.5q19 27 54 27q28 0 46.5 -19t18.5 -47q0 -21 -12 -39q-67 -98 -194.5 -157.5t-268.5 -59.5zM723 1507q-78 0 -78 80q0 82 78 82t78 -82q0 -80 -78 -80z" />
    <glyph glyph-name="cdotaccent" unicode="&#x10b;" horiz-adv-x="903" 
d="M72 467q0 247 109.5 369t312.5 122q119 0 198.5 -45.5t116.5 -95.5q14 -20 14 -39q0 -26 -17 -42.5t-42 -16.5q-28 0 -49 24q-17 19 -30 31t-40 30t-65.5 27t-85.5 9q-289 0 -289 -373q0 -375 289 -375q55 0 105.5 16.5t74 31.5t57.5 40q21 15 39 15q25 0 42 -17.5
t17 -42.5q0 -28 -26 -51q-135 -111 -309 -111q-202 0 -312 123.5t-110 370.5zM500 1114q-78 0 -78 80q0 82 78 82t78 -82q0 -80 -78 -80z" />
    <glyph glyph-name="Ccaron" unicode="&#x10c;" horiz-adv-x="1292" 
d="M729 -29q-308 0 -473.5 175t-165.5 542q0 357 167.5 538t471.5 181q145 0 266.5 -58t194.5 -159q14 -20 14 -43q0 -28 -18.5 -47t-46.5 -19q-32 0 -54 27q-55 76 -150 124t-206 48q-240 0 -368 -148t-128 -444q0 -310 125.5 -450t370.5 -140q107 0 202.5 42.5
t153.5 125.5q19 27 54 27q28 0 46.5 -19t18.5 -47q0 -21 -12 -39q-67 -98 -194.5 -157.5t-268.5 -59.5zM721 1583l166 139q13 13 33 13t34.5 -14.5t14.5 -34.5q0 -23 -19 -39l-196 -162q-16 -12 -33 -12t-33 12l-196 162q-19 16 -19 39q0 20 14.5 34.5t34.5 14.5t33 -13z
" />
    <glyph glyph-name="ccaron" unicode="&#x10d;" horiz-adv-x="903" 
d="M72 467q0 247 109.5 369t312.5 122q119 0 198.5 -45.5t116.5 -95.5q14 -20 14 -39q0 -26 -17 -42.5t-42 -16.5q-28 0 -49 24q-17 19 -30 31t-40 30t-65.5 27t-85.5 9q-289 0 -289 -373q0 -375 289 -375q55 0 105.5 16.5t74 31.5t57.5 40q21 15 39 15q25 0 42 -17.5
t17 -42.5q0 -28 -26 -51q-135 -111 -309 -111q-202 0 -312 123.5t-110 370.5zM508 1133l166 139q12 12 33 12q20 0 34.5 -14.5t14.5 -34.5q0 -23 -19 -39l-196 -162q-16 -12 -33 -12t-33 12l-196 162q-19 16 -19 39q0 20 14.5 34.5t34.5 14.5q21 0 33 -12z" />
    <glyph glyph-name="Dcaron" unicode="&#x10e;" horiz-adv-x="1245" 
d="M303 1251v-1124h219q119 0 206.5 28t153 92t99 174t33.5 267q0 155 -33.5 265.5t-99 175t-153.5 93.5t-206 29h-219zM233 1378h289q151 0 264.5 -37t198 -117.5t127.5 -215t43 -320.5t-43 -320t-127.5 -214t-198 -117t-264.5 -37h-289q-29 0 -49 20.5t-20 49.5v1239
q0 29 20 49t49 20zM569 1583l166 139q13 13 33 13t34.5 -14.5t14.5 -34.5q0 -24 -18 -39l-197 -162q-16 -12 -33 -12q-16 0 -32 12l-197 162q-18 15 -18 39q0 20 14.5 34.5t34.5 14.5q19 0 32 -13z" />
    <glyph glyph-name="dcaron" unicode="&#x10f;" horiz-adv-x="1097" 
d="M762 377v282q-3 7 -9.5 19.5t-30 43.5t-52 55t-76.5 43.5t-102 19.5q-141 0 -215 -93t-74 -280q0 -375 289 -375q124 0 197 72t73 213zM483 958q92 0 166 -39t113 -94v568q0 28 18.5 46.5t46.5 18.5t47 -18.5t19 -46.5v-1016q0 -196 -110 -300t-291 -104
q-202 0 -311 123.5t-109 370.5q0 491 411 491zM1159 1325q0 -104 -39 -199.5t-108 -167.5q-12 -12 -27 -12q-12 0 -21.5 9t-9.5 22q0 7 7 18q40 56 57.5 96t17.5 91q0 32 -18 58.5t-36.5 54.5t-18.5 63q0 98 96 98q100 0 100 -131z" />
    <glyph glyph-name="Dcroat" unicode="&#x110;" horiz-adv-x="1247" 
d="M233 1378h289q151 0 265.5 -37t198.5 -117.5t127.5 -215t43.5 -320.5t-43.5 -320t-127.5 -214t-198 -117t-266 -37h-289q-29 0 -49 20.5t-20 49.5v579h-64q-26 0 -44.5 19t-18.5 45t18.5 44.5t44.5 18.5h64v533q0 29 20 49t49 20zM764 713q0 -26 -20 -45t-46 -19h-395
v-518h219q119 0 207 27.5t154.5 90.5t100.5 172.5t34 266.5q0 155 -34 265t-100.5 173.5t-154.5 92t-207 28.5h-219v-471h395q27 0 46.5 -18.5t19.5 -44.5z" />
    <glyph glyph-name="dcroat" unicode="&#x111;" horiz-adv-x="1026" 
d="M999 1143q0 -23 -16 -39.5t-39 -16.5h-51v-710q0 -196 -110 -300t-291 -104q-202 0 -311 123.5t-109 370.5q0 491 411 491q92 0 166 -39t113 -94v262h-195q-23 0 -39 16.5t-16 39.5t16 39t39 16h195v195q0 28 18.5 46.5t46.5 18.5t47 -18.5t19 -46.5v-195h51q23 0 39 -16
t16 -39zM762 377v282q-3 7 -9.5 19.5t-30 43.5t-52 55t-76.5 43.5t-102 19.5q-141 0 -215 -93t-74 -280q0 -375 289 -375q124 0 197 72t73 213z" />
    <glyph glyph-name="Emacron" unicode="&#x112;" 
d="M913 0h-680q-29 0 -49 20.5t-20 49.5v1239q0 29 20 49t49 20h658q26 0 44.5 -18.5t18.5 -44.5t-18.5 -45t-44.5 -19h-588v-493h451q26 0 44.5 -19t18.5 -45t-18.5 -44.5t-44.5 -18.5h-451v-504h610q26 0 45 -19t19 -45t-19 -44.5t-45 -18.5zM815 1552q0 -22 -14.5 -36.5
t-36.5 -14.5h-381q-22 0 -36.5 14.5t-14.5 36.5t14.5 37t36.5 15h381q22 0 36.5 -15t14.5 -37z" />
    <glyph glyph-name="emacron" unicode="&#x113;" horiz-adv-x="954" 
d="M72 467q0 235 111 363t311 128q79 0 142.5 -19.5t105 -53.5t71 -74t44.5 -87t21.5 -86.5t6.5 -78.5q0 -30 -1.5 -46.5t-8.5 -39.5t-25 -34t-47 -11h-598q0 -153 82.5 -243.5t226.5 -90.5q80 0 136 23.5t110 64.5q20 13 37 13q25 0 42 -17.5t17 -42.5t-22 -47t-56 -44.5
t-107.5 -46.5t-156.5 -24q-211 0 -326.5 121.5t-115.5 372.5zM756 543q0 60 -12 109t-39.5 93.5t-81 69.5t-129.5 25q-131 0 -205.5 -79t-83.5 -218h551zM737 1151q0 -22 -14.5 -36.5t-36.5 -14.5h-381q-22 0 -36.5 14.5t-14.5 36.5t14.5 36.5t36.5 14.5h381
q22 0 36.5 -14.5t14.5 -36.5z" />
    <glyph glyph-name="Ebreve" unicode="&#x114;" 
d="M913 0h-680q-29 0 -49 20.5t-20 49.5v1239q0 29 20 49t49 20h658q26 0 44.5 -18.5t18.5 -44.5t-18.5 -45t-44.5 -19h-588v-493h451q26 0 44.5 -19t18.5 -45t-18.5 -44.5t-44.5 -18.5h-451v-504h610q26 0 45 -19t19 -45t-19 -44.5t-45 -18.5zM571 1495q-100 0 -165.5 51.5
t-65.5 155.5q0 20 14.5 34.5t34.5 14.5t34.5 -14.5t14.5 -34.5q0 -113 133 -113q134 0 134 113q0 20 14.5 34.5t34.5 14.5t34.5 -14.5t14.5 -34.5q0 -104 -66 -155.5t-166 -51.5z" />
    <glyph glyph-name="ebreve" unicode="&#x115;" horiz-adv-x="954" 
d="M72 467q0 235 111 363t311 128q79 0 142.5 -19.5t105 -53.5t71 -74t44.5 -87t21.5 -86.5t6.5 -78.5q0 -30 -1.5 -46.5t-8.5 -39.5t-25 -34t-47 -11h-598q0 -153 82.5 -243.5t226.5 -90.5q80 0 136 23.5t110 64.5q20 13 37 13q25 0 42 -17.5t17 -42.5t-22 -47t-56 -44.5
t-107.5 -46.5t-156.5 -24q-211 0 -326.5 121.5t-115.5 372.5zM756 543q0 60 -12 109t-39.5 93.5t-81 69.5t-129.5 25q-131 0 -205.5 -79t-83.5 -218h551zM496 1083q-100 0 -166 51.5t-66 155.5q0 20 14.5 34.5t34.5 14.5t34.5 -14.5t14.5 -34.5q0 -112 134 -112
q133 0 133 112q0 20 14.5 34.5t34.5 14.5t34.5 -14.5t14.5 -34.5q0 -104 -65.5 -155.5t-165.5 -51.5z" />
    <glyph glyph-name="Edotaccent" unicode="&#x116;" 
d="M913 0h-680q-29 0 -49 20.5t-20 49.5v1239q0 29 20 49t49 20h658q26 0 44.5 -18.5t18.5 -44.5t-18.5 -45t-44.5 -19h-588v-493h451q26 0 44.5 -19t18.5 -45t-18.5 -44.5t-44.5 -18.5h-451v-504h610q26 0 45 -19t19 -45t-19 -44.5t-45 -18.5zM578 1507q-78 0 -78 80
q0 82 78 82q77 0 77 -82q0 -80 -77 -80z" />
    <glyph glyph-name="edotaccent" unicode="&#x117;" horiz-adv-x="954" 
d="M72 467q0 235 111 363t311 128q79 0 142.5 -19.5t105 -53.5t71 -74t44.5 -87t21.5 -86.5t6.5 -78.5q0 -30 -1.5 -46.5t-8.5 -39.5t-25 -34t-47 -11h-598q0 -153 82.5 -243.5t226.5 -90.5q80 0 136 23.5t110 64.5q20 13 37 13q25 0 42 -17.5t17 -42.5t-22 -47t-56 -44.5
t-107.5 -46.5t-156.5 -24q-211 0 -326.5 121.5t-115.5 372.5zM756 543q0 60 -12 109t-39.5 93.5t-81 69.5t-129.5 25q-131 0 -205.5 -79t-83.5 -218h551zM500 1114q-78 0 -78 80q0 82 78 82t78 -82q0 -80 -78 -80z" />
    <glyph glyph-name="Eogonek" unicode="&#x118;" 
d="M1016 -256q19 0 32 -13t13 -32q0 -25 -23 -39q-58 -35 -147 -35q-98 0 -154.5 45t-56.5 129q0 64 38.5 116t106.5 85h-592q-29 0 -49 20.5t-20 49.5v1239q0 29 20 49t49 20h658q26 0 44.5 -18.5t18.5 -44.5t-18.5 -45t-44.5 -19h-588v-493h451q26 0 44.5 -19t18.5 -45
t-18.5 -44.5t-44.5 -18.5h-451v-504h610q26 0 45 -19t19 -45q0 -41 -53 -65q-142 -66 -142 -170q0 -54 30.5 -81.5t82.5 -27.5q50 0 96 19q15 6 25 6z" />
    <glyph glyph-name="eogonek" unicode="&#x119;" horiz-adv-x="954" 
d="M776 -256q19 0 32 -13t13 -32q0 -26 -22 -39q-58 -35 -148 -35q-98 0 -154.5 45t-56.5 129q0 103 99 174h-25q-211 0 -326.5 121.5t-115.5 372.5q0 235 111 363t311 128q79 0 142.5 -19.5t105 -53.5t71 -74t44.5 -87t21.5 -86.5t6.5 -78.5q0 -30 -1.5 -46.5t-8.5 -39.5
t-25 -34t-47 -11h-598q0 -153 82.5 -243.5t226.5 -90.5q80 0 136 23.5t110 64.5q20 13 37 13q25 0 42 -17.5t17 -42.5t-22 -47q-25 -25 -79 -53t-98 -49.5t-79 -62.5t-35 -95t30.5 -81.5t81.5 -27.5t97 19q15 6 24 6zM756 543q0 60 -12 109t-39.5 93.5t-81 69.5t-129.5 25
q-131 0 -205.5 -79t-83.5 -218h551z" />
    <glyph glyph-name="Ecaron" unicode="&#x11a;" 
d="M913 0h-680q-29 0 -49 20.5t-20 49.5v1239q0 29 20 49t49 20h658q26 0 44.5 -18.5t18.5 -44.5t-18.5 -45t-44.5 -19h-588v-493h451q26 0 44.5 -19t18.5 -45t-18.5 -44.5t-44.5 -18.5h-451v-504h610q26 0 45 -19t19 -45t-19 -44.5t-45 -18.5zM592 1583l166 139
q13 13 33 13t34.5 -14.5t14.5 -34.5q0 -23 -19 -39l-196 -162q-16 -12 -33 -12t-33 12l-197 162q-18 15 -18 39q0 20 14.5 34.5t34.5 14.5t33 -13z" />
    <glyph glyph-name="ecaron" unicode="&#x11b;" horiz-adv-x="954" 
d="M72 467q0 235 111 363t311 128q79 0 142.5 -19.5t105 -53.5t71 -74t44.5 -87t21.5 -86.5t6.5 -78.5q0 -30 -1.5 -46.5t-8.5 -39.5t-25 -34t-47 -11h-598q0 -153 82.5 -243.5t226.5 -90.5q80 0 136 23.5t110 64.5q20 13 37 13q25 0 42 -17.5t17 -42.5t-22 -47t-56 -44.5
t-107.5 -46.5t-156.5 -24q-211 0 -326.5 121.5t-115.5 372.5zM756 543q0 60 -12 109t-39.5 93.5t-81 69.5t-129.5 25q-131 0 -205.5 -79t-83.5 -218h551zM496 1133l166 139q12 12 32 12t34.5 -14.5t14.5 -34.5q0 -24 -18 -39l-197 -162q-16 -12 -32 -12q-17 0 -33 12
l-197 162q-18 15 -18 39q0 20 14.5 34.5t34.5 14.5q21 0 33 -12z" />
    <glyph glyph-name="Gcircumflex" unicode="&#x11c;" horiz-adv-x="1357" 
d="M729 98q132 0 227.5 46.5t153.5 117.5v297h-342q-26 0 -44.5 19t-18.5 45t18.5 44.5t44.5 18.5h414q25 0 44 -18.5t19 -44.5v-359q0 -34 -26 -67q-87 -102 -203.5 -164t-286.5 -62q-308 0 -473.5 175t-165.5 542q0 357 167.5 538t471.5 181q145 0 266.5 -58t194.5 -159
q14 -20 14 -43q0 -28 -18.5 -47t-46.5 -19q-32 0 -54 27q-55 76 -149.5 124t-206.5 48q-240 0 -368 -148t-128 -444q0 -310 125.5 -450t370.5 -140zM897 1485l-166 139l-166 -139q-12 -12 -33 -12q-20 0 -34.5 14.5t-14.5 34.5q0 23 19 39l196 161q17 13 33 13t33 -13
l197 -161q18 -15 18 -39q0 -20 -14.5 -34.5t-34.5 -14.5q-21 0 -33 12z" />
    <glyph glyph-name="gcircumflex" unicode="&#x11d;" horiz-adv-x="978" 
d="M469 958q131 0 219 -51q30 54 70.5 82.5t111.5 28.5q25 0 42.5 -17.5t17.5 -42.5t-17.5 -42t-42.5 -17q-71 0 -98 -63q74 -90 74 -222q0 -158 -100 -251t-277 -93q-131 0 -221 52q-37 -29 -37 -74q0 -86 151 -86h211q159 0 259 -70.5t100 -208.5q0 -103 -59.5 -170.5
t-155.5 -96t-225 -28.5q-67 0 -127 8t-118 28.5t-99.5 52t-67 82.5t-25.5 116q0 69 41.5 123t114.5 84q-58 19 -92.5 63t-34.5 103q0 88 82 143q-74 92 -74 223q0 158 100 251t277 93zM469 389q116 0 180 61t64 164t-64 164.5t-180 61.5t-180 -61.5t-64 -164.5t64 -164
t180 -61zM799 -117q0 156 -226 156h-213q-87 -15 -129.5 -57.5t-42.5 -106.5q0 -60 44 -99.5t110 -56t152 -16.5q134 0 219.5 43.5t85.5 136.5zM637 1081l-166 140l-166 -140q-12 -12 -33 -12q-20 0 -34.5 14.5t-14.5 34.5q0 23 19 39l196 162q16 12 33 12t33 -12l196 -162
q19 -16 19 -39q0 -20 -14.5 -34.5t-34.5 -14.5q-21 0 -33 12z" />
    <glyph glyph-name="Gbreve" unicode="&#x11e;" horiz-adv-x="1357" 
d="M729 98q132 0 227.5 46.5t153.5 117.5v297h-342q-26 0 -44.5 19t-18.5 45t18.5 44.5t44.5 18.5h414q25 0 44 -18.5t19 -44.5v-359q0 -34 -26 -67q-87 -102 -203.5 -164t-286.5 -62q-308 0 -473.5 175t-165.5 542q0 357 167.5 538t471.5 181q145 0 266.5 -58t194.5 -159
q14 -20 14 -43q0 -28 -18.5 -47t-46.5 -19q-32 0 -54 27q-55 76 -149.5 124t-206.5 48q-240 0 -368 -148t-128 -444q0 -310 125.5 -450t370.5 -140zM713 1495q-100 0 -166 51.5t-66 155.5q0 20 14.5 34.5t34.5 14.5t35 -14.5t15 -34.5q0 -113 133 -113t133 113
q0 20 14.5 34.5t34.5 14.5t34.5 -14.5t14.5 -34.5q0 -104 -65.5 -155.5t-165.5 -51.5z" />
    <glyph glyph-name="gbreve" unicode="&#x11f;" horiz-adv-x="978" 
d="M469 958q131 0 219 -51q30 54 70.5 82.5t111.5 28.5q25 0 42.5 -17.5t17.5 -42.5t-17.5 -42t-42.5 -17q-71 0 -98 -63q74 -90 74 -222q0 -158 -100 -251t-277 -93q-131 0 -221 52q-37 -29 -37 -74q0 -86 151 -86h211q159 0 259 -70.5t100 -208.5q0 -103 -59.5 -170.5
t-155.5 -96t-225 -28.5q-67 0 -127 8t-118 28.5t-99.5 52t-67 82.5t-25.5 116q0 69 41.5 123t114.5 84q-58 19 -92.5 63t-34.5 103q0 88 82 143q-74 92 -74 223q0 158 100 251t277 93zM469 389q116 0 180 61t64 164t-64 164.5t-180 61.5t-180 -61.5t-64 -164.5t64 -164
t180 -61zM799 -117q0 156 -226 156h-213q-87 -15 -129.5 -57.5t-42.5 -106.5q0 -60 44 -99.5t110 -56t152 -16.5q134 0 219.5 43.5t85.5 136.5zM471 1083q-100 0 -165.5 51.5t-65.5 155.5q0 20 14.5 34.5t34.5 14.5t34.5 -14.5t14.5 -34.5q0 -112 133 -112t133 112
q0 20 14.5 34.5t34.5 14.5t34.5 -14.5t14.5 -34.5q0 -104 -65.5 -155.5t-165.5 -51.5z" />
    <glyph glyph-name="Gdotaccent" unicode="&#x120;" horiz-adv-x="1357" 
d="M729 98q132 0 227.5 46.5t153.5 117.5v297h-342q-26 0 -44.5 19t-18.5 45t18.5 44.5t44.5 18.5h414q25 0 44 -18.5t19 -44.5v-359q0 -34 -26 -67q-87 -102 -203.5 -164t-286.5 -62q-308 0 -473.5 175t-165.5 542q0 357 167.5 538t471.5 181q145 0 266.5 -58t194.5 -159
q14 -20 14 -43q0 -28 -18.5 -47t-46.5 -19q-32 0 -54 27q-55 76 -149.5 124t-206.5 48q-240 0 -368 -148t-128 -444q0 -310 125.5 -450t370.5 -140zM713 1507q-78 0 -78 80q0 82 78 82t78 -82q0 -80 -78 -80z" />
    <glyph glyph-name="gdotaccent" unicode="&#x121;" horiz-adv-x="978" 
d="M469 958q131 0 219 -51q30 54 70.5 82.5t111.5 28.5q25 0 42.5 -17.5t17.5 -42.5t-17.5 -42t-42.5 -17q-71 0 -98 -63q74 -90 74 -222q0 -158 -100 -251t-277 -93q-131 0 -221 52q-37 -29 -37 -74q0 -86 151 -86h211q159 0 259 -70.5t100 -208.5q0 -103 -59.5 -170.5
t-155.5 -96t-225 -28.5q-67 0 -127 8t-118 28.5t-99.5 52t-67 82.5t-25.5 116q0 69 41.5 123t114.5 84q-58 19 -92.5 63t-34.5 103q0 88 82 143q-74 92 -74 223q0 158 100 251t277 93zM469 389q116 0 180 61t64 164t-64 164.5t-180 61.5t-180 -61.5t-64 -164.5t64 -164
t180 -61zM799 -117q0 156 -226 156h-213q-87 -15 -129.5 -57.5t-42.5 -106.5q0 -60 44 -99.5t110 -56t152 -16.5q134 0 219.5 43.5t85.5 136.5zM475 1114q-78 0 -78 80q0 82 78 82t78 -82q0 -80 -78 -80z" />
    <glyph glyph-name="Gcommaaccent" unicode="&#x122;" horiz-adv-x="1357" 
d="M729 98q132 0 227.5 46.5t153.5 117.5v297h-342q-26 0 -44.5 19t-18.5 45t18.5 44.5t44.5 18.5h414q25 0 44 -18.5t19 -44.5v-359q0 -34 -26 -67q-87 -102 -203.5 -164t-286.5 -62q-308 0 -473.5 175t-165.5 542q0 357 167.5 538t471.5 181q145 0 266.5 -58t194.5 -159
q14 -20 14 -43q0 -28 -18.5 -47t-46.5 -19q-32 0 -54 27q-55 76 -149.5 124t-206.5 48q-240 0 -368 -148t-128 -444q0 -310 125.5 -450t370.5 -140zM827 -205q0 -99 -27.5 -167.5t-92.5 -133.5q-10 -10 -23 -10q-11 0 -19 7.5t-8 19.5q0 9 9 18q59 59 59 133q0 36 -37 81
t-37 83q0 43 22.5 65.5t63.5 22.5q90 0 90 -119z" />
    <glyph glyph-name="gcommaaccent" unicode="&#x123;" horiz-adv-x="978" 
d="M391 1159q0 105 31.5 184t99.5 150q12 12 27 12q12 0 21.5 -8.5t9.5 -21.5q0 -9 -7 -19q-59 -80 -59 -143q0 -38 37 -91t37 -96q0 -98 -96 -98q-101 0 -101 131zM469 958q131 0 219 -51q30 54 70.5 82.5t111.5 28.5q25 0 42.5 -17.5t17.5 -42.5t-17.5 -42t-42.5 -17
q-71 0 -98 -63q74 -90 74 -222q0 -158 -100 -251t-277 -93q-131 0 -221 52q-37 -29 -37 -74q0 -86 151 -86h211q159 0 259 -70.5t100 -208.5q0 -103 -59.5 -170.5t-155.5 -96t-225 -28.5q-67 0 -127 8t-118 28.5t-99.5 52t-67 82.5t-25.5 116q0 69 41.5 123t114.5 84
q-58 19 -92.5 63t-34.5 103q0 88 82 143q-74 92 -74 223q0 158 100 251t277 93zM469 389q116 0 180 61t64 164t-64 164.5t-180 61.5t-180 -61.5t-64 -164.5t64 -164t180 -61zM799 -117q0 156 -226 156h-213q-87 -15 -129.5 -57.5t-42.5 -106.5q0 -60 44 -99.5t110 -56
t152 -16.5q134 0 219.5 43.5t85.5 136.5z" />
    <glyph glyph-name="Hcircumflex" unicode="&#x124;" horiz-adv-x="1318" 
d="M1016 643h-713v-590q0 -28 -20.5 -48.5t-49.5 -20.5t-49 20.5t-20 48.5v1272q0 28 20 49t49 21t49.5 -21t20.5 -49v-555h713v555q0 28 20 49t49 21t49.5 -21t20.5 -49v-1272q0 -28 -20.5 -48.5t-49.5 -20.5t-49 20.5t-20 48.5v590zM829 1485l-165 139l-166 -139
q-12 -12 -33 -12q-20 0 -34.5 14.5t-14.5 34.5q0 24 18 39l197 161q17 13 33 13q15 0 32 -13l197 -161q18 -15 18 -39q0 -20 -14.5 -34.5t-34.5 -14.5q-21 0 -33 12z" />
    <glyph glyph-name="hcircumflex" unicode="&#x125;" horiz-adv-x="1026" 
d="M537 958q91 0 159.5 -21.5t109 -55.5t65.5 -83t33.5 -97t8.5 -105v-547q0 -28 -18.5 -46.5t-46.5 -18.5t-47 18.5t-19 46.5v520q0 65 -10.5 111.5t-37 85t-75.5 57.5t-122 19q-273 0 -273 -287v-506q0 -28 -18.5 -46.5t-46.5 -18.5t-47 18.5t-19 46.5v1344q0 28 19 46.5
t47 18.5t46.5 -18.5t18.5 -46.5v-578q31 62 104 102.5t169 40.5zM365 1485l-166 139l-166 -139q-12 -12 -33 -12q-20 0 -34.5 14.5t-14.5 34.5q0 24 18 39l197 161q17 13 33 13q15 0 32 -13l197 -161q18 -15 18 -39q0 -20 -14.5 -34.5t-34.5 -14.5t-32 12z" />
    <glyph glyph-name="Hbar" unicode="&#x126;" horiz-adv-x="1318" 
d="M1016 643h-713v-590q0 -28 -20.5 -48.5t-49.5 -20.5t-49 20.5t-20 48.5v895h-62q-22 0 -36.5 14.5t-14.5 36.5t14.5 37t36.5 15h62v274q0 28 20 49t49 21t49.5 -21t20.5 -49v-274h713v274q0 28 20 49t49 21t49.5 -21t20.5 -49v-274h62q22 0 36.5 -15t14.5 -37
t-14.5 -36.5t-36.5 -14.5h-62v-895q0 -28 -20.5 -48.5t-49.5 -20.5t-49 20.5t-20 48.5v590zM303 770h713v178h-713v-178z" />
    <glyph glyph-name="hbar" unicode="&#x127;" horiz-adv-x="1026" 
d="M537 958q91 0 159.5 -21.5t109 -55.5t65.5 -83t33.5 -97t8.5 -105v-547q0 -28 -18.5 -46.5t-46.5 -18.5t-47 18.5t-19 46.5v520q0 65 -10.5 111.5t-37 85t-75.5 57.5t-122 19q-273 0 -273 -287v-506q0 -28 -18.5 -46.5t-46.5 -18.5t-47 18.5t-19 46.5v1100h-59
q-22 0 -36.5 14.5t-14.5 36.5t14.5 36.5t36.5 14.5h59v142q0 28 19 46.5t47 18.5t46.5 -18.5t18.5 -46.5v-142h228q22 0 36.5 -14.5t14.5 -36.5t-14.5 -36.5t-36.5 -14.5h-228v-334q31 62 104 102.5t169 40.5z" />
    <glyph glyph-name="Itilde" unicode="&#x128;" horiz-adv-x="466" 
d="M303 1325v-1272q0 -28 -20.5 -48.5t-49.5 -20.5t-49 20.5t-20 48.5v1272q0 28 20 49t49 21t49.5 -21t20.5 -49zM115 1677q52 0 126.5 -40t114.5 -40q31 0 51.5 13.5t43.5 44.5q16 22 41 22q20 0 34.5 -14.5t14.5 -34.5q0 -12 -6 -24q-23 -45 -68.5 -76t-110.5 -31
q-53 0 -126.5 40t-114.5 40q-31 0 -51.5 -13t-43.5 -44q-17 -23 -40 -23q-20 0 -35 14.5t-15 34.5q0 11 7 25q23 45 68 75.5t110 30.5z" />
    <glyph glyph-name="itilde" unicode="&#x129;" horiz-adv-x="395" 
d="M74 1264q52 0 126.5 -40t114.5 -40q31 0 51.5 13t43.5 44q17 23 41 23q20 0 34.5 -15t14.5 -35q0 -12 -6 -24q-23 -45 -68.5 -76t-110.5 -31q-53 0 -126.5 40t-114.5 40q-31 0 -51 -13t-43 -44q-17 -23 -41 -23q-20 0 -35 15t-15 35q0 10 7 24q23 45 68 76t110 31z
M262 881v-832q0 -28 -18.5 -46.5t-46.5 -18.5t-47 18.5t-19 46.5v832q0 28 19 46.5t47 18.5t46.5 -18.5t18.5 -46.5z" />
    <glyph glyph-name="Imacron" unicode="&#x12a;" horiz-adv-x="466" 
d="M303 1325v-1272q0 -28 -20.5 -48.5t-49.5 -20.5t-49 20.5t-20 48.5v1272q0 28 20 49t49 21t49.5 -21t20.5 -49zM477 1552q0 -22 -14.5 -36.5t-36.5 -14.5h-381q-22 0 -36.5 14.5t-14.5 36.5t14.5 37t36.5 15h381q22 0 36.5 -15t14.5 -37z" />
    <glyph glyph-name="imacron" unicode="&#x12b;" horiz-adv-x="395" 
d="M438 1151q0 -22 -14.5 -36.5t-36.5 -14.5h-381q-22 0 -36.5 14.5t-14.5 36.5t14.5 36.5t36.5 14.5h381q22 0 36.5 -14.5t14.5 -36.5zM262 881v-832q0 -28 -18.5 -46.5t-46.5 -18.5t-47 18.5t-19 46.5v832q0 28 19 46.5t47 18.5t46.5 -18.5t18.5 -46.5z" />
    <glyph glyph-name="Ibreve" unicode="&#x12c;" horiz-adv-x="466" 
d="M303 1325v-1272q0 -28 -20.5 -48.5t-49.5 -20.5t-49 20.5t-20 48.5v1272q0 28 20 49t49 21t49.5 -21t20.5 -49zM233 1495q-100 0 -165.5 51.5t-65.5 155.5q0 20 14.5 34.5t34.5 14.5t34.5 -14.5t14.5 -34.5q0 -113 133 -113q134 0 134 113q0 20 14.5 34.5t34.5 14.5
t34.5 -14.5t14.5 -34.5q0 -104 -66 -155.5t-166 -51.5z" />
    <glyph glyph-name="ibreve" unicode="&#x12d;" horiz-adv-x="395" 
d="M197 1083q-100 0 -166 51.5t-66 155.5q0 20 14.5 34.5t34.5 14.5t34.5 -14.5t14.5 -34.5q0 -112 134 -112q133 0 133 112q0 20 14.5 34.5t34.5 14.5t34.5 -14.5t14.5 -34.5q0 -104 -65.5 -155.5t-165.5 -51.5zM262 881v-832q0 -28 -18.5 -46.5t-46.5 -18.5t-47 18.5
t-19 46.5v832q0 28 19 46.5t47 18.5t46.5 -18.5t18.5 -46.5z" />
    <glyph glyph-name="Iogonek" unicode="&#x12e;" horiz-adv-x="466" 
d="M379 -256q19 0 32 -13t13 -32q0 -25 -23 -39q-58 -35 -147 -35q-98 0 -154.5 45t-56.5 129q0 128 143 203q-22 19 -22 51v1272q0 28 20 49t49 21t49.5 -21t20.5 -49v-1272q0 -42 -37 -61q-121 -64 -121 -164q0 -54 30.5 -81.5t82.5 -27.5q50 0 96 19q15 6 25 6z" />
    <glyph glyph-name="iogonek" unicode="&#x12f;" horiz-adv-x="395" 
d="M344 -256q19 0 32 -13t13 -32q0 -26 -22 -39q-58 -35 -148 -35q-98 0 -154.5 45t-56.5 129q0 129 144 201q-21 21 -21 49v832q0 28 19 46.5t47 18.5t46.5 -18.5t18.5 -46.5v-832q0 -21 -8.5 -33.5t-28.5 -25.5q-55 -36 -84.5 -72t-29.5 -90t30.5 -81.5t81.5 -27.5
q50 0 96 19q15 6 25 6zM197 1139q-37 0 -57.5 20.5t-20.5 57.5q0 81 78 81q77 0 77 -81q0 -37 -20 -57.5t-57 -20.5z" />
    <glyph glyph-name="Idotaccent" unicode="&#x130;" horiz-adv-x="466" 
d="M303 1325v-1272q0 -28 -20.5 -48.5t-49.5 -20.5t-49 20.5t-20 48.5v1272q0 28 20 49t49 21t49.5 -21t20.5 -49zM236 1507q-78 0 -78 80q0 82 78 82q77 0 77 -82q0 -80 -77 -80z" />
    <glyph glyph-name="dotlessi" unicode="&#x131;" horiz-adv-x="395" 
d="M262 881v-832q0 -28 -18.5 -46.5t-46.5 -18.5t-47 18.5t-19 46.5v832q0 28 19 46.5t47 18.5t46.5 -18.5t18.5 -46.5z" />
    <glyph glyph-name="IJ" unicode="&#x132;" horiz-adv-x="1261" 
d="M303 1325v-1272q0 -28 -20.5 -48.5t-49.5 -20.5t-49 20.5t-20 48.5v1272q0 28 20 49t49 21t49.5 -21t20.5 -49zM487 20q-38 21 -38 62q0 28 19.5 48t47.5 20q12 0 41 -13q65 -33 152 -33q129 0 189 84t60 228v909q0 28 20.5 49t49.5 21t49.5 -21t20.5 -49v-909
q0 -97 -21 -175t-66 -139.5t-121.5 -95t-180.5 -33.5q-142 0 -222 47z" />
    <glyph glyph-name="ij" unicode="&#x133;" horiz-adv-x="774" 
d="M264 881v-832q0 -28 -18.5 -46.5t-46.5 -18.5t-47 18.5t-19 46.5v832q0 28 19 46.5t47 18.5t46.5 -18.5t18.5 -46.5zM199 1139q-37 0 -57.5 20.5t-20.5 57.5q0 81 78 81q77 0 77 -81q0 -37 -20 -57.5t-57 -20.5zM510 -72v953q0 28 18.5 46.5t46.5 18.5t47 -18.5t19 -46.5
v-953q0 -130 -85 -218.5t-214 -88.5q-26 0 -43.5 18t-17.5 44t17.5 43.5t43.5 17.5q73 0 120.5 53.5t47.5 130.5zM575 1139q-37 0 -57 20.5t-20 57.5q0 81 77 81q78 0 78 -81q0 -37 -20.5 -57.5t-57.5 -20.5z" />
    <glyph glyph-name="Jcircumflex" unicode="&#x134;" horiz-adv-x="845" 
d="M72 20q-39 22 -39 62q0 28 19.5 48t47.5 20q12 0 41 -13q65 -33 152 -33q129 0 189.5 84t60.5 228v909q0 28 20 49t49 21t49.5 -21t20.5 -49v-909q0 -97 -21 -175t-66 -139.5t-121.5 -95t-180.5 -33.5q-141 0 -221 47zM772 1485l-166 139l-166 -139q-12 -12 -32 -12
t-35 14.5t-15 34.5q0 23 19 39l196 161q17 13 33 13t33 -13l197 -161q18 -15 18 -39q0 -20 -14.5 -34.5t-34.5 -14.5q-21 0 -33 12z" />
    <glyph glyph-name="jcircumflex" unicode="&#x135;" horiz-adv-x="397" 
d="M133 -72v953q0 28 19 46.5t47 18.5t46.5 -18.5t18.5 -46.5v-953q0 -130 -85 -218.5t-214 -88.5q-26 0 -43.5 18t-17.5 44t17.5 43.5t43.5 17.5q73 0 120.5 53.5t47.5 130.5zM358 1081l-165 140l-166 -140q-12 -12 -33 -12q-20 0 -34.5 14.5t-14.5 34.5q0 24 18 39
l197 162q16 12 33 12q16 0 32 -12l197 -162q18 -15 18 -39q0 -20 -14.5 -34.5t-34.5 -14.5q-21 0 -33 12z" />
    <glyph glyph-name="Kcommaaccent" unicode="&#x136;" horiz-adv-x="1134" 
d="M303 686l596 682q22 27 55 27q29 0 50.5 -21.5t21.5 -50.5q0 -26 -20 -49l-428 -479l495 -699q14 -21 14 -43q0 -29 -20 -49t-49 -20q-37 0 -60 32l-475 676l-180 -203v-436q0 -29 -20.5 -49t-49.5 -20t-49 20t-20 49v1272q0 29 20 49.5t49 20.5t49.5 -20.5t20.5 -49.5
v-639zM696 -205q0 -99 -28 -167.5t-93 -133.5q-10 -10 -22 -10q-11 0 -19 7.5t-8 19.5q0 9 9 18q59 59 59 133q0 36 -37 81t-37 83q0 43 22.5 65.5t63.5 22.5q90 0 90 -119z" />
    <glyph glyph-name="kcommaaccent" unicode="&#x137;" horiz-adv-x="927" 
d="M809 -16q-33 0 -57 30l-363 465l-125 -100v-330q0 -28 -18.5 -46.5t-46.5 -18.5t-47 18.5t-19 46.5v1344q0 28 19 46.5t47 18.5t46.5 -18.5t18.5 -46.5v-858l484 395q18 16 45 16q28 0 46.5 -18.5t18.5 -46.5q0 -32 -27 -54l-335 -268l364 -469q14 -16 14 -41
q0 -28 -18.5 -46.5t-46.5 -18.5zM598 -205q0 -99 -28 -167.5t-93 -133.5q-10 -10 -22 -10q-11 0 -19 7.5t-8 19.5q0 10 8 18q60 60 60 133q0 36 -37 81t-37 83q0 43 22.5 65.5t63.5 22.5q90 0 90 -119z" />
    <glyph glyph-name="kgreenlandic" unicode="&#x138;" horiz-adv-x="927" 
d="M809 -16q-33 0 -57 30l-363 465l-125 -100v-330q0 -28 -18.5 -46.5t-46.5 -18.5t-47 18.5t-19 46.5v832q0 28 19 46.5t47 18.5t46.5 -18.5t18.5 -46.5v-346l484 395q18 16 45 16q28 0 46.5 -18.5t18.5 -46.5q0 -32 -27 -54l-335 -268l364 -469q14 -16 14 -41
q0 -28 -18.5 -46.5t-46.5 -18.5z" />
    <glyph glyph-name="Lacute" unicode="&#x139;" horiz-adv-x="989" 
d="M303 131h561q28 0 47 -18.5t19 -46.5t-19 -47t-47 -19h-631q-29 0 -49 20.5t-20 49.5v1255q0 29 20 49.5t49 20.5t49.5 -20.5t20.5 -49.5v-1194zM152 1483q-34 27 -7 61l183 221q13 17 32.5 18.5t45.5 -18.5q43 -40 6 -77l-199 -201q-29 -29 -61 -4z" />
    <glyph glyph-name="lacute" unicode="&#x13a;" horiz-adv-x="448" 
d="M199 1458q27 0 46 -19t19 -46v-1170q0 -117 82 -117q25 0 43.5 -17.5t18.5 -43.5t-18.5 -43.5t-43.5 -17.5q-103 0 -158 60.5t-55 178.5v1170q0 26 20 45.5t46 19.5zM104 1520q-33 26 -6 61l183 221q32 40 77 0q44 -41 7 -78l-199 -200q-30 -30 -62 -4z" />
    <glyph glyph-name="Lcommaaccent" unicode="&#x13b;" horiz-adv-x="989" 
d="M303 131h561q28 0 47 -18.5t19 -46.5t-19 -47t-47 -19h-631q-29 0 -49 20.5t-20 49.5v1255q0 29 20 49.5t49 20.5t49.5 -20.5t20.5 -49.5v-1194zM662 -205q0 -99 -28 -167.5t-93 -133.5q-10 -10 -23 -10q-11 0 -18.5 7.5t-7.5 19.5q0 10 8 18q59 59 59 133q0 36 -37 81
t-37 83q0 43 22.5 65.5t63.5 22.5q91 0 91 -119z" />
    <glyph glyph-name="lcommaaccent" unicode="&#x13c;" horiz-adv-x="448" 
d="M199 1458q27 0 46 -19t19 -46v-1170q0 -117 82 -117q25 0 43.5 -17.5t18.5 -43.5t-18.5 -43.5t-43.5 -17.5q-103 0 -158 60.5t-55 178.5v1170q0 26 20 45.5t46 19.5zM354 -205q0 -99 -28 -167.5t-93 -133.5q-10 -10 -22 -10q-11 0 -19 7.5t-8 19.5q0 9 9 18q59 59 59 133
q0 36 -37 81t-37 83q0 43 22.5 65.5t63.5 22.5q90 0 90 -119z" />
    <glyph glyph-name="Lcaron" unicode="&#x13d;" horiz-adv-x="989" 
d="M303 131h561q28 0 47 -18.5t19 -46.5t-19 -47t-47 -19h-631q-29 0 -49 20.5t-20 49.5v1255q0 29 20 49.5t49 20.5t49.5 -20.5t20.5 -49.5v-1194zM809 1264q0 -104 -39 -199.5t-108 -167.5q-12 -12 -27 -12q-12 0 -21.5 8.5t-9.5 21.5q0 10 6 19q41 57 58.5 96.5
t17.5 89.5q0 26 -11.5 48.5t-25.5 37t-25.5 38.5t-11.5 52q0 50 25.5 74.5t71.5 24.5q100 0 100 -131z" />
    <glyph glyph-name="lcaron" unicode="&#x13e;" horiz-adv-x="479" 
d="M199 1458q27 0 46 -19t19 -46v-1170q0 -117 82 -117q25 0 43.5 -17.5t18.5 -43.5t-18.5 -43.5t-43.5 -17.5q-103 0 -158 60.5t-55 178.5v1170q0 26 20 45.5t46 19.5zM555 1327q0 -104 -39 -199t-108 -167q-13 -13 -27 -13q-12 0 -21.5 9t-9.5 22q0 9 6 18q41 57 58.5 97
t17.5 90q0 26 -11.5 48.5t-25.5 37t-25.5 38.5t-11.5 52q0 98 97 98q100 0 100 -131z" />
    <glyph glyph-name="Ldot" unicode="&#x13f;" horiz-adv-x="989" 
d="M303 131h561q28 0 47 -18.5t19 -46.5t-19 -47t-47 -19h-631q-29 0 -49 20.5t-20 49.5v1255q0 29 20 49.5t49 20.5t49.5 -20.5t20.5 -49.5v-1194zM774 608q-96 0 -96 97q0 98 96 98t96 -98q0 -97 -96 -97z" />
    <glyph glyph-name="ldot" unicode="&#x140;" horiz-adv-x="571" 
d="M199 1458q27 0 46 -19t19 -46v-1170q0 -117 82 -117q25 0 43.5 -17.5t18.5 -43.5t-18.5 -43.5t-43.5 -17.5q-103 0 -158 60.5t-55 178.5v1170q0 26 20 45.5t46 19.5zM444 672q-96 0 -96 96q0 98 96 98q97 0 97 -98q0 -96 -97 -96z" />
    <glyph glyph-name="Lslash" unicode="&#x141;" horiz-adv-x="1030" 
d="M342 131h561q28 0 47 -18.5t19 -46.5t-19 -47t-47 -19h-631q-29 0 -49 20.5t-20 49.5v450l-92 -43q-12 -6 -27 -6q-25 0 -42 17t-17 42q0 40 36 56l142 65v674q0 29 20 49.5t49 20.5t49.5 -20.5t20.5 -49.5v-610l352 166q12 6 27 6q25 0 42 -17.5t17 -42.5
q0 -18 -10.5 -33.5t-26.5 -21.5l-401 -188v-453z" />
    <glyph glyph-name="lslash" unicode="&#x142;" horiz-adv-x="520" 
d="M199 1458q27 0 46 -19t19 -46v-537l160 92q12 6 25 6q22 0 38.5 -15.5t16.5 -39.5q0 -33 -29 -49l-211 -121v-506q0 -117 82 -117q25 0 43.5 -17.5t18.5 -43.5t-18.5 -43.5t-43.5 -17.5q-103 0 -158 60.5t-55 178.5v430l-49 -28q-15 -9 -29 -9q-22 0 -38.5 16t-16.5 40
q0 33 29 49l104 59v613q0 26 20 45.5t46 19.5z" />
    <glyph glyph-name="Nacute" unicode="&#x143;" horiz-adv-x="1269" 
d="M1059 1395q28 0 47.5 -20t19.5 -48v-1274q0 -29 -20 -49t-49 -20q-36 0 -58 28l-720 1088v-1049q0 -28 -20 -47.5t-48 -19.5t-48 19.5t-20 47.5v1276q0 28 20 48t48 20q34 0 55 -29l725 -1090v1051q0 28 20 48t48 20zM561 1481q-33 26 -6 61l182 221q13 17 32.5 18.5
t45.5 -18.5q43 -40 6 -77l-198 -201q-30 -30 -62 -4z" />
    <glyph glyph-name="nacute" unicode="&#x144;" horiz-adv-x="1026" 
d="M537 958q91 0 159.5 -21.5t109 -55.5t65.5 -83t33.5 -97t8.5 -105v-547q0 -28 -18.5 -46.5t-46.5 -18.5t-47 18.5t-19 46.5v520q0 65 -10.5 111.5t-37 85t-75.5 57.5t-122 19q-273 0 -273 -287v-506q0 -28 -18.5 -46.5t-46.5 -18.5t-47 18.5t-19 46.5v832q0 28 19 46.5
t47 18.5t46.5 -18.5t18.5 -46.5v-66q31 62 104 102.5t169 40.5zM401 1065q-33 26 -6 61l183 222q32 40 77 0q44 -41 7 -78l-199 -201q-30 -30 -62 -4z" />
    <glyph glyph-name="Ncommaaccent" unicode="&#x145;" horiz-adv-x="1269" 
d="M1059 1395q28 0 47.5 -20t19.5 -48v-1274q0 -29 -20 -49t-49 -20q-36 0 -58 28l-720 1088v-1049q0 -28 -20 -47.5t-48 -19.5t-48 19.5t-20 47.5v1276q0 28 20 48t48 20q34 0 55 -29l725 -1090v1051q0 28 20 48t48 20zM717 -205q0 -99 -28 -167.5t-93 -133.5
q-10 -10 -23 -10q-11 0 -18.5 7.5t-7.5 19.5q0 10 8 18q59 59 59 133q0 36 -36.5 81t-36.5 83q0 43 22.5 65.5t63.5 22.5q90 0 90 -119z" />
    <glyph glyph-name="ncommaaccent" unicode="&#x146;" horiz-adv-x="1026" 
d="M537 958q91 0 159.5 -21.5t109 -55.5t65.5 -83t33.5 -97t8.5 -105v-547q0 -28 -18.5 -46.5t-46.5 -18.5t-47 18.5t-19 46.5v520q0 65 -10.5 111.5t-37 85t-75.5 57.5t-122 19q-273 0 -273 -287v-506q0 -28 -18.5 -46.5t-46.5 -18.5t-47 18.5t-19 46.5v832q0 28 19 46.5
t47 18.5t46.5 -18.5t18.5 -46.5v-66q31 62 104 102.5t169 40.5zM621 -205q0 -99 -28 -167.5t-93 -133.5q-10 -10 -23 -10q-11 0 -18.5 7.5t-7.5 19.5q0 10 8 18q59 59 59 133q0 36 -37 81t-37 83q0 43 22.5 65.5t63.5 22.5q91 0 91 -119z" />
    <glyph glyph-name="Ncaron" unicode="&#x147;" horiz-adv-x="1269" 
d="M1059 1395q28 0 47.5 -20t19.5 -48v-1274q0 -29 -20 -49t-49 -20q-36 0 -58 28l-720 1088v-1049q0 -28 -20 -47.5t-48 -19.5t-48 19.5t-20 47.5v1276q0 28 20 48t48 20q34 0 55 -29l725 -1090v1051q0 28 20 48t48 20zM657 1583l166 139q13 13 33 13t34.5 -14.5
t14.5 -34.5q0 -24 -18 -39l-197 -162q-16 -12 -33 -12q-16 0 -32 12l-197 162q-18 15 -18 39q0 20 14.5 34.5t34.5 14.5t33 -13z" />
    <glyph glyph-name="ncaron" unicode="&#x148;" horiz-adv-x="1026" 
d="M537 958q91 0 159.5 -21.5t109 -55.5t65.5 -83t33.5 -97t8.5 -105v-547q0 -28 -18.5 -46.5t-46.5 -18.5t-47 18.5t-19 46.5v520q0 65 -10.5 111.5t-37 85t-75.5 57.5t-122 19q-273 0 -273 -287v-506q0 -28 -18.5 -46.5t-46.5 -18.5t-47 18.5t-19 46.5v832q0 28 19 46.5
t47 18.5t46.5 -18.5t18.5 -46.5v-66q31 62 104 102.5t169 40.5zM543 1133l166 139q12 12 32 12t35 -14.5t15 -34.5q0 -23 -19 -39l-197 -162q-16 -12 -32 -12q-17 0 -33 12l-197 162q-18 15 -18 39q0 20 14.5 34.5t34.5 14.5q21 0 33 -12z" />
    <glyph glyph-name="napostrophe" unicode="&#x149;" horiz-adv-x="1026" 
d="M537 958q91 0 159.5 -21.5t109 -55.5t65.5 -83t33.5 -97t8.5 -105v-547q0 -28 -18.5 -46.5t-46.5 -18.5t-47 18.5t-19 46.5v520q0 65 -10.5 111.5t-37 85t-75.5 57.5t-122 19q-273 0 -273 -287v-506q0 -28 -18.5 -46.5t-46.5 -18.5t-47 18.5t-19 46.5v832q0 28 19 46.5
t47 18.5t46.5 -18.5t18.5 -46.5v-66q31 62 104 102.5t169 40.5zM188 1264q0 -99 -27.5 -167.5t-92.5 -133.5q-11 -11 -23 -11q-11 0 -19 7.5t-8 19.5q0 9 9 18q59 59 59 133q0 36 -37 81t-37 83q0 43 22.5 65.5t63.5 22.5q90 0 90 -118z" />
    <glyph glyph-name="Eng" unicode="&#x14a;" horiz-adv-x="1269" 
d="M737 -281q128 0 190 83t64 223l-712 1075v-1049q0 -28 -20 -47.5t-48 -19.5t-48 19.5t-20 47.5v1276q0 28 20 48t48 20q34 0 55 -29l725 -1090v1051q0 28 20 48t48 20t47.5 -20t19.5 -48v-1296q0 -97 -21 -175t-66 -139.5t-121.5 -95t-180.5 -33.5q-28 0 -46.5 19
t-18.5 47t18.5 46.5t46.5 18.5z" />
    <glyph glyph-name="eng" unicode="&#x14b;" horiz-adv-x="1026" 
d="M782 -104v673q0 65 -10.5 111.5t-37 85t-75.5 57.5t-122 19q-273 0 -273 -287v-506q0 -28 -18.5 -46.5t-46.5 -18.5t-47 18.5t-19 46.5v832q0 28 19 46.5t47 18.5t46.5 -18.5t18.5 -46.5v-66q31 62 104 102.5t169 40.5q91 0 159.5 -21.5t109 -55.5t65.5 -83t33.5 -97
t8.5 -105v-700q0 -130 -85 -219t-214 -89q-26 0 -43.5 18t-17.5 44t17.5 43.5t43.5 17.5q73 0 120.5 53.5t47.5 131.5z" />
    <glyph glyph-name="Omacron" unicode="&#x14c;" horiz-adv-x="1458" 
d="M729 -29q304 0 471.5 181.5t167.5 535.5q0 357 -167.5 538t-471.5 181t-471.5 -181t-167.5 -538q0 -354 167.5 -535.5t471.5 -181.5zM729 1280q239 0 367.5 -148t128.5 -444q0 -294 -128.5 -442t-367.5 -148t-367.5 148t-128.5 442q0 296 128.5 444t367.5 148zM977 1552
q0 -22 -14.5 -36.5t-36.5 -14.5h-381q-22 0 -36.5 14.5t-14.5 36.5t14.5 37t36.5 15h381q22 0 36.5 -15t14.5 -37z" />
    <glyph glyph-name="omacron" unicode="&#x14d;" horiz-adv-x="1003" 
d="M502 958q205 0 317.5 -122.5t112.5 -368.5t-112.5 -370t-317.5 -124q-203 0 -316.5 124t-113.5 370t113 368.5t317 122.5zM502 92q297 0 297 375q0 373 -297 373t-297 -373q0 -375 297 -375zM743 1151q0 -22 -14.5 -36.5t-36.5 -14.5h-381q-22 0 -36.5 14.5t-14.5 36.5
t14.5 36.5t36.5 14.5h381q22 0 36.5 -14.5t14.5 -36.5z" />
    <glyph glyph-name="Obreve" unicode="&#x14e;" horiz-adv-x="1458" 
d="M729 -29q304 0 471.5 181.5t167.5 535.5q0 357 -167.5 538t-471.5 181t-471.5 -181t-167.5 -538q0 -354 167.5 -535.5t471.5 -181.5zM729 1280q239 0 367.5 -148t128.5 -444q0 -294 -128.5 -442t-367.5 -148t-367.5 148t-128.5 442q0 296 128.5 444t367.5 148zM733 1495
q-100 0 -165.5 51.5t-65.5 155.5q0 20 14.5 34.5t34.5 14.5t34.5 -14.5t14.5 -34.5q0 -113 133 -113t133 113q0 20 14.5 34.5t34.5 14.5t35 -14.5t15 -34.5q0 -104 -66 -155.5t-166 -51.5z" />
    <glyph glyph-name="obreve" unicode="&#x14f;" horiz-adv-x="1003" 
d="M502 958q205 0 317.5 -122.5t112.5 -368.5t-112.5 -370t-317.5 -124q-203 0 -316.5 124t-113.5 370t113 368.5t317 122.5zM502 92q297 0 297 375q0 373 -297 373t-297 -373q0 -375 297 -375zM500 1083q-100 0 -166 51.5t-66 155.5q0 20 14.5 34.5t34.5 14.5t35 -14.5
t15 -34.5q0 -112 133 -112t133 112q0 20 14.5 34.5t34.5 14.5t34.5 -14.5t14.5 -34.5q0 -104 -65.5 -155.5t-165.5 -51.5z" />
    <glyph glyph-name="Ohungarumlaut" unicode="&#x150;" horiz-adv-x="1458" 
d="M729 -29q304 0 471.5 181.5t167.5 535.5q0 357 -167.5 538t-471.5 181t-471.5 -181t-167.5 -538q0 -354 167.5 -535.5t471.5 -181.5zM729 1280q239 0 367.5 -148t128.5 -444q0 -294 -128.5 -442t-367.5 -148t-367.5 148t-128.5 442q0 296 128.5 444t367.5 148zM592 1481
q-33 26 -6 61l182 221q13 17 32.5 18.5t45.5 -18.5q43 -40 6 -77l-199 -201q-29 -29 -61 -4zM815 1481q-33 26 -6 61l182 221q13 17 32.5 18.5t45.5 -18.5q43 -40 6 -77l-198 -201q-30 -30 -62 -4z" />
    <glyph glyph-name="ohungarumlaut" unicode="&#x151;" horiz-adv-x="1003" 
d="M502 958q205 0 317.5 -122.5t112.5 -368.5t-112.5 -370t-317.5 -124q-203 0 -316.5 124t-113.5 370t113 368.5t317 122.5zM502 92q297 0 297 375q0 373 -297 373t-297 -373q0 -375 297 -375zM319 1065q-33 26 -6 61l183 222q32 40 77 0q44 -41 7 -78l-199 -201
q-30 -30 -62 -4zM543 1065q-33 26 -6 61l182 222q13 17 32.5 18.5t45.5 -18.5q43 -41 6 -78l-199 -201q-29 -29 -61 -4z" />
    <glyph glyph-name="OE" unicode="&#x152;" horiz-adv-x="1890" 
d="M1743 0h-680q-31 0 -51 23q-132 -52 -287 -52q-303 0 -469 181t-166 536q0 357 165.5 538t469.5 181q158 0 285 -53q21 24 53 24h657q26 0 45 -18.5t19 -44.5t-19 -45t-45 -19h-587v-493h450q26 0 45 -19t19 -45t-19 -44.5t-45 -18.5h-450v-504h610q26 0 44.5 -19
t18.5 -45t-18.5 -44.5t-44.5 -18.5zM725 1280q-239 0 -365.5 -148t-126.5 -444q0 -295 127 -442.5t365 -147.5q158 0 268 64v1052q-114 66 -268 66z" />
    <glyph glyph-name="oe" unicode="&#x153;" horiz-adv-x="1681" 
d="M502 958q258 0 364 -190q106 190 355 190q79 0 142.5 -19.5t105 -53.5t71 -74t44.5 -87t21.5 -86.5t6.5 -78.5q0 -30 -1.5 -46.5t-8.5 -39.5t-25 -34t-47 -11h-598q0 -153 82.5 -243.5t226.5 -90.5q80 0 136 23.5t110 64.5q19 13 37 13q25 0 42 -17.5t17 -42.5t-22 -47
t-56 -44.5t-107.5 -46.5t-156.5 -24q-269 0 -377 189q-107 -189 -362 -189q-203 0 -316.5 124t-113.5 370t113 368.5t317 122.5zM799 467q-8 373 -297 373q-297 0 -297 -373q0 -375 297 -375q141 0 217 90t80 285zM1483 543q0 60 -12 109t-39.5 93.5t-81 69.5t-129.5 25
q-131 0 -205.5 -79t-83.5 -218h551z" />
    <glyph glyph-name="Racute" unicode="&#x154;" horiz-adv-x="1118" 
d="M303 1251v-528h342q106 0 176 76.5t70 187.5q0 114 -71 189t-181 75h-336zM303 596v-543q0 -29 -20.5 -49t-49.5 -20t-49 20t-20 49v1256q0 29 20 49t49 20h408q169 0 280 -112.5t111 -278.5q0 -161 -101.5 -272.5t-264.5 -118.5l374 -500q15 -18 15 -43q0 -29 -20.5 -49
t-49.5 -20q-39 0 -59 32l-416 580h-207zM463 1483q-33 26 -6 61l182 221q13 17 32.5 18.5t45.5 -18.5q43 -40 6 -77l-199 -201q-29 -29 -61 -4z" />
    <glyph glyph-name="racute" unicode="&#x155;" horiz-adv-x="632" 
d="M264 881v-90q32 73 107 118t178 45q26 0 44.5 -18.5t18.5 -44.5t-18.5 -45t-44.5 -19q-137 0 -211 -87t-74 -232v-459q0 -28 -18.5 -46.5t-46.5 -18.5t-47 18.5t-19 46.5v832q0 28 19 46.5t47 18.5t46.5 -18.5t18.5 -46.5zM281 1065q-34 27 -7 61l183 222
q13 17 32.5 18.5t45.5 -18.5q43 -41 6 -78l-199 -201q-29 -29 -61 -4z" />
    <glyph glyph-name="Rcommaaccent" unicode="&#x156;" horiz-adv-x="1118" 
d="M303 1251v-528h342q106 0 176 76.5t70 187.5q0 114 -71 189t-181 75h-336zM303 596v-543q0 -29 -20.5 -49t-49.5 -20t-49 20t-20 49v1256q0 29 20 49t49 20h408q169 0 280 -112.5t111 -278.5q0 -161 -101.5 -272.5t-264.5 -118.5l374 -500q15 -18 15 -43q0 -29 -20.5 -49
t-49.5 -20q-39 0 -59 32l-416 580h-207zM678 -205q0 -99 -28 -167.5t-93 -133.5q-10 -10 -22 -10q-11 0 -19 7.5t-8 19.5q0 10 8 18q59 59 59 133q0 36 -36.5 81t-36.5 83q0 43 22.5 65.5t63.5 22.5q90 0 90 -119z" />
    <glyph glyph-name="rcommaaccent" unicode="&#x157;" horiz-adv-x="632" 
d="M264 881v-90q32 73 107 118t178 45q26 0 44.5 -18.5t18.5 -44.5t-18.5 -45t-44.5 -19q-137 0 -211 -87t-74 -232v-459q0 -28 -18.5 -46.5t-46.5 -18.5t-47 18.5t-19 46.5v832q0 28 19 46.5t47 18.5t46.5 -18.5t18.5 -46.5zM283 -205q0 -99 -28 -167.5t-93 -133.5
q-10 -10 -23 -10q-11 0 -18.5 7.5t-7.5 19.5q0 10 8 18q59 59 59 133q0 36 -37 81t-37 83q0 43 23 65.5t64 22.5q90 0 90 -119z" />
    <glyph glyph-name="Rcaron" unicode="&#x158;" horiz-adv-x="1118" 
d="M303 1251v-528h342q106 0 176 76.5t70 187.5q0 114 -71 189t-181 75h-336zM303 596v-543q0 -29 -20.5 -49t-49.5 -20t-49 20t-20 49v1256q0 29 20 49t49 20h408q169 0 280 -112.5t111 -278.5q0 -161 -101.5 -272.5t-264.5 -118.5l374 -500q15 -18 15 -43q0 -29 -20.5 -49
t-49.5 -20q-39 0 -59 32l-416 580h-207zM559 1583l166 139q13 13 33 13t34.5 -14.5t14.5 -34.5q0 -23 -19 -39l-196 -162q-16 -12 -33 -12t-33 12l-196 162q-19 16 -19 39q0 20 14.5 34.5t34.5 14.5t33 -13z" />
    <glyph glyph-name="rcaron" unicode="&#x159;" horiz-adv-x="632" 
d="M264 881v-90q32 73 107 118t178 45q26 0 44.5 -18.5t18.5 -44.5t-18.5 -45t-44.5 -19q-137 0 -211 -87t-74 -232v-459q0 -28 -18.5 -46.5t-46.5 -18.5t-47 18.5t-19 46.5v832q0 28 19 46.5t47 18.5t46.5 -18.5t18.5 -46.5zM344 1133l166 139q12 12 33 12q20 0 34.5 -14.5
t14.5 -34.5q0 -23 -19 -39l-196 -162q-16 -12 -33 -12t-33 12l-196 162q-19 16 -19 39q0 20 14.5 34.5t34.5 14.5q21 0 33 -12z" />
    <glyph glyph-name="Sacute" unicode="&#x15a;" horiz-adv-x="1142" 
d="M907 1118q-130 162 -332 162q-151 0 -223.5 -63t-72.5 -160q0 -54 26.5 -96.5t71.5 -71t103 -52t122 -45t128 -45t122 -56.5t103 -75t71.5 -105t26.5 -142q0 -192 -127.5 -295t-364.5 -103q-166 0 -293.5 72.5t-183.5 179.5q-10 20 -10 37q0 28 18.5 47t46.5 19
q38 0 58 -33q54 -87 145.5 -141t218.5 -54q170 0 261 68.5t91 202.5q0 61 -26.5 108t-71.5 77.5t-103 55t-122 45t-128 42t-122 52t-103 70t-71.5 100t-26.5 138.5q0 151 111.5 250.5t324.5 99.5q144 0 258.5 -56.5t180.5 -154.5q12 -18 12 -39q0 -28 -18.5 -46.5
t-46.5 -18.5q-33 0 -54 26zM516 1483q-33 26 -6 61l182 221q13 17 32.5 18.5t45.5 -18.5q43 -40 6 -77l-198 -201q-30 -30 -62 -4z" />
    <glyph glyph-name="sacute" unicode="&#x15b;" horiz-adv-x="868" 
d="M424 831q-79 0 -130.5 -28.5t-51.5 -93.5q0 -38 23 -68t61 -49t86.5 -38t98.5 -34.5t98.5 -40t86.5 -53t61 -75t23 -105.5q0 -90 -47 -152.5t-124 -90.5t-177 -28q-116 0 -210 45t-140 103q-14 20 -14 39q0 25 17 42t42 17t45 -20q101 -101 260 -101q96 0 156.5 35.5
t60.5 110.5q0 38 -23 67t-61 47t-86.5 36.5t-98.5 34t-98.5 40t-86.5 54t-61 77t-23 107.5q0 122 87.5 184.5t225.5 62.5q213 0 311 -131q15 -20 15 -39q0 -25 -17.5 -42t-42.5 -17t-43 18q-45 43 -96.5 64.5t-126.5 21.5zM344 1065q-33 26 -6 61l182 222q13 17 32.5 18.5
t45.5 -18.5q43 -41 6 -78l-198 -201q-30 -30 -62 -4z" />
    <glyph glyph-name="Scircumflex" unicode="&#x15c;" horiz-adv-x="1142" 
d="M907 1118q-130 162 -332 162q-151 0 -223.5 -63t-72.5 -160q0 -54 26.5 -96.5t71.5 -71t103 -52t122 -45t128 -45t122 -56.5t103 -75t71.5 -105t26.5 -142q0 -192 -127.5 -295t-364.5 -103q-166 0 -293.5 72.5t-183.5 179.5q-10 20 -10 37q0 28 18.5 47t46.5 19
q38 0 58 -33q54 -87 145.5 -141t218.5 -54q170 0 261 68.5t91 202.5q0 61 -26.5 108t-71.5 77.5t-103 55t-122 45t-128 42t-122 52t-103 70t-71.5 100t-26.5 138.5q0 151 111.5 250.5t324.5 99.5q144 0 258.5 -56.5t180.5 -154.5q12 -18 12 -39q0 -28 -18.5 -46.5
t-46.5 -18.5q-33 0 -54 26zM745 1485l-165 139l-166 -139q-12 -12 -33 -12q-20 0 -34.5 14.5t-14.5 34.5q0 24 18 39l197 161q17 13 33 13q15 0 32 -13l197 -161q18 -15 18 -39q0 -20 -14.5 -34.5t-34.5 -14.5q-21 0 -33 12z" />
    <glyph glyph-name="scircumflex" unicode="&#x15d;" horiz-adv-x="868" 
d="M424 831q-79 0 -130.5 -28.5t-51.5 -93.5q0 -38 23 -68t61 -49t86.5 -38t98.5 -34.5t98.5 -40t86.5 -53t61 -75t23 -105.5q0 -90 -47 -152.5t-124 -90.5t-177 -28q-116 0 -210 45t-140 103q-14 20 -14 39q0 25 17 42t42 17t45 -20q101 -101 260 -101q96 0 156.5 35.5
t60.5 110.5q0 38 -23 67t-61 47t-86.5 36.5t-98.5 34t-98.5 40t-86.5 54t-61 77t-23 107.5q0 122 87.5 184.5t225.5 62.5q213 0 311 -131q15 -20 15 -39q0 -25 -17.5 -42t-42.5 -17t-43 18q-45 43 -96.5 64.5t-126.5 21.5zM608 1081l-166 140l-166 -140q-12 -12 -32 -12
t-34.5 14.5t-14.5 34.5q0 24 18 39l197 162q16 12 32 12q17 0 33 -12l197 -162q18 -15 18 -39q0 -20 -14.5 -34.5t-34.5 -14.5q-21 0 -33 12z" />
    <glyph glyph-name="Scedilla" unicode="&#x15e;" horiz-adv-x="1142" 
d="M780 -285q0 -174 -198 -174q-76 0 -131 37q-17 12 -17 31q0 15 11 27t26 12q13 0 25 -6q42 -21 86 -21q58 0 83 19t25 75q0 51 -22.5 73t-67.5 22q-19 0 -46.5 -4.5t-37.5 -4.5q-16 0 -27 11t-10 34l4 129q-140 17 -245.5 85.5t-153.5 162.5q-10 20 -10 37q0 28 18.5 47
t46.5 19q38 0 58 -33q54 -87 145.5 -141t218.5 -54q170 0 261 68.5t91 202.5q0 61 -26.5 108t-71.5 77.5t-103 55t-122 45t-128 42t-122 52t-103 70t-71.5 100t-26.5 138.5q0 151 111.5 250.5t324.5 99.5q144 0 258.5 -56.5t180.5 -154.5q12 -18 12 -39q0 -28 -18.5 -46.5
t-46.5 -18.5q-33 0 -54 26q-130 162 -332 162q-151 0 -223.5 -63t-72.5 -160q0 -54 26.5 -96.5t71.5 -71t103 -52t122 -45t128 -45t122 -56.5t103 -75t71.5 -105t26.5 -142q0 -192 -128.5 -295t-369.5 -103l-8 -92q37 4 55 4q178 0 178 -168z" />
    <glyph glyph-name="scedilla" unicode="&#x15f;" horiz-adv-x="868" 
d="M639 -285q0 -174 -199 -174q-76 0 -131 37q-16 11 -16 31q0 15 11 27t26 12q12 0 24 -6q42 -21 86 -21q58 0 83.5 19t25.5 75q0 51 -22.5 73t-67.5 22q-19 0 -46.5 -4.5t-37.5 -4.5q-16 0 -27 11t-10 34l4 138q-86 14 -155 53.5t-105 85.5q-14 20 -14 39q0 25 17 42
t42 17t45 -20q101 -101 260 -101q96 0 156.5 35.5t60.5 110.5q0 38 -23 67t-61 47t-86.5 36.5t-98.5 34t-98.5 40t-86.5 54t-61 77t-23 107.5q0 122 87.5 184.5t225.5 62.5q213 0 311 -131q15 -20 15 -39q0 -25 -17.5 -42t-42.5 -17t-43 18q-45 43 -96.5 64.5t-126.5 21.5
q-79 0 -130.5 -28.5t-51.5 -93.5q0 -38 23 -68t61 -49t86.5 -38t98.5 -34.5t98.5 -40t86.5 -53t61 -75t23 -105.5q0 -135 -99.5 -203t-266.5 -68l-8 -96q37 4 55 4q178 0 178 -168z" />
    <glyph glyph-name="Scaron" unicode="&#x160;" horiz-adv-x="1142" 
d="M907 1118q-130 162 -332 162q-151 0 -223.5 -63t-72.5 -160q0 -54 26.5 -96.5t71.5 -71t103 -52t122 -45t128 -45t122 -56.5t103 -75t71.5 -105t26.5 -142q0 -192 -127.5 -295t-364.5 -103q-166 0 -293.5 72.5t-183.5 179.5q-10 20 -10 37q0 28 18.5 47t46.5 19
q38 0 58 -33q54 -87 145.5 -141t218.5 -54q170 0 261 68.5t91 202.5q0 61 -26.5 108t-71.5 77.5t-103 55t-122 45t-128 42t-122 52t-103 70t-71.5 100t-26.5 138.5q0 151 111.5 250.5t324.5 99.5q144 0 258.5 -56.5t180.5 -154.5q12 -18 12 -39q0 -28 -18.5 -46.5
t-46.5 -18.5q-33 0 -54 26zM586 1583l166 139q13 13 32 13q20 0 35 -14.5t15 -34.5q0 -23 -19 -39l-197 -162q-16 -12 -32 -12q-17 0 -33 12l-197 162q-18 15 -18 39q0 20 14.5 34.5t34.5 14.5t33 -13z" />
    <glyph glyph-name="scaron" unicode="&#x161;" horiz-adv-x="868" 
d="M424 831q-79 0 -130.5 -28.5t-51.5 -93.5q0 -38 23 -68t61 -49t86.5 -38t98.5 -34.5t98.5 -40t86.5 -53t61 -75t23 -105.5q0 -90 -47 -152.5t-124 -90.5t-177 -28q-116 0 -210 45t-140 103q-14 20 -14 39q0 25 17 42t42 17t45 -20q101 -101 260 -101q96 0 156.5 35.5
t60.5 110.5q0 38 -23 67t-61 47t-86.5 36.5t-98.5 34t-98.5 40t-86.5 54t-61 77t-23 107.5q0 122 87.5 184.5t225.5 62.5q213 0 311 -131q15 -20 15 -39q0 -25 -17.5 -42t-42.5 -17t-43 18q-45 43 -96.5 64.5t-126.5 21.5zM434 1133l166 139q12 12 33 12q20 0 34.5 -14.5
t14.5 -34.5q0 -24 -18 -39l-197 -162q-16 -12 -33 -12t-33 12l-196 162q-19 16 -19 39q0 20 15 34.5t35 14.5t32 -12z" />
    <glyph glyph-name="Tcommaaccent" unicode="&#x162;" horiz-adv-x="1101" 
d="M481 1247h-366q-28 0 -47 19t-19 47t19 46.5t47 18.5h870q28 0 47 -18.5t19 -46.5t-19 -47t-47 -19h-364v-1194q0 -29 -20.5 -49t-49.5 -20t-49.5 20t-20.5 49v1194zM639 -205q0 -99 -28 -167.5t-93 -133.5q-10 -10 -22 -10q-11 0 -19 7.5t-8 19.5q0 10 8 18
q60 60 60 133q0 36 -37 81t-37 83q0 43 22.5 65.5t63.5 22.5q90 0 90 -119z" />
    <glyph glyph-name="tcommaaccent" unicode="&#x163;" horiz-adv-x="571" 
d="M184 930v215q0 26 20 45.5t46 19.5q27 0 46 -19t19 -46v-215h134q26 0 43.5 -18t17.5 -44t-17.5 -43.5t-43.5 -17.5h-134v-565q0 -65 32.5 -100.5t86.5 -35.5q27 0 45.5 -17.5t18.5 -43.5t-18.5 -43.5t-45.5 -17.5q-119 0 -184.5 71t-65.5 187v565h-80q-26 0 -43.5 17.5
t-17.5 43.5t17.5 44t43.5 18h80zM416 -205q0 -99 -28 -167.5t-93 -133.5q-10 -10 -23 -10q-11 0 -18.5 7.5t-7.5 19.5q0 10 8 18q59 59 59 133q0 36 -36.5 81t-36.5 83q0 43 22.5 65.5t63.5 22.5q90 0 90 -119z" />
    <glyph glyph-name="Tcaron" unicode="&#x164;" horiz-adv-x="1101" 
d="M481 1247h-366q-28 0 -47 19t-19 47t19 46.5t47 18.5h870q28 0 47 -18.5t19 -46.5t-19 -47t-47 -19h-364v-1194q0 -29 -20.5 -49t-49.5 -20t-49.5 20t-20.5 49v1194zM553 1583l166 139q13 13 33 13t34.5 -14.5t14.5 -34.5q0 -23 -19 -39l-196 -162q-16 -12 -33 -12
t-33 12l-196 162q-19 16 -19 39q0 20 14.5 34.5t34.5 14.5t33 -13z" />
    <glyph glyph-name="tcaron" unicode="&#x165;" horiz-adv-x="571" 
d="M184 930v215q0 26 20 45.5t46 19.5q27 0 46 -19t19 -46v-215h134q26 0 43.5 -18t17.5 -44t-17.5 -43.5t-43.5 -17.5h-134v-565q0 -65 32.5 -100.5t86.5 -35.5q27 0 45.5 -17.5t18.5 -43.5t-18.5 -43.5t-45.5 -17.5q-119 0 -184.5 71t-65.5 187v565h-80q-26 0 -43.5 17.5
t-17.5 43.5t17.5 44t43.5 18h80zM649 1376q0 -104 -39 -199t-108 -167q-13 -13 -27 -13q-12 0 -21.5 9t-9.5 22q0 8 7 19q41 56 58 95.5t17 90.5q0 32 -18 58.5t-36.5 54.5t-18.5 63q0 98 96 98q100 0 100 -131z" />
    <glyph glyph-name="Tbar" unicode="&#x166;" horiz-adv-x="1101" 
d="M481 1247h-366q-28 0 -47 19t-19 47t19 46.5t47 18.5h870q28 0 47 -18.5t19 -46.5t-19 -47t-47 -19h-364v-497h165q22 0 37 -15t15 -37t-15 -36.5t-37 -14.5h-165v-594q0 -29 -20.5 -49t-49.5 -20t-49.5 20t-20.5 49v594h-178q-22 0 -36.5 14.5t-14.5 36.5t14.5 37
t36.5 15h178v497z" />
    <glyph glyph-name="tbar" unicode="&#x167;" horiz-adv-x="571" 
d="M510 614q0 -22 -14.5 -36.5t-36.5 -14.5h-144v-321q0 -65 32.5 -100.5t86.5 -35.5q27 0 45.5 -17.5t18.5 -43.5t-18.5 -43.5t-45.5 -17.5q-119 0 -184.5 71t-65.5 187v321h-90q-22 0 -36.5 14.5t-14.5 36.5t14.5 37t36.5 15h90v141h-80q-26 0 -43.5 17.5t-17.5 43.5
t17.5 44t43.5 18h80v215q0 26 20 45.5t46 19.5q27 0 46 -19t19 -46v-215h134q26 0 43.5 -18t17.5 -44t-17.5 -43.5t-43.5 -17.5h-134v-141h144q22 0 36.5 -15t14.5 -37z" />
    <glyph glyph-name="Utilde" unicode="&#x168;" horiz-adv-x="1280" 
d="M647 -29q-112 0 -198 25.5t-138.5 67t-86 101.5t-46 121.5t-12.5 133.5v905q0 29 20.5 49.5t49.5 20.5t49 -20.5t20 -49.5v-905q0 -53 8 -96t31 -85.5t60 -71.5t99 -47t144 -18t143 18t98 47t60 71.5t31 85.5t8 96v905q0 29 20.5 49.5t49.5 20.5t49 -20.5t20 -49.5v-905
q0 -449 -479 -449zM539 1677q52 0 126.5 -40t114.5 -40q31 0 51 13.5t43 44.5q16 22 41 22q20 0 35 -14.5t15 -34.5q0 -10 -7 -24q-23 -45 -68 -76t-110 -31q-53 0 -126.5 40t-114.5 40q-31 0 -51.5 -13t-43.5 -44q-17 -23 -41 -23q-20 0 -34.5 14.5t-14.5 34.5q0 13 6 25
q23 45 68.5 75.5t110.5 30.5z" />
    <glyph glyph-name="utilde" unicode="&#x169;" horiz-adv-x="995" 
d="M178 946q27 0 46.5 -19t19.5 -46v-535q0 -54 10.5 -95.5t36.5 -77.5t77 -55.5t126 -19.5t126 19.5t76.5 55.5t36 77t10.5 96v535q0 27 20 46t48 19q26 0 44.5 -18.5t18.5 -46.5v-535q0 -63 -9 -114t-34 -101t-66 -83.5t-110 -54t-161 -20.5t-160.5 20.5t-110 54t-67 83.5
t-34.5 101t-9 114v535q0 28 18.5 46.5t46.5 18.5zM387 1264q52 0 127 -40t115 -40q31 0 51 13t43 44q17 23 41 23q20 0 34.5 -15t14.5 -35q0 -12 -6 -24q-23 -45 -68 -76t-110 -31q-53 0 -127 40t-115 40q-31 0 -51 -13t-43 -44q-17 -23 -41 -23q-20 0 -34.5 15t-14.5 35
q0 12 6 24q23 45 68 76t110 31z" />
    <glyph glyph-name="Umacron" unicode="&#x16a;" horiz-adv-x="1277" 
d="M645 -29q-112 0 -198 25.5t-138.5 67t-86 101.5t-46 121.5t-12.5 133.5v905q0 29 20 49.5t49 20.5t49.5 -20.5t20.5 -49.5v-905q0 -53 8 -96t31 -85.5t60 -71.5t99 -47t144 -18t143 18t98 47t60 71.5t31 85.5t8 96v905q0 29 20.5 49.5t49.5 20.5t49 -20.5t20 -49.5v-905
q0 -449 -479 -449zM897 1552q0 -22 -14.5 -36.5t-36.5 -14.5h-381q-22 0 -36.5 14.5t-14.5 36.5t14.5 37t36.5 15h381q22 0 36.5 -15t14.5 -37z" />
    <glyph glyph-name="umacron" unicode="&#x16b;" horiz-adv-x="995" 
d="M178 946q27 0 46.5 -19t19.5 -46v-535q0 -54 10.5 -95.5t36.5 -77.5t77 -55.5t126 -19.5t126 19.5t76.5 55.5t36 77t10.5 96v535q0 27 20 46t48 19q26 0 44.5 -18.5t18.5 -46.5v-535q0 -63 -9 -114t-34 -101t-66 -83.5t-110 -54t-161 -20.5t-160.5 20.5t-110 54t-67 83.5
t-34.5 101t-9 114v535q0 28 18.5 46.5t46.5 18.5zM752 1151q0 -22 -15 -36.5t-37 -14.5h-381q-22 0 -36.5 14.5t-14.5 36.5t14.5 36.5t36.5 14.5h381q22 0 37 -14.5t15 -36.5z" />
    <glyph glyph-name="Ubreve" unicode="&#x16c;" horiz-adv-x="1277" 
d="M645 -29q-112 0 -198 25.5t-138.5 67t-86 101.5t-46 121.5t-12.5 133.5v905q0 29 20 49.5t49 20.5t49.5 -20.5t20.5 -49.5v-905q0 -53 8 -96t31 -85.5t60 -71.5t99 -47t144 -18t143 18t98 47t60 71.5t31 85.5t8 96v905q0 29 20.5 49.5t49.5 20.5t49 -20.5t20 -49.5v-905
q0 -449 -479 -449zM647 1495q-100 0 -165.5 51.5t-65.5 155.5q0 20 14.5 34.5t34.5 14.5t34.5 -14.5t14.5 -34.5q0 -113 133 -113t133 113q0 20 14.5 34.5t34.5 14.5t35 -14.5t15 -34.5q0 -104 -66 -155.5t-166 -51.5z" />
    <glyph glyph-name="ubreve" unicode="&#x16d;" horiz-adv-x="995" 
d="M178 946q27 0 46.5 -19t19.5 -46v-535q0 -54 10.5 -95.5t36.5 -77.5t77 -55.5t126 -19.5t126 19.5t76.5 55.5t36 77t10.5 96v535q0 27 20 46t48 19q26 0 44.5 -18.5t18.5 -46.5v-535q0 -63 -9 -114t-34 -101t-66 -83.5t-110 -54t-161 -20.5t-160.5 20.5t-110 54t-67 83.5
t-34.5 101t-9 114v535q0 28 18.5 46.5t46.5 18.5zM494 1083q-100 0 -166 51.5t-66 155.5q0 20 14.5 34.5t34.5 14.5t34.5 -14.5t14.5 -34.5q0 -112 134 -112q133 0 133 112q0 20 14.5 34.5t34.5 14.5t34.5 -14.5t14.5 -34.5q0 -104 -65.5 -155.5t-165.5 -51.5z" />
    <glyph glyph-name="Uring" unicode="&#x16e;" horiz-adv-x="1277" 
d="M645 -29q-112 0 -198 25.5t-138.5 67t-86 101.5t-46 121.5t-12.5 133.5v905q0 29 20 49.5t49 20.5t49.5 -20.5t20.5 -49.5v-905q0 -53 8 -96t31 -85.5t60 -71.5t99 -47t144 -18t143 18t98 47t60 71.5t31 85.5t8 96v905q0 29 20.5 49.5t49.5 20.5t49 -20.5t20 -49.5v-905
q0 -449 -479 -449zM659 1440q-107 0 -160 52t-53 148t53.5 148.5t159.5 52.5t159.5 -52.5t53.5 -148.5t-53 -148t-160 -52zM659 1763q-69 0 -98 -30t-29 -93q0 -62 29 -92t98 -30t98 30t29 92q0 63 -29 93t-98 30z" />
    <glyph glyph-name="uring" unicode="&#x16f;" horiz-adv-x="995" 
d="M178 946q27 0 46.5 -19t19.5 -46v-535q0 -54 10.5 -95.5t36.5 -77.5t77 -55.5t126 -19.5t126 19.5t76.5 55.5t36 77t10.5 96v535q0 27 20 46t48 19q26 0 44.5 -18.5t18.5 -46.5v-535q0 -63 -9 -114t-34 -101t-66 -83.5t-110 -54t-161 -20.5t-160.5 20.5t-110 54t-67 83.5
t-34.5 101t-9 114v535q0 28 18.5 46.5t46.5 18.5zM502 1028q-106 0 -159.5 52.5t-53.5 148.5t53.5 148.5t159.5 52.5t159.5 -52.5t53.5 -148.5t-53.5 -148.5t-159.5 -52.5zM502 1352q-69 0 -98 -30t-29 -93q0 -62 29.5 -92.5t97.5 -30.5t97.5 30.5t29.5 92.5q0 63 -29 93
t-98 30z" />
    <glyph glyph-name="Uhungarumlaut" unicode="&#x170;" horiz-adv-x="1277" 
d="M635 -29q-112 0 -198 25.5t-138.5 67t-86 101.5t-46 121.5t-12.5 133.5v905q0 29 20 49.5t49 20.5t49.5 -20.5t20.5 -49.5v-905q0 -53 8 -96t31 -85.5t60 -71.5t99 -47t144 -18t143 18t98 47t60 71.5t31 85.5t8 96v905q0 29 20 49.5t49 20.5t49.5 -20.5t20.5 -49.5v-905
q0 -449 -479 -449zM455 1483q-33 26 -6 61l182 221q13 17 32.5 18.5t45.5 -18.5q43 -40 6 -77l-199 -201q-29 -29 -61 -4zM678 1483q-33 26 -6 61l182 221q13 17 32.5 18.5t45.5 -18.5q43 -40 6 -77l-199 -201q-29 -29 -61 -4z" />
    <glyph glyph-name="uhungarumlaut" unicode="&#x171;" horiz-adv-x="995" 
d="M178 946q27 0 46.5 -19t19.5 -46v-535q0 -54 10.5 -95.5t36.5 -77.5t77 -55.5t126 -19.5t126 19.5t76.5 55.5t36 77t10.5 96v535q0 27 20 46t48 19q26 0 44.5 -18.5t18.5 -46.5v-535q0 -63 -9 -114t-34 -101t-66 -83.5t-110 -54t-161 -20.5t-160.5 20.5t-110 54t-67 83.5
t-34.5 101t-9 114v535q0 28 18.5 46.5t46.5 18.5zM319 1065q-33 26 -6 61l183 222q32 40 77 0q44 -41 7 -78l-199 -201q-30 -30 -62 -4zM543 1065q-33 26 -6 61l182 222q13 17 32.5 18.5t45.5 -18.5q43 -41 6 -78l-199 -201q-29 -29 -61 -4z" />
    <glyph glyph-name="Uogonek" unicode="&#x172;" horiz-adv-x="1277" 
d="M950 -256q19 0 32 -13t13 -32q0 -26 -22 -39q-58 -35 -148 -35q-98 0 -154.5 45t-56.5 129q0 105 99 176q-37 -4 -68 -4q-112 0 -198 25.5t-138.5 67t-86 101.5t-46 121.5t-12.5 133.5v905q0 29 20 49.5t49 20.5t49.5 -20.5t20.5 -49.5v-905q0 -53 8 -96t31 -85.5
t60 -71.5t99 -47t144 -18t143 18t98 47t60 71.5t31 85.5t8 96v905q0 29 20.5 49.5t49.5 20.5t49 -20.5t20 -49.5v-905q0 -334 -270 -420q-54 -23 -95.5 -69t-41.5 -103q0 -54 30.5 -81.5t81.5 -27.5t97 19q15 6 24 6z" />
    <glyph glyph-name="uogonek" unicode="&#x173;" horiz-adv-x="987" 
d="M768 -256q19 0 32 -13t13 -32q0 -26 -22 -39q-58 -35 -148 -35q-98 0 -154.5 45t-56.5 129q0 102 103 176q-18 -2 -41 -2q-92 0 -160.5 20.5t-110 54t-67 83.5t-34.5 101t-9 114v535q0 28 18.5 46.5t46.5 18.5q27 0 46.5 -19t19.5 -46v-535q0 -54 10.5 -95.5t36.5 -77.5
t77 -55.5t126 -19.5t126 19.5t76.5 55.5t36 77t10.5 96v535q0 27 20 46t48 19q26 0 44.5 -18.5t18.5 -46.5v-535q0 -62 -9 -112t-30.5 -97.5t-62.5 -82.5t-100 -54q-55 -23 -96 -69t-41 -103q0 -54 30.5 -81.5t81.5 -27.5q50 0 96 19q15 6 25 6z" />
    <glyph glyph-name="Wcircumflex" unicode="&#x174;" horiz-adv-x="1675" 
d="M1133 37l-295 1042l-295 -1042q-6 -25 -24.5 -39t-43.5 -14q-24 0 -42.5 14t-24.5 37l-363 1265q-4 16 -4 25q0 29 20.5 49.5t49.5 20.5q27 0 44.5 -16t22.5 -36l299 -1058l293 1058q6 24 25 38t43 14t42.5 -14t24.5 -38l293 -1058l299 1058q5 20 23 36t45 16
q29 0 49 -20.5t20 -49.5q0 -9 -4 -25l-362 -1265q-6 -23 -25 -37t-43 -14q-25 0 -43 14t-24 39zM1004 1485l-166 139l-166 -139q-12 -12 -33 -12q-20 0 -34.5 14.5t-14.5 34.5q0 24 18 39l197 161q17 13 33 13q15 0 32 -13l197 -161q18 -15 18 -39q0 -20 -14.5 -34.5
t-34.5 -14.5t-32 12z" />
    <glyph glyph-name="wcircumflex" unicode="&#x175;" horiz-adv-x="1310" 
d="M844 31l-189 649l-188 -649q-6 -21 -24 -34t-40 -13q-45 0 -61 43l-301 825q-6 15 -6 29q0 28 18.5 46.5t46.5 18.5q46 0 62 -43l237 -678l195 678q5 17 21 30t40 13t40.5 -13t21.5 -30l194 -678l238 678q16 43 61 43q28 0 47 -18.5t19 -46.5q0 -14 -6 -29l-301 -825
q-16 -43 -62 -43q-22 0 -39.5 13t-23.5 34zM821 1081l-166 140l-166 -140q-12 -12 -32 -12t-34.5 14.5t-14.5 34.5q0 24 18 39l197 162q16 12 32 12q17 0 33 -12l197 -162q18 -15 18 -39q0 -20 -14.5 -34.5t-34.5 -14.5q-21 0 -33 12z" />
    <glyph glyph-name="Ycircumflex" unicode="&#x176;" 
d="M530 -16q-29 0 -49 20t-20 49v588l-412 647q-10 17 -10 37q0 29 20.5 49.5t49.5 20.5q39 0 59 -33l362 -582l363 582q20 33 59 33q29 0 49.5 -20.5t20.5 -49.5q0 -20 -10 -37l-412 -647v-588q0 -29 -20.5 -49t-49.5 -20zM696 1485l-166 139l-165 -139q-12 -12 -33 -12
q-20 0 -34.5 14.5t-14.5 34.5q0 24 18 39l197 161q17 13 32 13q16 0 33 -13l197 -161q18 -15 18 -39q0 -20 -14.5 -34.5t-34.5 -14.5q-21 0 -33 12z" />
    <glyph glyph-name="ycircumflex" unicode="&#x177;" horiz-adv-x="897" 
d="M72 -289q52 0 92.5 16.5t66.5 35.5t55.5 71t44 84t47.5 114q1 2 1.5 3.5t1.5 3.5l-342 813q-6 18 -6 29q0 28 18.5 46.5t46.5 18.5q45 0 62 -43l289 -706l288 706q17 43 62 43q28 0 46.5 -18.5t18.5 -46.5q0 -11 -6 -29l-403 -961q-65 -157 -153 -230t-230 -73
q-26 0 -44 18t-18 44t18 43.5t44 17.5zM614 1081l-165 140l-166 -140q-12 -12 -33 -12q-20 0 -34.5 14.5t-14.5 34.5q0 24 18 39l197 162q16 12 33 12q16 0 32 -12l197 -162q18 -15 18 -39q0 -20 -14.5 -34.5t-34.5 -14.5q-21 0 -33 12z" />
    <glyph glyph-name="Ydieresis" unicode="&#x178;" 
d="M530 -16q-29 0 -49 20t-20 49v588l-412 647q-10 17 -10 37q0 29 20.5 49.5t49.5 20.5q39 0 59 -33l362 -582l363 582q20 33 59 33q29 0 49.5 -20.5t20.5 -49.5q0 -20 -10 -37l-412 -647v-588q0 -29 -20.5 -49t-49.5 -20zM369 1518q-74 0 -74 75q0 78 74 78q73 0 73 -78
q0 -75 -73 -75zM690 1518q-74 0 -74 75q0 78 74 78t74 -78q0 -75 -74 -75z" />
    <glyph glyph-name="Zacute" unicode="&#x179;" horiz-adv-x="1050" 
d="M961 0h-861q-28 0 -46.5 19t-18.5 47q0 20 12 38l762 1143h-666q-28 0 -46.5 19t-18.5 47t18.5 46.5t46.5 18.5h787q28 0 46.5 -18.5t18.5 -46.5q0 -21 -12 -39l-756 -1143h734q28 0 46.5 -18.5t18.5 -46.5t-18.5 -47t-46.5 -19zM453 1483q-34 27 -7 61l183 221
q13 17 32.5 18.5t45.5 -18.5q43 -40 6 -77l-199 -201q-29 -29 -61 -4z" />
    <glyph glyph-name="zacute" unicode="&#x17a;" horiz-adv-x="829" 
d="M78 868q0 26 17.5 44t43.5 18h561q26 0 44 -18t18 -44q0 -22 -14 -41l-510 -700h473q26 0 44.5 -19t18.5 -45t-18.5 -44.5t-44.5 -18.5h-600q-26 0 -44 17.5t-18 43.5q0 23 14 41l517 705h-441q-26 0 -43.5 17.5t-17.5 43.5zM309 1065q-33 26 -6 61l182 222
q13 17 32.5 18.5t45.5 -18.5q43 -41 6 -78l-198 -201q-30 -30 -62 -4z" />
    <glyph glyph-name="Zdotaccent" unicode="&#x17b;" horiz-adv-x="1050" 
d="M961 0h-861q-28 0 -46.5 19t-18.5 47q0 20 12 38l762 1143h-666q-28 0 -46.5 19t-18.5 47t18.5 46.5t46.5 18.5h787q28 0 46.5 -18.5t18.5 -46.5q0 -21 -12 -39l-756 -1143h734q28 0 46.5 -18.5t18.5 -46.5t-18.5 -47t-46.5 -19zM532 1507q-77 0 -77 80q0 82 77 82
q78 0 78 -82q0 -80 -78 -80z" />
    <glyph glyph-name="zdotaccent" unicode="&#x17c;" horiz-adv-x="829" 
d="M78 868q0 26 17.5 44t43.5 18h561q26 0 44 -18t18 -44q0 -22 -14 -41l-510 -700h473q26 0 44.5 -19t18.5 -45t-18.5 -44.5t-44.5 -18.5h-600q-26 0 -44 17.5t-18 43.5q0 23 14 41l517 705h-441q-26 0 -43.5 17.5t-17.5 43.5zM428 1114q-78 0 -78 80q0 82 78 82t78 -82
q0 -80 -78 -80z" />
    <glyph glyph-name="Zcaron" unicode="&#x17d;" horiz-adv-x="1050" 
d="M961 0h-861q-28 0 -46.5 19t-18.5 47q0 20 12 38l762 1143h-666q-28 0 -46.5 19t-18.5 47t18.5 46.5t46.5 18.5h787q28 0 46.5 -18.5t18.5 -46.5q0 -21 -12 -39l-756 -1143h734q28 0 46.5 -18.5t18.5 -46.5t-18.5 -47t-46.5 -19zM553 1583l166 139q13 13 33 13
t34.5 -14.5t14.5 -34.5q0 -23 -19 -39l-196 -162q-16 -12 -33 -12t-33 12l-196 162q-19 16 -19 39q0 20 14.5 34.5t34.5 14.5t33 -13z" />
    <glyph glyph-name="zcaron" unicode="&#x17e;" horiz-adv-x="829" 
d="M78 868q0 26 17.5 44t43.5 18h561q26 0 44 -18t18 -44q0 -22 -14 -41l-510 -700h473q26 0 44.5 -19t18.5 -45t-18.5 -44.5t-44.5 -18.5h-600q-26 0 -44 17.5t-18 43.5q0 23 14 41l517 705h-441q-26 0 -43.5 17.5t-17.5 43.5zM434 1133l166 139q12 12 33 12
q20 0 34.5 -14.5t14.5 -34.5q0 -24 -18 -39l-197 -162q-16 -12 -33 -12t-33 12l-196 162q-19 16 -19 39q0 20 15 34.5t35 14.5t32 -12z" />
    <glyph glyph-name="longs" unicode="&#x17f;" horiz-adv-x="458" 
d="M174 807h-70q-26 0 -43.5 17.5t-17.5 43.5t17.5 44t43.5 18h70v121q0 71 20.5 133t62 111.5t111 78.5t160.5 29q26 0 44 -18t18 -44t-18 -43.5t-44 -17.5q-115 0 -169 -61.5t-54 -167.5v-1002q0 -28 -18.5 -46.5t-46.5 -18.5t-47 18.5t-19 46.5v758z" />
    <glyph glyph-name="florin" unicode="&#x192;" horiz-adv-x="839" 
d="M868 1311q0 -22 -14.5 -36.5t-36.5 -14.5q-12 0 -35 10q-63 26 -120 26q-90 0 -138 -57t-69 -172l-45 -252h198q23 0 39.5 -16t16.5 -39t-16.5 -39t-39.5 -16h-217l-127 -705q-35 -195 -141.5 -303.5t-284.5 -108.5q-74 0 -133 23q-45 16 -45 55q0 23 16 39t39 16
q11 0 23 -4q4 -1 18.5 -5.5t19 -5.5t17 -3.5t25.5 -3t30 -0.5q116 0 188.5 75.5t96.5 207.5l129 723h-133q-23 0 -39 16t-16 39t16 39t39 16h152l43 236q31 173 111.5 264.5t226.5 91.5q108 0 176 -45q30 -20 30 -51z" />
    <glyph glyph-name="AEmacron" unicode="&#x1e2;" horiz-adv-x="1722" 
d="M1575 0h-680q-29 0 -49.5 20.5t-20.5 49.5v338h-432l-243 -392q-18 -32 -60 -32q-29 0 -50.5 21t-21.5 50q0 17 15 41l803 1250q20 32 59 32h657q26 0 45 -18.5t19 -44.5t-19 -45t-45 -19h-587v-493h450q26 0 45 -19t19 -45t-19 -44.5t-45 -18.5h-450v-504h610
q26 0 44.5 -19t18.5 -45t-18.5 -44.5t-44.5 -18.5zM467 535h358v573zM1337 1569q0 -22 -14.5 -36.5t-36.5 -14.5h-381q-22 0 -36.5 14.5t-14.5 36.5t14.5 36.5t36.5 14.5h381q22 0 36.5 -14.5t14.5 -36.5z" />
    <glyph glyph-name="aemacron" unicode="&#x1e3;" horiz-adv-x="1593" 
d="M475 836q-80 0 -131 -23.5t-106 -81.5q-25 -29 -54 -29q-25 0 -42 17.5t-17 42.5q0 18 10 35q46 73 132 117t208 44q115 0 198.5 -42.5t125.5 -120.5q108 163 334 163q94 0 166.5 -28.5t113.5 -70t67.5 -97.5t35 -104t8.5 -95q0 -30 -1.5 -46.5t-8.5 -39.5t-25 -34
t-47 -11h-598q0 -154 83 -246t226 -92q80 0 136 23.5t110 64.5q19 13 37 13q25 0 42 -17.5t17 -42.5t-22 -47t-56 -44.5t-107.5 -46.5t-156.5 -24q-137 0 -232.5 51t-134.5 152q-102 -203 -362 -203q-165 0 -259.5 77t-94.5 216q0 134 95.5 207.5t262.5 73.5h289v63
q0 104 -65 165t-177 61zM436 92q115 0 198 69t83 193v78h-289q-105 0 -165 -40t-60 -126q0 -82 58 -128t175 -46zM1395 547q0 293 -262 293q-132 0 -206 -77t-83 -216h551zM1040 1188q0 -22 -14.5 -36.5t-36.5 -14.5h-381q-22 0 -36.5 14.5t-14.5 36.5t14.5 36.5t36.5 14.5
h381q22 0 36.5 -14.5t14.5 -36.5z" />
    <glyph glyph-name="Aringacute" unicode="&#x1fa;" horiz-adv-x="1261" 
d="M915 408h-571l-149 -375q-18 -49 -68 -49q-29 0 -49.5 20.5t-20.5 48.5q0 19 6 31l490 1241q-137 34 -137 193q0 96 53 148t160 52t160 -52t53 -148q0 -76 -34.5 -126t-102.5 -67l491 -1241q6 -15 6 -31q0 -29 -20 -49t-52 -20q-50 0 -67 47zM872 535l-243 626l-242 -626
h485zM629 1640q-69 0 -98 -29.5t-29 -92.5q0 -62 29.5 -92.5t97.5 -30.5t97.5 30.5t29.5 92.5q0 63 -29 92.5t-98 29.5zM500 1778q-33 26 -6 61l182 221q13 17 32.5 18.5t45.5 -18.5q43 -41 6 -78l-199 -200q-29 -29 -61 -4z" />
    <glyph glyph-name="aringacute" unicode="&#x1fb;" horiz-adv-x="956" 
d="M475 836q-80 0 -134.5 -25t-102.5 -80q-25 -29 -54 -29q-25 0 -42 17.5t-17 42.5q0 18 10 35q46 73 132 117t208 44q176 0 272.5 -94t96.5 -254v-563q0 -26 -19 -44.5t-45 -18.5t-44.5 18.5t-18.5 44.5v74q-37 -70 -117.5 -109t-175.5 -39q-165 0 -259.5 77t-94.5 216
q0 135 96 212t262 77h289v55q0 104 -65 165t-177 61zM436 92q115 0 198 69t83 193v86h-289q-104 0 -164.5 -44t-60.5 -130q0 -82 58 -128t175 -46zM473 1001q-106 0 -159.5 52.5t-53.5 148.5t53.5 148.5t159.5 52.5t159.5 -52.5t53.5 -148.5t-53.5 -148.5t-159.5 -52.5z
M473 1325q-69 0 -98 -30t-29 -93q0 -62 29.5 -92.5t97.5 -30.5t97.5 30.5t29.5 92.5q0 63 -29 93t-98 30zM338 1452q-33 26 -6 61l182 222q13 17 32.5 18.5t45.5 -18.5q43 -41 6 -78l-199 -201q-29 -29 -61 -4z" />
    <glyph glyph-name="AEacute" unicode="&#x1fc;" horiz-adv-x="1722" 
d="M1575 0h-680q-29 0 -49.5 20.5t-20.5 49.5v338h-432l-243 -392q-18 -32 -60 -32q-29 0 -50.5 21t-21.5 50q0 17 15 41l803 1250q20 32 59 32h657q26 0 45 -18.5t19 -44.5t-19 -45t-45 -19h-587v-493h450q26 0 45 -19t19 -45t-19 -44.5t-45 -18.5h-450v-504h610
q26 0 44.5 -19t18.5 -45t-18.5 -44.5t-44.5 -18.5zM467 535h358v573zM1063 1483q-33 26 -6 61l182 221q13 17 32.5 18.5t45.5 -18.5q43 -40 6 -77l-199 -201q-29 -29 -61 -4z" />
    <glyph glyph-name="aeacute" unicode="&#x1fd;" horiz-adv-x="1593" 
d="M475 836q-80 0 -131 -23.5t-106 -81.5q-25 -29 -54 -29q-25 0 -42 17.5t-17 42.5q0 18 10 35q46 73 132 117t208 44q115 0 198.5 -42.5t125.5 -120.5q108 163 334 163q94 0 166.5 -28.5t113.5 -70t67.5 -97.5t35 -104t8.5 -95q0 -30 -1.5 -46.5t-8.5 -39.5t-25 -34
t-47 -11h-598q0 -154 83 -246t226 -92q80 0 136 23.5t110 64.5q19 13 37 13q25 0 42 -17.5t17 -42.5t-22 -47t-56 -44.5t-107.5 -46.5t-156.5 -24q-137 0 -232.5 51t-134.5 152q-102 -203 -362 -203q-165 0 -259.5 77t-94.5 216q0 134 95.5 207.5t262.5 73.5h289v63
q0 104 -65 165t-177 61zM436 92q115 0 198 69t83 193v78h-289q-105 0 -165 -40t-60 -126q0 -82 58 -128t175 -46zM1395 547q0 293 -262 293q-132 0 -206 -77t-83 -216h551zM696 1102q-33 26 -6 61l182 221q13 17 32.5 18.5t45.5 -18.5q43 -40 6 -77l-198 -201
q-30 -30 -62 -4z" />
    <glyph glyph-name="Oslashacute" unicode="&#x1fe;" horiz-adv-x="1452" 
d="M725 -29q-249 0 -401 119l-97 -123q-17 -20 -41 -20q-23 0 -39 16t-16 39q0 18 10 31l105 131q-156 186 -156 524q0 357 165.5 538t469.5 181q246 0 403 -121l95 119q17 20 41 20q23 0 39 -16t16 -39q0 -18 -10 -31l-101 -127q154 -187 154 -524q0 -355 -166 -536
t-471 -181zM725 1280q-239 0 -365.5 -148t-126.5 -444q0 -262 101 -409l710 899q-123 102 -319 102zM1219 688q0 261 -101 408l-710 -899q120 -99 317 -99q239 0 366.5 147.5t127.5 442.5zM612 1483q-33 26 -6 61l182 221q13 17 32.5 18.5t45.5 -18.5q43 -40 6 -77
l-198 -201q-30 -30 -62 -4z" />
    <glyph glyph-name="oslashacute" unicode="&#x1ff;" horiz-adv-x="1003" 
d="M502 958q184 0 291 -98l75 82q16 16 39 16q22 0 38 -15.5t16 -37.5t-17 -39l-84 -88q72 -119 72 -311q0 -246 -112.5 -370t-317.5 -124q-188 0 -297 103l-74 -78q-14 -14 -37 -14q-22 0 -37.5 15.5t-15.5 37.5q0 23 16 39l80 86q-65 118 -65 305q0 246 113 368.5
t317 122.5zM502 92q297 0 297 375q0 126 -35 207l-471 -504q72 -78 209 -78zM205 467q0 -119 31 -201l469 500q-77 74 -203 74q-297 0 -297 -373zM410 1065q-34 27 -7 61l183 222q13 17 32.5 18.5t45.5 -18.5q43 -41 6 -78l-199 -201q-29 -29 -61 -4z" />
    <glyph glyph-name="Scommaaccent" unicode="&#x218;" horiz-adv-x="1142" 
d="M907 1118q-130 162 -332 162q-151 0 -223.5 -63t-72.5 -160q0 -54 26.5 -96.5t71.5 -71t103 -52t122 -45t128 -45t122 -56.5t103 -75t71.5 -105t26.5 -142q0 -192 -127.5 -295t-364.5 -103q-166 0 -293.5 72.5t-183.5 179.5q-10 20 -10 37q0 28 18.5 47t46.5 19
q38 0 58 -33q54 -87 145.5 -141t218.5 -54q170 0 261 68.5t91 202.5q0 61 -26.5 108t-71.5 77.5t-103 55t-122 45t-128 42t-122 52t-103 70t-71.5 100t-26.5 138.5q0 151 111.5 250.5t324.5 99.5q144 0 258.5 -56.5t180.5 -154.5q12 -18 12 -39q0 -28 -18.5 -46.5
t-46.5 -18.5q-33 0 -54 26zM678 -205q0 -99 -28 -167.5t-93 -133.5q-10 -10 -22 -10q-11 0 -19 7.5t-8 19.5q0 10 8 18q59 59 59 133q0 36 -36.5 81t-36.5 83q0 43 22.5 65.5t63.5 22.5q90 0 90 -119z" />
    <glyph glyph-name="scommaaccent" unicode="&#x219;" horiz-adv-x="868" 
d="M424 831q-79 0 -130.5 -28.5t-51.5 -93.5q0 -38 23 -68t61 -49t86.5 -38t98.5 -34.5t98.5 -40t86.5 -53t61 -75t23 -105.5q0 -90 -47 -152.5t-124 -90.5t-177 -28q-116 0 -210 45t-140 103q-14 20 -14 39q0 25 17 42t42 17t45 -20q101 -101 260 -101q96 0 156.5 35.5
t60.5 110.5q0 38 -23 67t-61 47t-86.5 36.5t-98.5 34t-98.5 40t-86.5 54t-61 77t-23 107.5q0 122 87.5 184.5t225.5 62.5q213 0 311 -131q15 -20 15 -39q0 -25 -17.5 -42t-42.5 -17t-43 18q-45 43 -96.5 64.5t-126.5 21.5zM518 -205q0 -99 -28 -167.5t-93 -133.5
q-10 -10 -22 -10q-11 0 -19 7.5t-8 19.5q0 10 8 18q60 60 60 133q0 36 -37 81t-37 83q0 43 22.5 65.5t63.5 22.5q90 0 90 -119z" />
    <glyph glyph-name="dotlessj" unicode="&#x237;" horiz-adv-x="397" 
d="M133 -72v953q0 28 19 46.5t47 18.5t46.5 -18.5t18.5 -46.5v-953q0 -130 -85 -218.5t-214 -88.5q-26 0 -43.5 18t-17.5 44t17.5 43.5t43.5 17.5q73 0 120.5 53.5t47.5 130.5z" />
    <glyph glyph-name="circumflex" unicode="&#x2c6;" horiz-adv-x="684" 
d="M508 1081l-166 140l-166 -140q-12 -12 -33 -12q-20 0 -34.5 14.5t-14.5 34.5q0 23 19 39l196 162q16 12 33 12t33 -12l196 -162q19 -16 19 -39q0 -20 -14.5 -34.5t-34.5 -14.5q-21 0 -33 12z" />
    <glyph glyph-name="caron" unicode="&#x2c7;" horiz-adv-x="675" 
d="M342 1133l166 139q12 12 33 12q20 0 34.5 -14.5t14.5 -34.5q0 -23 -19 -39l-196 -162q-16 -12 -33 -12t-33 12l-196 162q-19 16 -19 39q0 20 14.5 34.5t34.5 14.5q21 0 33 -12z" />
    <glyph glyph-name="breve" unicode="&#x2d8;" horiz-adv-x="645" 
d="M322 1083q-100 0 -166 51.5t-66 155.5q0 20 14.5 34.5t34.5 14.5t34.5 -14.5t14.5 -34.5q0 -112 134 -112q133 0 133 112q0 20 14.5 34.5t34.5 14.5t34.5 -14.5t14.5 -34.5q0 -104 -65.5 -155.5t-165.5 -51.5z" />
    <glyph glyph-name="dotaccent" unicode="&#x2d9;" horiz-adv-x="567" 
d="M283 1114q-78 0 -78 80q0 82 78 82q77 0 77 -82q0 -80 -77 -80z" />
    <glyph glyph-name="ring" unicode="&#x2da;" horiz-adv-x="546" 
d="M272 1028q-106 0 -159.5 52.5t-53.5 148.5t53.5 148.5t159.5 52.5t159.5 -52.5t53.5 -148.5t-53.5 -148.5t-159.5 -52.5zM272 1352q-69 0 -98 -30t-29 -93q0 -62 29.5 -92.5t97.5 -30.5t97.5 30.5t29.5 92.5q0 63 -29 93t-98 30z" />
    <glyph glyph-name="ogonek" unicode="&#x2db;" horiz-adv-x="630" 
d="M477 -256q19 0 32 -13t13 -32q0 -26 -22 -39q-58 -35 -148 -35q-98 0 -154.5 45t-56.5 129q0 127 142 201h100q-56 -23 -97.5 -69t-41.5 -103q0 -54 30.5 -81.5t81.5 -27.5t97 19q15 6 24 6z" />
    <glyph glyph-name="tilde" unicode="&#x2dc;" horiz-adv-x="774" 
d="M266 1264q52 0 127 -40t115 -40q31 0 51 13t43 44q17 23 41 23q20 0 34.5 -15t14.5 -35q0 -12 -6 -24q-23 -45 -68 -76t-110 -31q-53 0 -127 40t-115 40q-31 0 -51 -13t-43 -44q-17 -23 -41 -23q-20 0 -34.5 15t-14.5 35q0 12 6 24q23 45 68 76t110 31z" />
    <glyph glyph-name="hungarumlaut" unicode="&#x2dd;" horiz-adv-x="1001" 
d="M258 1065q-33 26 -6 61l182 222q13 17 32.5 18.5t45.5 -18.5q43 -41 6 -78l-199 -201q-29 -29 -61 -4zM481 1065q-33 26 -6 61l182 222q13 17 32.5 18.5t45.5 -18.5q43 -41 6 -78l-198 -201q-30 -30 -62 -4z" />
    <glyph glyph-name="Wgrave" unicode="&#x1e80;" horiz-adv-x="1675" 
d="M1133 37l-295 1042l-295 -1042q-6 -25 -24.5 -39t-43.5 -14q-24 0 -42.5 14t-24.5 37l-363 1265q-4 16 -4 25q0 29 20.5 49.5t49.5 20.5q27 0 44.5 -16t22.5 -36l299 -1058l293 1058q6 24 25 38t43 14t42.5 -14t24.5 -38l293 -1058l299 1058q5 20 23 36t45 16
q29 0 49 -20.5t20 -49.5q0 -9 -4 -25l-362 -1265q-6 -23 -25 -37t-43 -14q-25 0 -43 14t-24 39zM975 1483q-32 -26 -62 4l-198 201q-37 37 6 77q26 20 45.5 18.5t32.5 -18.5l182 -221q27 -35 -6 -61z" />
    <glyph glyph-name="wgrave" unicode="&#x1e81;" horiz-adv-x="1310" 
d="M844 31l-189 649l-188 -649q-6 -21 -24 -34t-40 -13q-45 0 -61 43l-301 825q-6 15 -6 29q0 28 18.5 46.5t46.5 18.5q46 0 62 -43l237 -678l195 678q5 17 21 30t40 13t40.5 -13t21.5 -30l194 -678l238 678q16 43 61 43q28 0 47 -18.5t19 -46.5q0 -14 -6 -29l-301 -825
q-16 -43 -62 -43q-22 0 -39.5 13t-23.5 34zM803 1065q-32 -26 -62 4l-198 201q-37 37 6 78q26 20 45.5 18.5t32.5 -18.5l182 -222q27 -35 -6 -61z" />
    <glyph glyph-name="Wacute" unicode="&#x1e82;" horiz-adv-x="1675" 
d="M1133 37l-295 1042l-295 -1042q-6 -25 -24.5 -39t-43.5 -14q-24 0 -42.5 14t-24.5 37l-363 1265q-4 16 -4 25q0 29 20.5 49.5t49.5 20.5q27 0 44.5 -16t22.5 -36l299 -1058l293 1058q6 24 25 38t43 14t42.5 -14t24.5 -38l293 -1058l299 1058q5 20 23 36t45 16
q29 0 49 -20.5t20 -49.5q0 -9 -4 -25l-362 -1265q-6 -23 -25 -37t-43 -14q-25 0 -43 14t-24 39zM717 1483q-33 26 -6 61l182 221q13 17 32.5 18.5t45.5 -18.5q43 -40 6 -77l-199 -201q-29 -29 -61 -4z" />
    <glyph glyph-name="wacute" unicode="&#x1e83;" horiz-adv-x="1310" 
d="M844 31l-189 649l-188 -649q-6 -21 -24 -34t-40 -13q-45 0 -61 43l-301 825q-6 15 -6 29q0 28 18.5 46.5t46.5 18.5q46 0 62 -43l237 -678l195 678q5 17 21 30t40 13t40.5 -13t21.5 -30l194 -678l238 678q16 43 61 43q28 0 47 -18.5t19 -46.5q0 -14 -6 -29l-301 -825
q-16 -43 -62 -43q-22 0 -39.5 13t-23.5 34zM551 1065q-33 26 -6 61l182 222q13 17 32.5 18.5t45.5 -18.5q43 -41 6 -78l-199 -201q-29 -29 -61 -4z" />
    <glyph glyph-name="Wdieresis" unicode="&#x1e84;" horiz-adv-x="1675" 
d="M1133 37l-295 1042l-295 -1042q-6 -25 -24.5 -39t-43.5 -14q-24 0 -42.5 14t-24.5 37l-363 1265q-4 16 -4 25q0 29 20.5 49.5t49.5 20.5q27 0 44.5 -16t22.5 -36l299 -1058l293 1058q6 24 25 38t43 14t42.5 -14t24.5 -38l293 -1058l299 1058q5 20 23 36t45 16
q29 0 49 -20.5t20 -49.5q0 -9 -4 -25l-362 -1265q-6 -23 -25 -37t-43 -14q-25 0 -43 14t-24 39zM678 1518q-74 0 -74 75q0 78 74 78t74 -78q0 -75 -74 -75zM999 1518q-73 0 -73 75q0 78 73 78q74 0 74 -78q0 -75 -74 -75z" />
    <glyph glyph-name="wdieresis" unicode="&#x1e85;" horiz-adv-x="1310" 
d="M844 31l-189 649l-188 -649q-6 -21 -24 -34t-40 -13q-45 0 -61 43l-301 825q-6 15 -6 29q0 28 18.5 46.5t46.5 18.5q46 0 62 -43l237 -678l195 678q5 17 21 30t40 13t40.5 -13t21.5 -30l194 -678l238 678q16 43 61 43q28 0 47 -18.5t19 -46.5q0 -14 -6 -29l-301 -825
q-16 -43 -62 -43q-22 0 -39.5 13t-23.5 34zM496 1094q-74 0 -74 75q0 78 74 78q73 0 73 -78q0 -75 -73 -75zM817 1094q-74 0 -74 75q0 78 74 78t74 -78q0 -75 -74 -75z" />
    <glyph glyph-name="Ygrave" unicode="&#x1ef2;" 
d="M530 -16q-29 0 -49 20t-20 49v588l-412 647q-10 17 -10 37q0 29 20.5 49.5t49.5 20.5q39 0 59 -33l362 -582l363 582q20 33 59 33q29 0 49.5 -20.5t20.5 -49.5q0 -20 -10 -37l-412 -647v-588q0 -29 -20.5 -49t-49.5 -20zM627 1483q-32 -26 -62 4l-198 201q-37 37 6 77
q26 20 45.5 18.5t32.5 -18.5l182 -221q27 -35 -6 -61z" />
    <glyph glyph-name="ygrave" unicode="&#x1ef3;" horiz-adv-x="897" 
d="M72 -289q52 0 92.5 16.5t66.5 35.5t55.5 71t44 84t47.5 114q1 2 1.5 3.5t1.5 3.5l-342 813q-6 18 -6 29q0 28 18.5 46.5t46.5 18.5q45 0 62 -43l289 -706l288 706q17 43 62 43q28 0 46.5 -18.5t18.5 -46.5q0 -11 -6 -29l-403 -961q-65 -157 -153 -230t-230 -73
q-26 0 -44 18t-18 44t18 43.5t44 17.5zM530 1065q-32 -25 -61 4l-199 201q-37 37 6 78q26 20 45.5 18.5t32.5 -18.5l183 -222q27 -34 -7 -61z" />
    <glyph glyph-name="thinspace" unicode="&#x2009;" horiz-adv-x="28" 
 />
    <glyph glyph-name="endash" unicode="&#x2013;" horiz-adv-x="1196" 
d="M985 578q0 -23 -16 -39.5t-39 -16.5h-664q-23 0 -39 16.5t-16 39.5t16 39t39 16h664q23 0 39 -16t16 -39z" />
    <glyph glyph-name="emdash" unicode="&#x2014;" horiz-adv-x="1880" 
d="M1669 578q0 -23 -16 -39.5t-39 -16.5h-1348q-23 0 -39 16.5t-16 39.5t16 39t39 16h1348q23 0 39 -16t16 -39z" />
    <glyph glyph-name="quoteleft" unicode="&#x2018;" horiz-adv-x="315" 
d="M59 1016q0 104 39.5 199t108.5 167q13 13 26 13q12 0 21.5 -9t9.5 -22q0 -9 -6 -18q-41 -57 -58.5 -97t-17.5 -90q0 -26 11.5 -48.5t25.5 -37t25.5 -38.5t11.5 -52q0 -98 -96 -98q-101 0 -101 131z" />
    <glyph glyph-name="quoteright" unicode="&#x2019;" horiz-adv-x="315" 
d="M256 1264q0 -104 -39 -199.5t-108 -167.5q-12 -12 -27 -12q-12 0 -21.5 8.5t-9.5 21.5q0 10 6 19q41 57 58.5 96.5t17.5 89.5q0 26 -11.5 48.5t-25.5 37t-25.5 38.5t-11.5 52q0 50 25.5 74.5t71.5 24.5q100 0 100 -131z" />
    <glyph glyph-name="quotesinglbase" unicode="&#x201a;" horiz-adv-x="366" 
d="M264 47q0 -104 -39 -199t-108 -167q-13 -13 -27 -13q-12 0 -21.5 9t-9.5 22q0 7 7 18q40 56 57.5 96t17.5 91q0 26 -11.5 48.5t-25 37t-25 38.5t-11.5 52q0 98 96 98q100 0 100 -131z" />
    <glyph glyph-name="quotedblleft" unicode="&#x201c;" horiz-adv-x="598" 
d="M59 1016q0 104 39.5 199t108.5 167q13 13 26 13q12 0 21.5 -9t9.5 -22q0 -9 -6 -18q-41 -57 -58.5 -97t-17.5 -90q0 -26 11.5 -48.5t25.5 -37t25.5 -38.5t11.5 -52q0 -98 -96 -98q-101 0 -101 131zM342 1016q0 104 39 199t108 167q13 13 27 13q12 0 21.5 -9t9.5 -22
q0 -9 -6 -18q-41 -57 -58.5 -97t-17.5 -90q0 -26 11.5 -48.5t25.5 -37t25.5 -38.5t11.5 -52q0 -98 -97 -98q-100 0 -100 131z" />
    <glyph glyph-name="quotedblright" unicode="&#x201d;" horiz-adv-x="598" 
d="M539 1264q0 -104 -39.5 -199.5t-108.5 -167.5q-12 -12 -26 -12q-12 0 -21.5 8.5t-9.5 21.5q0 10 6 19q41 57 58.5 96.5t17.5 89.5q0 26 -11.5 48.5t-25.5 37t-25.5 38.5t-11.5 52q0 99 96 99q101 0 101 -131zM256 1264q0 -104 -39 -199.5t-108 -167.5q-12 -12 -27 -12
q-12 0 -21.5 8.5t-9.5 21.5q0 10 6 19q41 57 58.5 96.5t17.5 89.5q0 26 -11.5 48.5t-25.5 37t-25.5 38.5t-11.5 52q0 50 25.5 74.5t71.5 24.5q100 0 100 -131z" />
    <glyph glyph-name="quotedblbase" unicode="&#x201e;" horiz-adv-x="641" 
d="M539 47q0 -104 -39.5 -199t-108.5 -167q-13 -13 -26 -13q-12 0 -21.5 9t-9.5 22q0 9 6 18q41 57 58.5 97t17.5 90q0 26 -11.5 48.5t-25.5 37t-25.5 38.5t-11.5 52q0 98 96 98q101 0 101 -131zM256 47q0 -104 -39 -199t-108 -167q-13 -13 -27 -13q-12 0 -21.5 9t-9.5 22
q0 9 6 18q41 57 58.5 97t17.5 90q0 26 -11.5 48.5t-25.5 37t-25.5 38.5t-11.5 52q0 98 97 98q100 0 100 -131z" />
    <glyph glyph-name="dagger" unicode="&#x2020;" horiz-adv-x="897" 
d="M449 -307q-41 0 -41 35l-11 1228h-231q-41 0 -41 50q0 51 41 51h231l-4 350q0 51 56 51q55 0 55 -51l-4 -350h231q41 0 41 -51q0 -50 -41 -50h-231l-11 -1228q0 -35 -40 -35z" />
    <glyph glyph-name="daggerdbl" unicode="&#x2021;" horiz-adv-x="897" 
d="M397 956h-231q-41 0 -41 50q0 51 41 51h231l-4 350q0 51 56 51q55 0 55 -51l-4 -350h231q41 0 41 -51q0 -50 -41 -50h-231l-6 -432l6 -432h231q41 0 41 -49q0 -51 -41 -51h-231l4 -350q0 -52 -55 -52q-56 0 -56 52l4 350h-231q-41 0 -41 51q0 49 41 49h231l6 432z" />
    <glyph glyph-name="bullet" unicode="&#x2022;" horiz-adv-x="856" 
d="M428 305q-129 0 -197.5 66.5t-68.5 199.5q0 279 266 279t266 -279q0 -133 -68.5 -199.5t-197.5 -66.5z" />
    <glyph glyph-name="perthousand" unicode="&#x2030;" horiz-adv-x="2205" 
d="M1096 1395q22 0 36.5 -15t14.5 -37q0 -12 -4 -20l-668 -1313q-13 -26 -45 -26q-22 0 -36.5 14.5t-14.5 36.5q0 12 4 20l668 1313q13 27 45 27zM385 834q199 0 199 239q0 240 -199 240q-197 0 -197 -240q0 -239 197 -239zM385 1407q81 0 140.5 -25.5t94 -72t50.5 -105
t16 -131.5q0 -72 -16 -130.5t-50.5 -105t-94 -72.5t-140.5 -26q-156 0 -227.5 92t-71.5 242q0 152 71.5 243t227.5 91zM1143 68q198 0 198 239q0 53 -9 93.5t-30.5 75t-61.5 53t-97 18.5q-197 0 -197 -240q0 -239 197 -239zM1143 641q81 0 140.5 -25.5t94 -72t50.5 -105
t16 -131.5q0 -72 -16 -130.5t-50.5 -105t-94 -72.5t-140.5 -26q-156 0 -227.5 92t-71.5 242q0 152 71.5 243t227.5 91zM1821 68q198 0 198 239q0 53 -9 93.5t-30.5 75t-61.5 53t-97 18.5q-197 0 -197 -240q0 -239 197 -239zM1821 641q81 0 140.5 -25.5t94 -72t50.5 -105
t16 -131.5q0 -72 -16 -130.5t-50.5 -105t-94 -72.5t-140.5 -26q-156 0 -227.5 92t-71.5 242q0 152 71.5 243t227.5 91z" />
    <glyph glyph-name="guilsinglleft" unicode="&#x2039;" horiz-adv-x="751" 
d="M158 434q0 20 14 37l334 393q16 19 37 19q20 0 34.5 -14.5t14.5 -34.5q0 -18 -14 -35l-314 -365l314 -364q14 -17 14 -35q0 -20 -14.5 -34.5t-34.5 -14.5q-22 0 -37 18l-334 393q-14 17 -14 37z" />
    <glyph glyph-name="guilsinglright" unicode="&#x203a;" horiz-adv-x="751" 
d="M594 434q0 -20 -14 -37l-334 -393q-15 -18 -37 -18q-20 0 -34.5 14.5t-14.5 34.5q0 18 14 35l313 364l-313 365q-14 17 -14 35q0 20 14.5 34.5t34.5 14.5q21 0 37 -19l334 -393q14 -18 14 -37z" />
    <glyph glyph-name="fraction" unicode="&#x2044;" horiz-adv-x="641" 
d="M18 59l504 1303q9 33 49 33q23 0 39.5 -16.5t16.5 -39.5q0 -16 -4 -20l-502 -1299q-2 -11 -15 -23.5t-36 -12.5t-39.5 16t-16.5 39q0 12 4 20z" />
    <glyph glyph-name="zerosuperior" unicode="&#x2070;" horiz-adv-x="610" 
d="M305 954q73 0 109.5 53.5t36.5 168.5t-36.5 169t-109.5 54t-109 -54t-36 -169t36 -168.5t109 -53.5zM305 858q-254 0 -254 318q0 319 254 319t254 -319q0 -318 -254 -318z" />
    <glyph glyph-name="foursuperior" unicode="&#x2074;" horiz-adv-x="532" 
d="M418 1100h33q20 0 34.5 -14.5t14.5 -34.5t-14.5 -35t-34.5 -15h-33v-83q0 -22 -15.5 -38t-37.5 -16t-38 16t-16 38v83h-227q-20 0 -34.5 15t-14.5 35q0 17 12 32l275 383q19 23 43 23q22 0 37.5 -15.5t15.5 -37.5v-336zM174 1100h137v196z" />
    <glyph glyph-name="fivesuperior" unicode="&#x2075;" horiz-adv-x="534" 
d="M256 1272q101 0 165 -50t64 -157q0 -101 -62 -155t-167 -54q-79 0 -134.5 34.5t-84.5 82.5q-10 17 -10 31q0 20 13.5 33.5t33.5 13.5q27 0 45 -29q23 -37 54 -52.5t83 -15.5q58 0 89.5 31t31.5 80q0 51 -31.5 82t-89.5 31q-56 0 -119 -29q-28 -12 -39 -12
q-20 0 -33.5 13.5t-13.5 33.5q0 10 4 28l39 222q3 20 16.5 32.5t34.5 12.5h273q22 0 36.5 -15t14.5 -37t-14.5 -36.5t-36.5 -14.5h-234l-20 -121q38 17 92 17z" />
    <glyph glyph-name="sixsuperior" unicode="&#x2076;" horiz-adv-x="563" 
d="M299 1268q93 0 153 -51t60 -146q0 -107 -62.5 -160t-162.5 -53q-236 0 -236 305q0 169 68 250.5t182 81.5q102 0 152 -43q18 -15 18 -39q0 -20 -13.5 -33.5t-33.5 -13.5q-13 0 -33 10q-47 23 -90 23q-59 0 -103 -49t-44 -146q51 64 145 64zM287 954q59 0 91 31t32 86
q0 48 -34.5 76.5t-88.5 28.5q-39 0 -74 -22.5t-49 -63.5q0 -55 29 -95.5t94 -40.5z" />
    <glyph glyph-name="sevensuperior" unicode="&#x2077;" horiz-adv-x="479" 
d="M102 915q0 73 24.5 138.5t59.5 110.5t70 82.5t59.5 70.5t24.5 59h-268q-22 0 -37 14.5t-15 36.5t15 37t37 15h329q22 0 37 -15t15 -37q0 -53 -18 -99t-45 -77t-59 -67.5t-59 -70t-45 -85.5t-18 -113q0 -23 -14.5 -39t-36.5 -16q-23 0 -39.5 16t-16.5 39z" />
    <glyph glyph-name="eightsuperior" unicode="&#x2078;" horiz-adv-x="555" 
d="M276 858q-113 0 -172 50t-59 145q0 106 98 149q-31 13 -53 45t-22 76q0 84 56.5 128t151.5 44t152 -44t57 -128q0 -44 -22 -76t-53 -45q98 -43 98 -149q0 -95 -59.5 -145t-172.5 -50zM276 1399q-104 0 -104 -76q0 -37 23 -57.5t81 -20.5q105 0 105 78q0 76 -105 76z
M276 1153q-60 0 -91 -26.5t-31 -73.5q0 -99 122 -99q123 0 123 99q0 47 -31.5 73.5t-91.5 26.5z" />
    <glyph glyph-name="ninesuperior" unicode="&#x2079;" horiz-adv-x="563" 
d="M264 1085q-93 0 -153 51t-60 146q0 107 62.5 160t162.5 53q236 0 236 -305q0 -169 -68 -250.5t-182 -81.5q-101 0 -151 43q-19 16 -19 39q0 20 13.5 33.5t33.5 13.5q13 0 33 -10q47 -23 90 -23q59 0 103.5 49t44.5 146q-51 -64 -146 -64zM276 1399q-59 0 -90.5 -31
t-31.5 -86q0 -48 34 -76t88 -28q39 0 74 22.5t49 63.5q0 55 -29 95t-94 40z" />
    <glyph glyph-name="zeroinferior" unicode="&#x2080;" horiz-adv-x="610" 
d="M305 -20q73 0 109.5 53t36.5 168t-36.5 169t-109.5 54t-109 -54t-36 -169t36 -168t109 -53zM305 -117q-254 0 -254 318q0 319 254 319t254 -319q0 -318 -254 -318z" />
    <glyph glyph-name="oneinferior" unicode="&#x2081;" horiz-adv-x="401" 
d="M203 373l-62 -43q-19 -15 -37 -15q-20 0 -35.5 16t-15.5 36q0 26 25 43l147 98q13 10 31 10q22 0 37.5 -15.5t15.5 -37.5v-518q0 -22 -15.5 -37.5t-37.5 -15.5t-37.5 15.5t-15.5 37.5v426z" />
    <glyph glyph-name="twoinferior" unicode="&#x2082;" horiz-adv-x="544" 
d="M72 412q22 52 73.5 80t124.5 28q102 0 162 -48t60 -134q0 -55 -34 -100.5t-82.5 -76t-97 -56.5t-82.5 -54t-34 -57h276q20 0 34.5 -14.5t14.5 -34.5t-14.5 -34.5t-34.5 -14.5h-342q-20 0 -34.5 14.5t-14.5 34.5q0 66 35 117t84.5 81.5t99 57.5t84.5 61t35 76
q0 37 -29.5 61.5t-85.5 24.5q-46 0 -70 -14.5t-46 -44.5q-17 -21 -39 -21q-20 0 -33.5 13.5t-13.5 33.5q0 11 4 21z" />
    <glyph glyph-name="threeinferior" unicode="&#x2083;" horiz-adv-x="526" 
d="M434 420l-139 -144q95 0 139.5 -55.5t44.5 -132.5q0 -95 -59 -150t-178 -55q-73 0 -126.5 34t-80.5 85q-8 16 -8 29q0 20 13.5 33.5t33.5 13.5q26 0 43 -27q41 -69 125 -69q129 0 129 106q0 98 -123 98h-45q-20 0 -34.5 15t-14.5 35q0 17 12 32l127 138h-191
q-22 0 -36.5 14.5t-14.5 36.5t14.5 36.5t36.5 14.5h295q22 0 37 -14.5t15 -36.5q0 -25 -15 -37z" />
    <glyph glyph-name="fourinferior" unicode="&#x2084;" horiz-adv-x="532" 
d="M418 129h33q20 0 34.5 -14.5t14.5 -34.5t-14.5 -34.5t-34.5 -14.5h-33v-84q0 -22 -15.5 -37.5t-37.5 -15.5t-38 15.5t-16 37.5v84h-227q-20 0 -34.5 14.5t-14.5 34.5q0 18 12 33l275 383q18 22 43 22q22 0 37.5 -15.5t15.5 -37.5v-336zM174 129h137v197z" />
    <glyph glyph-name="fiveinferior" unicode="&#x2085;" horiz-adv-x="536" 
d="M256 297q101 0 165 -50t64 -157q0 -101 -62 -155t-167 -54q-79 0 -134.5 34.5t-84.5 82.5q-10 17 -10 31q0 20 13.5 33.5t33.5 13.5q27 0 45 -29q23 -37 54 -52t83 -15q58 0 89.5 30.5t31.5 79.5q0 51 -31.5 82t-89.5 31q-56 0 -119 -29q-28 -12 -39 -12
q-20 0 -33.5 13.5t-13.5 33.5q0 11 4 29l39 221q3 20 16.5 32.5t34.5 12.5h273q22 0 36.5 -14.5t14.5 -36.5t-14.5 -37t-36.5 -15h-234l-20 -120q36 16 92 16z" />
    <glyph glyph-name="sixinferior" unicode="&#x2086;" horiz-adv-x="563" 
d="M299 293q93 0 153 -51t60 -146q0 -107 -62.5 -160t-162.5 -53q-236 0 -236 305q0 169 68 250.5t182 81.5q102 0 152 -43q18 -15 18 -39q0 -20 -13.5 -33.5t-33.5 -13.5q-13 0 -33 10q-47 23 -90 23q-59 0 -103 -49t-44 -146q51 64 145 64zM287 -20q59 0 91 30.5t32 85.5
q0 48 -34.5 76.5t-88.5 28.5q-39 0 -74 -22.5t-49 -63.5q0 -55 29 -95t94 -40z" />
    <glyph glyph-name="seveninferior" unicode="&#x2087;" horiz-adv-x="479" 
d="M102 -55q0 73 24.5 138.5t59.5 110.5t70 82.5t59.5 70.5t24.5 59h-268q-22 0 -37 14.5t-15 36.5t15 36.5t37 14.5h329q22 0 37 -14.5t15 -36.5q0 -53 -18 -99t-45 -77t-59 -67.5t-59 -70t-45 -85.5t-18 -113q0 -23 -14.5 -39.5t-36.5 -16.5q-23 0 -39.5 16.5t-16.5 39.5z
" />
    <glyph glyph-name="eightinferior" unicode="&#x2088;" horiz-adv-x="555" 
d="M276 -117q-113 0 -172 50t-59 145q0 106 98 149q-31 13 -53 45t-22 76q0 84 56.5 128t151.5 44t152 -44t57 -128q0 -44 -22 -76t-53 -45q98 -43 98 -149q0 -95 -59.5 -145t-172.5 -50zM276 424q-104 0 -104 -76q0 -37 23 -57.5t81 -20.5q105 0 105 78q0 76 -105 76z
M276 178q-60 0 -91 -26.5t-31 -73.5q0 -98 122 -98q123 0 123 98q0 47 -31.5 73.5t-91.5 26.5z" />
    <glyph glyph-name="nineinferior" unicode="&#x2089;" horiz-adv-x="563" 
d="M264 111q-94 0 -153.5 50.5t-59.5 145.5q0 107 62.5 160t162.5 53q236 0 236 -305q0 -169 -68 -250.5t-182 -81.5q-101 0 -151 43q-19 16 -19 39q0 20 13.5 33.5t33.5 13.5q13 0 33 -10q45 -22 90 -22q60 0 104 48.5t44 145.5q-50 -63 -146 -63zM276 424q-59 0 -90.5 -31
t-31.5 -86q0 -48 34 -76t88 -28q39 0 74 22.5t49 63.5q0 55 -29 95t-94 40z" />
    <glyph glyph-name="Euro" unicode="&#x20ac;" horiz-adv-x="1292" 
d="M580 489h-330q36 -204 157 -297.5t322 -93.5q107 0 202.5 42.5t153.5 125.5q19 27 54 27q28 0 46.5 -19t18.5 -47q0 -21 -12 -39q-67 -98 -194.5 -157.5t-268.5 -59.5q-541 0 -625 518h-69q-23 0 -39 16.5t-16 39.5t16 39t39 16h57q-2 29 -2 88q0 51 2 76h-57
q-23 0 -39 16t-16 39t16 39t39 16h69q41 264 202.5 398.5t422.5 134.5q145 0 266.5 -58t194.5 -159q14 -20 14 -43q0 -28 -18.5 -47t-46.5 -19q-32 0 -54 27q-55 76 -150 124t-206 48q-405 0 -481 -406h332q23 0 39 -16t16 -39t-16 -39t-39 -16h-344q-3 -38 -3 -76
q0 -48 3 -88h344q23 0 39 -16t16 -39t-16 -39.5t-39 -16.5z" />
    <glyph glyph-name="numero" unicode="&#x2116;" horiz-adv-x="2183" 
d="M1276 1395q28 0 47.5 -20t19.5 -48v-1276q0 -28 -19.5 -47.5t-47.5 -19.5q-31 0 -53 26l-930 1129v-1088q0 -28 -20 -47.5t-48 -19.5t-47.5 19.5t-19.5 47.5v1276q0 28 19.5 48t47.5 20q32 0 51 -25l932 -1130v1087q0 28 20 48t48 20zM1796 637q90 0 137 61.5t47 180.5
t-47 180t-137 61t-137 -61t-47 -180t47 -180.5t137 -61.5zM1796 225q-36 0 -57 20t-21 56q0 82 78 82t78 -82q0 -37 -20.5 -56.5t-57.5 -19.5zM1796 526q-147 0 -227 89.5t-80 263.5t80 263t227 89t227 -89t80 -263t-80 -263.5t-227 -89.5z" />
    <glyph glyph-name="trademark" unicode="&#x2122;" horiz-adv-x="827" 
d="M88 1335h252q15 0 25 -10.5t10 -24.5t-10 -24t-25 -10h-86v-271q0 -15 -12 -27t-27 -12q-17 0 -28 11.5t-11 27.5v271h-88q-15 0 -25 10t-10 24t10 24.5t25 10.5zM602 1038q-21 0 -31 17l-65 112v-174q0 -15 -11 -26t-26 -11t-26 11t-11 26v312q0 15 11 25.5t26 10.5
q24 0 35 -22l98 -176l98 176q11 22 35 22q15 0 26 -10.5t11 -25.5v-312q0 -15 -11 -26t-26 -11t-26 11t-11 26v174l-65 -112q-10 -17 -31 -17z" />
    <glyph glyph-name="minus" unicode="&#x2212;" horiz-adv-x="929" 
d="M930 446q0 -23 -16.5 -39t-39.5 -16h-819q-23 0 -39 16t-16 39t16 39.5t39 16.5h819q23 0 39.5 -16.5t16.5 -39.5z" />
    <glyph glyph-name="radical" unicode="&#x221a;" horiz-adv-x="1103" 
d="M1008 1382l-453 -1695q-10 -37 -55 -37q-38 0 -54 35l-350 794q-4 8 -4 21q0 24 17 41.5t41 17.5q39 0 53 -33l286 -678l406 1567q3 16 18.5 29.5t36.5 13.5q25 0 42.5 -17t17.5 -42q0 -9 -2 -17z" />
    <glyph glyph-name="notequal" unicode="&#x2260;" horiz-adv-x="929" 
d="M930 289q0 -23 -16.5 -39.5t-39.5 -16.5h-516l-59 -88q-11 -16 -29 -16q-13 0 -22.5 9.5t-9.5 23.5q0 8 4 16l37 55h-224q-23 0 -39 16.5t-16 39.5t16 39t39 16h299l140 203h-439q-23 0 -39 16t-16 39t16 39t39 16h514l64 91q11 16 29 16q13 0 22.5 -9.5t9.5 -23.5
q0 -8 -4 -16l-41 -58h225q23 0 39.5 -16t16.5 -39t-16.5 -39t-39.5 -16h-301l-139 -203h440q23 0 39.5 -16t16.5 -39z" />
    <glyph glyph-name="lessequal" unicode="&#x2264;" horiz-adv-x="690" 
d="M690 55q0 -23 -16 -39t-39 -16h-580q-23 0 -39 16t-16 39t16 39.5t39 16.5h580q23 0 39 -16.5t16 -39.5zM135 588l529 -303q26 -16 26 -47q0 -23 -16 -39.5t-39 -16.5q-15 0 -33 11l-575 348q-27 19 -27 47t27 47l575 348q17 10 33 10q23 0 39 -16t16 -39q0 -31 -26 -47z
" />
    <glyph glyph-name="greaterequal" unicode="&#x2265;" horiz-adv-x="690" 
d="M0 55q0 23 16 39.5t39 16.5h580q23 0 39 -16.5t16 -39.5t-16 -39t-39 -16h-580q-23 0 -39 16t-16 39zM27 285l528 303l-528 303q-27 17 -27 47q0 23 16 39t39 16q16 0 33 -10l576 -348q26 -19 26 -47t-26 -47l-576 -348q-18 -11 -33 -11q-23 0 -39 16.5t-16 39.5
q0 30 27 47z" />
    <glyph glyph-name="commaaccent" unicode="&#xf6c3;" horiz-adv-x="288" 
d="M231 -205q0 -99 -27.5 -167.5t-92.5 -133.5q-10 -10 -23 -10q-11 0 -19 7.5t-8 19.5q0 9 9 18q59 59 59 133q0 36 -37 81t-37 83q0 43 22.5 65.5t63.5 22.5q90 0 90 -119z" />
    <glyph glyph-name="s_t" unicode="&#xfb06;" horiz-adv-x="1400" 
d="M424 831q-79 0 -130.5 -28.5t-51.5 -93.5q0 -38 23 -68t61 -49t86.5 -38t98.5 -34.5t98.5 -40t86.5 -53t61 -75t23 -105.5q0 -90 -47 -152.5t-124 -90.5t-177 -28q-116 0 -210 45t-140 103q-14 20 -14 39q0 25 17 42t42 17t45 -20q101 -101 260 -101q96 0 156.5 35.5
t60.5 110.5q0 38 -23 67t-61 47t-86.5 36.5t-98.5 34t-98.5 40t-86.5 54t-61 77t-23 107.5q0 122 87.5 184.5t225.5 62.5q90 0 172 -30q-53 57 -83 111.5t-30 121.5q0 108 84 178t215 70q184 0 273.5 -106t89.5 -281v-90h133q26 0 43.5 -18t17.5 -44t-17.5 -43.5
t-43.5 -17.5h-133v-565q0 -65 32.5 -100.5t86.5 -35.5q26 0 44.5 -17.5t18.5 -43.5t-18.5 -43.5t-44.5 -17.5q-119 0 -184.5 71t-65.5 187v565h-80q-26 0 -44 17.5t-18 43.5t18 44t44 18h80v86q0 280 -236 280q-96 0 -153.5 -48t-57.5 -120q0 -29 7 -57.5t14.5 -48t28 -49.5
t32 -44t42.5 -51t44 -53q15 -19 15 -39q0 -25 -17.5 -42t-42.5 -17t-43 18q-45 43 -96.5 64.5t-126.5 21.5z" />
    <glyph glyph-name="zero.tab" horiz-adv-x="1212" 
d="M606 94q192 0 281.5 140.5t89.5 455.5t-89 454.5t-282 139.5q-192 0 -281 -139.5t-89 -454.5t89 -455.5t281 -140.5zM606 1407q259 0 382.5 -174.5t123.5 -542.5t-124 -543.5t-382 -175.5t-382 175.5t-124 543.5t123.5 542.5t382.5 174.5z" />
    <glyph glyph-name="one.tab" horiz-adv-x="1212" 
d="M627 1206l-328 -254q-18 -12 -39 -12q-26 0 -45.5 20t-19.5 46q0 36 28 55l430 319q21 15 41 15q28 0 48 -20t20 -48v-1276q0 -28 -20 -47.5t-48 -19.5t-47.5 19.5t-19.5 47.5v1155z" />
    <glyph glyph-name="two.tab" horiz-adv-x="1212" 
d="M199 1141q42 126 147.5 196t261.5 70q204 0 321.5 -108.5t117.5 -290.5q0 -100 -42 -190t-109 -157.5t-148 -128t-162 -111t-148 -97.5t-109 -97.5t-42 -99.5h714q26 0 45 -19t19 -45t-19 -44.5t-45 -18.5h-790q-26 0 -45 18.5t-19 44.5q0 72 26 136t70 114t101.5 96.5
t120.5 87.5t126 82.5t120.5 87t101.5 95t70 112.5t26 134q0 122 -79.5 199t-221.5 77q-61 0 -109.5 -14.5t-82.5 -42t-57 -58.5t-42 -73q-18 -41 -59 -41q-26 0 -44.5 18.5t-18.5 44.5q0 11 4 23z" />
    <glyph glyph-name="three.tab" horiz-adv-x="1212" 
d="M612 836h21q97 0 173 -24.5t124.5 -65.5t79.5 -98.5t44 -120t13 -134.5q0 -203 -121 -312.5t-352 -109.5q-300 0 -440 232q-11 18 -11 35q0 26 18 43.5t44 17.5q35 0 55 -33q104 -172 334 -172q168 0 253 77t85 222q0 320 -309 320h-144q-26 0 -43.5 17.5t-17.5 43.5
q0 24 16 43l377 438h-528q-26 0 -44 18t-18 44t18 43.5t44 17.5h667q26 0 44 -17.5t18 -43.5q0 -23 -17 -43z" />
    <glyph glyph-name="four.tab" horiz-adv-x="1212" 
d="M913 444h117q28 0 47 -17.5t19 -43.5q0 -28 -19 -47t-47 -19h-117v-266q0 -28 -19.5 -47.5t-47.5 -19.5t-48 19.5t-20 47.5v266h-598q-26 0 -44.5 19t-18.5 45q0 21 14 41l660 942q22 29 55 29q28 0 47.5 -20t19.5 -48v-881zM299 444h479v689z" />
    <glyph glyph-name="five.tab" horiz-adv-x="1212" 
d="M608 913q220 0 347.5 -117t127.5 -352q0 -237 -127.5 -355t-347.5 -118q-167 0 -288 72.5t-185 204.5q-8 16 -8 31q0 26 18.5 44.5t44.5 18.5q38 0 58 -35q67 -111 150 -160t210 -49q158 0 249 84.5t91 261.5q0 173 -91.5 258.5t-248.5 85.5q-110 0 -184 -28t-143 -96
q-27 -27 -56 -27q-26 0 -44.5 18.5t-18.5 44.5q0 7 4 27l119 602q3 19 19.5 34t41.5 15h623q26 0 44.5 -18.5t18.5 -44.5t-18.5 -45t-44.5 -19h-578l-82 -420q117 82 299 82z" />
    <glyph glyph-name="six.tab" horiz-adv-x="1212" 
d="M623 887q210 0 337 -115t127 -340q0 -121 -34.5 -211t-99 -144t-150 -80t-193.5 -26q-125 0 -219.5 50.5t-152 143t-85.5 215.5t-28 277q0 750 514 750q112 0 200 -34t130 -79q20 -20 20 -47q0 -26 -18.5 -44.5t-44.5 -18.5q-22 0 -43 16q-113 84 -244 84
q-379 0 -379 -577q48 72 143.5 126t219.5 54zM610 94q342 0 342 338q0 168 -90.5 250t-238.5 82q-228 0 -353 -223q0 -200 88.5 -323.5t251.5 -123.5z" />
    <glyph glyph-name="seven.tab" horiz-adv-x="1212" 
d="M336 49q0 138 32 263t82.5 218t112 177t123.5 154t112.5 132.5t82.5 128.5t32 129h-690q-26 0 -44.5 19t-18.5 45t18.5 44.5t44.5 18.5h764q26 0 45 -18.5t19 -44.5q0 -94 -32 -180.5t-83.5 -157.5t-114 -143.5t-125 -152.5t-114 -168.5t-83.5 -208t-32 -255.5
q0 -28 -19 -46.5t-47 -18.5t-46.5 18.5t-18.5 46.5z" />
    <glyph glyph-name="eight.tab" horiz-adv-x="1212" 
d="M606 -29q-220 0 -349.5 107t-129.5 311q0 131 63.5 226.5t178.5 138.5q-181 96 -181 297q0 178 112 267t306 89t306 -89t112 -267q0 -201 -180 -297q114 -43 177.5 -138.5t63.5 -226.5q0 -204 -129.5 -311t-349.5 -107zM606 1284q-135 0 -208.5 -58.5t-73.5 -174.5
q0 -119 75 -180.5t207 -61.5t207.5 61.5t75.5 180.5q0 116 -74 174.5t-209 58.5zM606 686q-165 0 -254.5 -74t-89.5 -223q0 -148 92.5 -221.5t251.5 -73.5t251.5 73.5t92.5 221.5q0 149 -89.5 223t-254.5 74z" />
    <glyph glyph-name="nine.tab" horiz-adv-x="1212" 
d="M590 492q-102 0 -186 27.5t-147 82.5t-97.5 142.5t-34.5 201.5q0 121 34.5 211t99 144t150 80t193.5 26q125 0 219.5 -50.5t152 -143t85.5 -215.5t28 -277q0 -750 -514 -750q-112 0 -199.5 34t-129.5 79q-21 21 -21 47t19 45t45 19q20 0 43 -17q113 -84 243 -84
q379 0 379 578q-48 -72 -143 -126t-219 -54zM602 1284q-342 0 -342 -338q0 -168 91 -250t239 -82q227 0 352 224q0 200 -88.5 323t-251.5 123z" />
    <glyph glyph-name="ornament.A" horiz-adv-x="1499" 
d="M1184 1407q104 0 176 -68t72 -170q0 -121 -89.5 -188.5t-226.5 -67.5q-70 0 -139 13q-20 -30 -52.5 -57.5t-62.5 -39.5q122 0 201.5 -64.5t79.5 -170.5q0 -79 -32 -131t-83 -75t-112.5 -36t-123 -20.5t-112.5 -20.5t-83 -44t-32 -83q0 -44 28 -69t73 -25q31 0 49 14
t25.5 33.5t14.5 39.5t25 34t49 14q91 0 91 -92q0 -43 -23.5 -74t-62.5 -46.5t-78 -22t-80 -6.5q-105 0 -194 41t-147.5 106t-99.5 147.5t-59 164t-18 157.5t21 146t61 127t107 91.5t151 34.5q64 0 120 -25t93 -65q-82 -53 -135 -97.5t-98.5 -102.5t-66 -129t-20.5 -162
q0 -55 4 -82q4 -33 25 -33q11 0 14.5 8t3.5 27q0 11 -1 38.5t-1 41.5q0 98 37 177.5t95.5 135t150.5 111.5q95 59 137 112q-56 14 -120.5 47t-98.5 55.5t-92 63.5q-25 17 -66.5 53t-72 61t-70 45.5t-72.5 20.5q-37 0 -59.5 -23t-22.5 -60q0 -36 23.5 -58t58.5 -22
q10 0 18.5 2.5t16.5 8t12 9t11.5 11.5t9.5 10q15 12 35 12q22 0 37.5 -15.5t15.5 -37.5q0 -46 -55 -76.5t-109 -30.5q-77 0 -132.5 55.5t-55.5 131.5q0 78 55.5 134t132.5 56q48 0 97.5 -20t79 -41t73.5 -58q85 119 231 119q119 0 205 -85.5t86 -205.5q0 -46 -14 -88
q45 -8 102 -8q36 0 69 7.5t64 23.5t49.5 46.5t18.5 71.5q0 53 -37.5 92t-95.5 39q-25 0 -50 -12t-40 -12q-23 0 -38.5 15.5t-15.5 37.5q0 29 23 45q44 33 121 33zM901 1044q12 32 12 72q0 70 -48 127t-128 57q-98 0 -145 -86q150 -118 309 -170z" />
    <glyph glyph-name="zero.onum" horiz-adv-x="1249" 
d="M625 96q184 0 282.5 112.5t98.5 344.5t-98.5 343.5t-282.5 111.5t-282.5 -111.5t-98.5 -343.5t98.5 -344.5t282.5 -112.5zM625 1130q242 0 378 -146t136 -431q0 -286 -136 -433t-378 -147t-378 147t-136 433q0 285 136 431t378 146z" />
    <glyph glyph-name="one.onum" horiz-adv-x="745" 
d="M410 938l-234 -162q-17 -10 -35 -10q-26 0 -43.5 17.5t-17.5 43.5q0 34 26 52l324 223q24 16 45 16q28 0 47 -18.5t19 -46.5v-1004q0 -28 -19 -46.5t-47 -18.5t-46.5 18.5t-18.5 46.5v889z" />
    <glyph glyph-name="two.onum" horiz-adv-x="1040" 
d="M139 877q45 122 145.5 187.5t252.5 65.5q201 0 307 -93t106 -242q0 -78 -39.5 -145.5t-103 -116t-139.5 -91.5t-152.5 -79.5t-140 -72t-103 -78.5t-39.5 -89h678q26 0 44 -18t18 -44t-18 -43.5t-44 -17.5h-753q-26 0 -44 17.5t-18 43.5q0 70 24.5 130t66.5 103.5t96.5 81
t114.5 68t119.5 59t114 59t96.5 63.5t66.5 76t24.5 94q0 94 -74 153.5t-208 59.5q-112 0 -177 -45t-106 -134q-16 -36 -57 -36q-26 0 -44 17.5t-18 43.5q0 13 4 23z" />
    <glyph glyph-name="three.onum" horiz-adv-x="1089" 
d="M535 559h20q121 0 208 -36t135 -100t69.5 -139.5t21.5 -166.5q0 -203 -121 -312.5t-352 -109.5q-156 0 -266 62t-174 169q-10 17 -10 35q0 26 17.5 44t43.5 18q35 0 55 -33q104 -172 334 -172q168 0 253 77t85 222q0 319 -309 319h-144q-26 0 -43.5 18t-17.5 44
q0 24 16 43l377 438h-528q-26 0 -44 17.5t-18 43.5t18 44t44 18h667q26 0 44 -18t18 -44q0 -24 -16 -43z" />
    <glyph glyph-name="four.onum" horiz-adv-x="1089" 
d="M844 178h117q26 0 43.5 -17.5t17.5 -43.5t-17.5 -44t-43.5 -18h-117v-280q0 -28 -19 -48t-47 -20t-47.5 20t-19.5 48v280h-600q-26 0 -44 18t-18 44q0 21 14 41l660 932q21 28 55 28q28 0 47 -19.5t19 -47.5v-873zM225 178h486v686z" />
    <glyph glyph-name="five.onum" horiz-adv-x="1142" 
d="M578 637q220 0 347.5 -117t127.5 -352q0 -237 -127.5 -355t-347.5 -118q-167 0 -288.5 72t-185.5 204q-8 16 -8 31q0 26 19 45t45 19q37 0 57 -35q66 -111 150 -160t211 -49q158 0 249 84.5t91 261.5q0 173 -91.5 258.5t-248.5 85.5q-110 0 -184.5 -28.5t-143.5 -96.5
q-27 -27 -55 -27q-26 0 -45 19t-19 45q0 7 4 27l119 602q3 19 19.5 34t41.5 15h623q26 0 44.5 -19t18.5 -45t-18.5 -44.5t-44.5 -18.5h-578l-81 -420q117 82 299 82z" />
    <glyph glyph-name="six.onum" horiz-adv-x="1159" 
d="M596 879q211 0 338 -113.5t127 -337.5q0 -120 -34.5 -209t-99 -143t-150 -79.5t-193.5 -25.5q-126 0 -220 49t-151.5 140t-86 213.5t-28.5 275.5q0 387 131.5 566.5t382.5 179.5q112 0 200 -34t130 -79q21 -21 21 -47t-19 -45t-45 -19q-20 0 -43 17q-113 84 -244 84
q-379 0 -379 -574q48 72 143.5 126.5t219.5 54.5zM584 94q342 0 342 334q0 168 -91 248t-239 80q-227 0 -352 -224q0 -199 88.5 -318.5t251.5 -119.5z" />
    <glyph glyph-name="seven.onum" horiz-adv-x="989" 
d="M227 -227q0 138 32 263t83 218t112.5 177t123 154t112.5 132.5t83 128.5t32 129h-690q-26 0 -45 18.5t-19 44.5t19 45t45 19h764q26 0 44.5 -19t18.5 -45q0 -94 -32 -180.5t-83.5 -157.5t-114 -143t-125 -152t-114 -168.5t-83.5 -208t-32 -255.5q0 -28 -18.5 -47
t-46.5 -19t-47 19t-19 47z" />
    <glyph glyph-name="eight.onum" horiz-adv-x="1126" 
d="M563 -29q-221 0 -350 105.5t-129 308.5q0 131 63.5 225.5t178.5 137.5q-181 96 -181 292q0 176 112.5 264.5t305.5 88.5t305.5 -88.5t112.5 -264.5q0 -196 -180 -292q115 -43 178 -137.5t63 -225.5q0 -203 -129 -308.5t-350 -105.5zM563 1270q-135 0 -208.5 -57
t-73.5 -173q0 -118 74.5 -177.5t207.5 -59.5t208 59.5t75 177.5q0 116 -73.5 173t-209.5 57zM563 680q-165 0 -254.5 -73t-89.5 -222q0 -148 92 -219.5t252 -71.5t252 71.5t92 219.5q0 149 -89.5 222t-254.5 73z" />
    <glyph glyph-name="nine.onum" horiz-adv-x="1159" 
d="M563 223q-211 0 -338 113.5t-127 337.5q0 235 127 345.5t350 110.5q126 0 220 -49t151.5 -139.5t86 -213t28.5 -275.5q0 -387 -131.5 -566.5t-382.5 -179.5q-112 0 -200 34t-130 79q-20 20 -20 47q0 26 18.5 44.5t44.5 18.5q22 0 43 -16q113 -84 244 -84q379 0 379 573
q-48 -72 -143.5 -126t-219.5 -54zM575 1008q-342 0 -342 -334q0 -168 91 -248t239 -80q227 0 352 223q0 199 -88.5 319t-251.5 120z" />
    <glyph glyph-name="hyphen.case" horiz-adv-x="745" 
d="M633 690q0 -23 -16 -39t-39 -16h-410q-23 0 -39 16t-16 39t16 39t39 16h410q23 0 39 -16t16 -39z" />
    <glyph glyph-name="parenleft.case" horiz-adv-x="602" 
d="M123 690q0 288 33.5 463t107.5 276t207 160q15 6 27 6q23 0 40 -17t17 -40q0 -37 -37 -53q-38 -18 -69 -39.5t-56 -49t-44 -54.5t-33.5 -65.5t-24.5 -72t-17 -83.5t-11 -90.5t-6 -103.5t-2.5 -112t-0.5 -125t0.5 -125t2.5 -111.5t6 -103.5t11 -91t17 -83.5t24.5 -71.5
t33.5 -65t44 -54.5t56 -49t69 -39.5q37 -16 37 -54q0 -23 -17 -40t-40 -17q-12 0 -27 6q-133 59 -207 160t-107.5 276t-33.5 463z" />
    <glyph glyph-name="parenright.case" horiz-adv-x="602" 
d="M479 690q0 -288 -33.5 -463t-107.5 -276t-207 -160q-15 -6 -27 -6q-23 0 -40 17t-17 40q0 38 37 54q38 18 69 39.5t56 49t44 54.5t33.5 65t24.5 71.5t17 83.5t11 91t6 103.5t2.5 111.5t0.5 125t-0.5 125t-2.5 112t-6 103.5t-11 90.5t-17 83.5t-24.5 72t-33.5 65.5
t-44 54.5t-56 49t-69 39.5q-37 16 -37 53q0 23 17 40t40 17q12 0 27 -6q133 -59 207 -160t107.5 -276t33.5 -463z" />
    <glyph glyph-name="bracketleft.case" horiz-adv-x="530" 
d="M489 -162q0 -22 -15.5 -37.5t-37.5 -15.5h-207q-28 0 -46.5 18.5t-18.5 46.5v1680q0 28 18.5 46.5t46.5 18.5h207q22 0 37.5 -15.5t15.5 -37.5t-15.5 -37.5t-37.5 -15.5h-141v-1598h141q22 0 37.5 -15.5t15.5 -37.5z" />
    <glyph glyph-name="bracketright.case" horiz-adv-x="530" 
d="M41 -162q0 22 15.5 37.5t37.5 15.5h142v1598h-142q-22 0 -37.5 15.5t-15.5 37.5t15.5 37.5t37.5 15.5h207q28 0 47 -18.5t19 -46.5v-1680q0 -28 -19 -46.5t-47 -18.5h-207q-22 0 -37.5 15.5t-15.5 37.5z" />
    <glyph glyph-name="braceleft.case" horiz-adv-x="692" 
d="M639 -158q0 -23 -17 -40t-40 -17q-75 0 -132 20.5t-90.5 55t-50 76.5t-16.5 88q0 54 12 213.5t12 216.5q0 59 -15 97.5t-45 57.5t-63.5 26t-80.5 7h-15q-20 0 -33.5 13.5t-13.5 33.5t13.5 33.5t33.5 13.5h15q47 0 80.5 7t63.5 26.5t45 59t15 98.5q0 66 -12 192.5
t-12 237.5q0 46 16.5 87t50 75t90.5 54.5t132 20.5q23 0 40 -17t17 -40t-17 -40t-40 -17q-152 0 -152 -150q0 -47 8 -188t8 -199q0 -112 -64 -183t-183 -71q119 0 183 -70.5t64 -183.5q0 -49 -8 -194t-8 -193q0 -149 152 -149q23 0 40 -17.5t17 -40.5z" />
    <glyph glyph-name="braceright.case" horiz-adv-x="692" 
d="M53 -158q0 23 17.5 40.5t40.5 17.5q151 0 151 149q0 48 -8 193t-8 194q0 113 64.5 183.5t183.5 70.5q-119 0 -183.5 71t-64.5 183q0 58 8 199t8 188q0 150 -151 150q-23 0 -40.5 17t-17.5 40t17.5 40t40.5 17q144 0 216 -69.5t72 -167.5q0 -111 -12 -237.5t-12 -192.5
q0 -59 15.5 -98.5t45.5 -59t63.5 -26.5t80.5 -7h14q20 0 33.5 -13.5t13.5 -33.5t-13.5 -33.5t-33.5 -13.5h-14q-47 0 -80.5 -7t-63.5 -26t-45.5 -57.5t-15.5 -97.5q0 -57 12 -216.5t12 -213.5q0 -46 -16.5 -88t-49.5 -76.5t-90 -55t-132 -20.5q-23 0 -40.5 17t-17.5 40z" />
    <glyph glyph-name="guillemotleft.case" horiz-adv-x="1069" 
d="M160 690q0 20 14 37l334 393q16 19 37 19q20 0 34.5 -14.5t14.5 -34.5q0 -18 -14 -35l-314 -365l314 -364q14 -17 14 -35q0 -20 -14.5 -34.5t-34.5 -14.5q-22 0 -37 18l-334 393q-14 17 -14 37zM475 690q0 20 14 37l334 393q16 19 37 19q20 0 34.5 -14.5t14.5 -34.5
q0 -18 -14 -35l-313 -365l313 -364q14 -17 14 -35q0 -20 -14.5 -34.5t-34.5 -14.5q-22 0 -37 18l-334 393q-14 17 -14 37z" />
    <glyph glyph-name="guillemotright.case" horiz-adv-x="1069" 
d="M909 690q0 -20 -14 -37l-334 -393q-15 -18 -37 -18q-20 0 -34.5 14.5t-14.5 34.5q0 18 14 35l314 364l-314 365q-14 17 -14 35q0 20 14.5 34.5t34.5 14.5q21 0 37 -19l334 -393q14 -18 14 -37zM594 690q0 -20 -14 -37l-334 -393q-15 -18 -37 -18q-20 0 -34.5 14.5
t-14.5 34.5q0 18 14 35l313 364l-313 365q-14 17 -14 35q0 20 14.5 34.5t34.5 14.5q21 0 37 -19l334 -393q14 -18 14 -37z" />
    <glyph glyph-name="guilsinglleft.case" horiz-adv-x="751" 
d="M158 690q0 20 14 37l334 393q16 19 37 19q20 0 34.5 -14.5t14.5 -34.5q0 -18 -14 -35l-314 -365l314 -364q14 -17 14 -35q0 -20 -14.5 -34.5t-34.5 -14.5q-22 0 -37 18l-334 393q-14 17 -14 37z" />
    <glyph glyph-name="guilsinglright.case" horiz-adv-x="751" 
d="M594 690q0 -20 -14 -37l-334 -393q-15 -18 -37 -18q-20 0 -34.5 14.5t-14.5 34.5q0 18 14 35l313 364l-313 365q-14 17 -14 35q0 20 14.5 34.5t34.5 14.5q21 0 37 -19l334 -393q14 -18 14 -37z" />
    <glyph glyph-name="endash.case" horiz-adv-x="1196" 
d="M985 690q0 -23 -16 -39t-39 -16h-664q-23 0 -39 16t-16 39t16 39t39 16h664q23 0 39 -16t16 -39z" />
    <glyph glyph-name="emdash.case" horiz-adv-x="1880" 
d="M1669 690q0 -23 -16 -39t-39 -16h-1348q-23 0 -39 16t-16 39t16 39t39 16h1348q23 0 39 -16t16 -39z" />
    <glyph glyph-name="periodcentered.case" horiz-adv-x="335" 
d="M168 573q-96 0 -96 97q0 98 96 98t96 -98q0 -97 -96 -97z" />
    <glyph glyph-name="questiondown.case" horiz-adv-x="944" 
d="M565 1055q66 -66 66 -174q0 -54 -23.5 -98.5t-61.5 -77t-83.5 -62.5t-91 -61t-83.5 -66.5t-61.5 -86.5t-23.5 -112q0 -112 72 -168.5t202 -56.5q124 0 193 61.5t69 184.5q0 28 20 48t48 20t47.5 -20t19.5 -48q0 -171 -104.5 -269t-292.5 -98q-191 0 -298 90.5t-107 255.5
q0 73 23.5 135t60.5 105t82 79.5t90 65.5t82 56t60.5 58t23.5 65q0 18 -5 34t-9 23t-15 25q-16 24 -16 45q0 30 21 48.5t46 18.5q29 0 49 -20zM524 1395q97 0 97 -97q0 -98 -97 -98q-96 0 -96 98q0 97 96 97z" />
    <glyph glyph-name="exclamdown.case" horiz-adv-x="425" 
d="M213 -16q-75 0 -72 71l31 965q0 37 41 37t41 -37l31 -965q3 -71 -72 -71zM213 1395q96 0 96 -97q0 -98 -96 -98t-96 98q0 97 96 97z" />
    <glyph glyph-name="bullet.case" horiz-adv-x="856" 
d="M428 424q-129 0 -197.5 66.5t-68.5 199.5q0 279 266 279t266 -279q0 -133 -68.5 -199.5t-197.5 -66.5z" />
    <glyph glyph-name="dollar.onum" horiz-adv-x="968" 
d="M743 948q-43 59 -105.5 93t-160.5 34q-122 0 -181.5 -48.5t-59.5 -123.5q0 -45 22 -80.5t59.5 -59.5t86 -44.5t102.5 -39.5t107.5 -39.5t102 -49.5t86 -65.5t59.5 -91t22 -122.5q0 -143 -95.5 -234t-257.5 -100v-157q0 -22 -15.5 -37.5t-37.5 -15.5t-37.5 15.5
t-15.5 37.5v155q-122 11 -212.5 68.5t-145.5 140.5q-13 22 -13 37q0 26 19 45t45 19q35 0 55 -33q98 -154 293 -154q287 0 287 213q0 62 -36 108t-93 74t-126.5 52t-139 52t-126.5 64.5t-93 98t-36 143.5q0 71 28.5 127t77 89.5t102.5 52t114 24.5v125q0 22 15.5 37.5
t37.5 15.5t37.5 -15.5t15.5 -37.5v-125q87 -9 176.5 -52t143.5 -126q10 -17 10 -35q0 -26 -18.5 -44.5t-44.5 -18.5q-34 0 -54 28z" />
    <glyph glyph-name="cent.onum" horiz-adv-x="1028" 
d="M72 549q0 267 113 404.5t313 158.5v141q0 22 15.5 38t37.5 16t37.5 -16t15.5 -38v-139q71 -5 131 -24.5t98 -46t58 -45.5t31 -35q14 -20 14 -43q0 -25 -18.5 -43.5t-43.5 -18.5q-29 0 -47 21q-99 112 -268 112q-173 0 -263.5 -109.5t-90.5 -332.5q0 -226 90.5 -338.5
t263.5 -112.5q175 0 264 103q21 26 51 26q25 0 43.5 -16.5t18.5 -42.5q0 -23 -14 -43q-10 -15 -30.5 -34t-57.5 -44t-97.5 -45t-132.5 -27v-155q0 -22 -15.5 -37.5t-37.5 -15.5t-37.5 15.5t-15.5 37.5v157q-192 9 -309 155t-117 417z" />
    <glyph glyph-name="sterling.onum" horiz-adv-x="1026" 
d="M573 516h-213q25 -63 25 -145q0 -60 -25.5 -124.5t-66.5 -105.5q52 25 110 25q51 0 155 -36t151 -36q51 0 83.5 18.5t65.5 61.5q19 25 49 25q26 0 44 -18t18 -44q0 -15 -8 -35q-35 -69 -96.5 -101t-155.5 -32q-59 0 -170 39t-172 39q-54 0 -90.5 -12.5t-90.5 -44.5
q-22 -13 -41 -13q-28 0 -43.5 18t-15.5 42q0 32 29 51q62 41 101.5 113t39.5 143q0 96 -33 172h-90q-26 0 -43.5 18t-17.5 44t17.5 43.5t43.5 17.5h27q-66 118 -66 225q0 65 25.5 124.5t74 107t127 76t175.5 28.5q151 0 252.5 -66t142.5 -169q6 -15 6 -33q0 -26 -17.5 -44
t-43.5 -18q-41 0 -58 39q-35 78 -100.5 123t-181.5 45q-124 0 -196.5 -59t-72.5 -154q0 -100 74 -225h272q26 0 44 -17.5t18 -43.5t-18 -44t-44 -18z" />
    <glyph glyph-name="yen.onum" horiz-adv-x="993" 
d="M791 365h-230v-316q0 -28 -18.5 -46.5t-46.5 -18.5q-27 0 -46.5 19t-19.5 46v316h-227q-26 0 -44 17.5t-18 43.5t18 43.5t44 17.5h227v74h-227q-26 0 -44 18t-18 44t18 43.5t44 17.5h166l-301 389q-19 24 -19 45q0 26 20 46t48 20q30 0 51 -27l330 -432l325 432
q20 27 54 27q26 0 45.5 -20t19.5 -46t-16 -45l-301 -389h166q26 0 43.5 -17.5t17.5 -43.5t-17.5 -44t-43.5 -18h-230v-74h230q26 0 43.5 -17.5t17.5 -43.5t-17.5 -43.5t-43.5 -17.5z" />
    <glyph glyph-name="florin.onum" horiz-adv-x="839" 
d="M864 1296q0 -22 -14.5 -36.5t-36.5 -14.5q-12 0 -35 10q-66 27 -121 27q-90 0 -137.5 -57t-68.5 -172l-41 -238h198q23 0 39.5 -16t16.5 -39t-16.5 -39t-39.5 -16h-217l-127 -705q-35 -195 -141.5 -303.5t-284.5 -108.5q-74 0 -133 23q-45 16 -45 55q0 23 16 39t39 16
q11 0 23 -4q4 -1 18.5 -5.5t19 -5.5t17 -3.5t25.5 -3t30 -0.5q116 0 188.5 75.5t96.5 207.5l129 723h-133q-23 0 -39 16t-16 39t16 39t39 16h152l38 221q31 173 111.5 265t226.5 92q109 0 177 -45q30 -20 30 -52z" />
    <glyph glyph-name="Euro.onum" horiz-adv-x="1126" 
d="M522 639h-291q-2 -22 -2 -51q0 -25 2 -58h291q23 0 39.5 -16t16.5 -39t-16.5 -39t-39.5 -16h-278q34 -162 138 -242t253 -80q71 0 127 20.5t84 44t57 58.5q25 31 53 31t46 -16t18 -43q0 -25 -16 -46q-137 -174 -369 -174q-214 0 -348.5 124t-175.5 323h-50q-23 0 -39 16
t-16 39t16 39t39 16h37q-2 33 -2 58l2 51h-37q-23 0 -39 16t-16 39t16 39.5t39 16.5h50q21 115 73 203t123.5 140.5t154 78.5t173.5 26q134 0 233 -48.5t138 -109.5q14 -23 14 -43q0 -26 -18 -43.5t-46 -17.5q-29 0 -51 25q-103 114 -270 114q-327 0 -391 -325h278
q23 0 39.5 -16.5t16.5 -39.5t-16.5 -39t-39.5 -16z" />
    <glyph glyph-name="ampersand.salt1" horiz-adv-x="1169" 
d="M1079 451q0 -94 -38.5 -182.5t-110.5 -153.5q22 -64 22 -142q0 -64 -18.5 -123t-54.5 -109t-96 -80t-136 -30q-92 0 -151 39q-13 6 -23 22t-10 34q0 26 18.5 44.5t44.5 18.5q15 0 39 -12q40 -21 80 -21q83 0 129.5 66t46.5 151q0 44 -4 62q-121 -64 -274 -64
q-126 0 -227.5 46.5t-163.5 139.5t-62 218t64 217t180 166q-49 78 -75 154t-26 180q0 138 77.5 226.5t213.5 88.5q122 0 198.5 -73t76.5 -201q0 -221 -297 -416q51 -76 184.5 -225t192.5 -242q71 79 71 201q0 74 -36.5 125.5t-125.5 115.5q-30 21 -30 53q0 26 18.5 45
t44.5 19q17 0 35 -10q101 -53 162 -147t61 -201zM365 1092q0 -77 19.5 -134t61.5 -133q110 69 166 142t56 166q0 73 -41 114t-103 41q-78 0 -118.5 -54t-40.5 -142zM543 90q58 0 106.5 10.5t74 22.5t60.5 33q-43 80 -112 163.5t-151 173.5t-130 158q-170 -109 -170 -276
q0 -133 94 -209t228 -76z" />
    <glyph glyph-name="ornament.B" horiz-adv-x="1499" 
d="M1210 1395q79 0 135 -55.5t56 -133.5q0 -65 -36.5 -116t-95 -79.5t-121.5 -42.5t-126 -14l-39 2q4 -39 4 -92q0 -115 -42.5 -226.5t-109 -195t-141 -144t-145.5 -91.5q-12 -6 -12 -23q0 -8 6.5 -14t15.5 -6q7 0 19 4q155 65 273 198t175 310q89 0 149 -61.5t60 -174.5
q0 -92 -41.5 -174.5t-117.5 -145t-190.5 -99.5t-252.5 -37q-148 0 -267 47.5t-193.5 147t-74.5 237.5q0 70 31 107.5t90 37.5q88 0 88 -92q0 -25 -11.5 -44.5t-25.5 -30.5t-25.5 -27t-11.5 -35q0 -37 31.5 -66.5t69.5 -29.5q43 0 74.5 33t31.5 77q0 38 -36.5 151t-36.5 183
q0 101 66 163t161 62q175 0 264 -160q16 46 16 140l-4 84q-87 16 -178.5 58t-174 113t-116.5 152q-64 -5 -105.5 -41t-41.5 -92q0 -47 29 -72.5t79 -25.5q25 0 41.5 -16t16.5 -41q0 -24 -17 -41t-41 -17q-91 0 -157 57t-66 156q0 117 92 182.5t222 65.5q158 0 303 -95.5
t207 -246.5q28 -4 59 -4q117 0 190.5 43.5t73.5 101.5q0 31 -22 52.5t-54 21.5q-31 0 -52 -21.5t-21 -52.5q0 -23 -17 -39t-39 -16q-23 0 -39 16t-16 39q0 78 52 133.5t132 55.5zM516 1298q59 -86 130 -130.5t183 -80.5q-48 77 -132 138.5t-181 72.5z" />
    <glyph glyph-name="slash.case" horiz-adv-x="833" 
d="M84 -84l541 1595q15 48 63 48q28 0 47 -19t19 -47q0 -13 -6 -31l-541 -1595q-14 -47 -64 -47q-28 0 -46.5 18.5t-18.5 46.5q0 13 6 31z" />
    <glyph glyph-name="backslash.case" horiz-adv-x="833" 
d="M209 1511l541 -1595q6 -18 6 -31q0 -28 -19 -46.5t-47 -18.5q-49 0 -63 47l-541 1595q-6 18 -6 31q0 28 18.5 47t46.5 19q49 0 64 -48z" />
    <glyph glyph-name="bar.case" horiz-adv-x="446" 
d="M289 1614v-1847q0 -28 -20 -48t-48 -20t-47.5 20t-19.5 48v1847q0 28 19.5 47.5t47.5 19.5t48 -19.5t20 -47.5z" />
    <glyph glyph-name="zero.numerator" horiz-adv-x="610" 
d="M305 866q73 0 109.5 53t36.5 168q0 224 -146 224q-73 0 -109 -54t-36 -170q0 -115 36 -168t109 -53zM305 770q-124 0 -189 76t-65 241q0 320 254 320t254 -320q0 -165 -65 -241t-189 -76z" />
    <glyph glyph-name="one.numerator" horiz-adv-x="401" 
d="M203 1255l-62 -43q-18 -14 -37 -14q-20 0 -35.5 15.5t-15.5 35.5q0 26 25 43l147 99q13 10 31 10q22 0 37.5 -15.5t15.5 -37.5v-519q0 -22 -15.5 -37.5t-37.5 -15.5t-37.5 15.5t-15.5 37.5v426z" />
    <glyph glyph-name="two.numerator" horiz-adv-x="544" 
d="M72 1298q22 52 74 80.5t124 28.5q102 0 162 -48t60 -134q0 -55 -34 -100.5t-82.5 -76t-97 -56.5t-82.5 -54t-34 -57h276q20 0 34.5 -15t14.5 -35t-14.5 -34.5t-34.5 -14.5h-342q-20 0 -34.5 14.5t-14.5 34.5q0 66 35 117t84.5 82t99 58t84.5 61t35 76q0 37 -29.5 61.5
t-85.5 24.5q-45 0 -69.5 -14.5t-46.5 -45.5q-16 -20 -39 -20q-20 0 -33.5 13.5t-13.5 33.5q0 10 4 20z" />
    <glyph glyph-name="three.numerator" horiz-adv-x="530" 
d="M434 1307l-139 -144q95 0 139.5 -55.5t44.5 -132.5q0 -95 -59 -150t-178 -55q-73 0 -126.5 34t-80.5 85q-8 16 -8 29q0 20 13.5 33.5t33.5 13.5q26 0 43 -27q42 -70 125 -70q129 0 129 107q0 98 -123 98h-45q-20 0 -34.5 14.5t-14.5 34.5q0 18 12 33l127 137h-191
q-22 0 -36.5 14.5t-14.5 36.5t14.5 37t36.5 15h295q22 0 37 -15t15 -37q0 -24 -15 -36z" />
    <glyph glyph-name="four.numerator" horiz-adv-x="532" 
d="M418 1012h33q20 0 34.5 -14.5t14.5 -34.5t-14.5 -35t-34.5 -15h-33v-84q0 -22 -15.5 -37.5t-37.5 -15.5t-38 15.5t-16 37.5v84h-227q-20 0 -34.5 15t-14.5 35q0 17 12 32l275 383q19 23 43 23q22 0 37.5 -15.5t15.5 -37.5v-336zM174 1012h137v196z" />
    <glyph glyph-name="five.numerator" horiz-adv-x="536" 
d="M256 1186q101 0 165 -50t64 -157q0 -101 -62 -155t-167 -54q-79 0 -134.5 34.5t-84.5 82.5q-10 17 -10 31q0 20 13.5 33.5t33.5 13.5q27 0 45 -29q23 -37 54 -52.5t83 -15.5q58 0 89.5 31t31.5 80q0 51 -31.5 82t-89.5 31q-56 0 -119 -29q-28 -12 -39 -12
q-20 0 -33.5 13.5t-13.5 33.5q0 10 4 28l39 222q3 20 16.5 32.5t34.5 12.5h273q22 0 36.5 -15t14.5 -37t-14.5 -36.5t-36.5 -14.5h-234l-20 -121q38 17 92 17z" />
    </font>
</defs>
</svg>
